MeshVersion
 1
Dimension
 3
Vertices
 98
                 -0.5                 -0.5                    0     0
                    0                    0                    0     0
                    0                 -0.5                    0     0
                -0.25                -0.25                    0     0
                    0                -0.25                    0     0
                -0.25                 -0.5                    0     0
                  0.5                  0.5                    0     0
                  0.5                    0                    0     0
                  0.5                 0.25                    0     0
                 0.25                    0                    0     0
                 0.25                 0.25                    0     0
                  0.5                 -0.5                    0     0
                 0.25                 -0.5                    0     0
                 0.25                -0.25                    0     0
                  0.5                -0.25                    0     0
                 -0.5                    0                    0     0
                 -0.5                -0.25                    0     0
                -0.25                    0                    0     0
                 -0.5                  0.5                    0     0
                    0                  0.5                    0     0
                -0.25                  0.5                    0     0
                -0.25                 0.25                    0     0
                 -0.5                 0.25                    0     0
                    0                 0.25                    0     0
                 0.25                  0.5                    0     0
                    0                 -0.5                  0.5     0
                 -0.5                 -0.5                  0.5     0
                -0.25                 -0.5                 0.25     0
                -0.25                 -0.5                  0.5     0
                 -0.5                 -0.5                 0.25     0
                  0.5                 -0.5                    1     0
                    0                 -0.5                    1     0
                 0.25                 -0.5                    1     0
                    0                 -0.5                 0.75     0
                 0.25                 -0.5                 0.75     0
                 -0.5                 -0.5                    1     0
                 -0.5                 -0.5                 0.75     0
                -0.25                 -0.5                 0.75     0
                -0.25                 -0.5                    1     0
                    0                 -0.5                 0.25     0
                  0.5                 -0.5                  0.5     0
                  0.5                 -0.5                 0.25     0
                 0.25                 -0.5                 0.25     0
                 0.25                 -0.5                  0.5     0
                  0.5                 -0.5                 0.75     0
                  0.5                -0.25                 0.25     0
                  0.5                    0                  0.5     0
                  0.5                 0.25                 0.25     0
                  0.5                    0                 0.25     0
                  0.5                -0.25                  0.5     0
                  0.5                -0.25                 0.75     0
                  0.5                  0.5                  0.5     0
                  0.5                  0.5                 0.25     0
                  0.5                 0.25                  0.5     0
                  0.5                  0.5                    1     0
                  0.5                    0                    1     0
                  0.5                 0.25                    1     0
                  0.5                 0.25                 0.75     0
                  0.5                  0.5                 0.75     0
                  0.5                    0                 0.75     0
                  0.5                -0.25                    1     0
                 0.25                  0.5                 0.25     0
                    0                  0.5                  0.5     0
                -0.25                  0.5                 0.25     0
                    0                  0.5                 0.25     0
                 0.25                  0.5                  0.5     0
                 0.25                  0.5                 0.75     0
                 -0.5                  0.5                  0.5     0
                 -0.5                  0.5                 0.25     0
                -0.25                  0.5                  0.5     0
                 -0.5                  0.5                    1     0
                    0                  0.5                    1     0
                -0.25                  0.5                    1     0
                -0.25                  0.5                 0.75     0
                 -0.5                  0.5                 0.75     0
                    0                  0.5                 0.75     0
                 0.25                  0.5                    1     0
                 -0.5                    0                  0.5     0
                 -0.5                 0.25                 0.25     0
                 -0.5                 0.25                  0.5     0
                 -0.5                    0                    1     0
                 -0.5                -0.25                    1     0
                 -0.5                    0                 0.75     0
                 -0.5                -0.25                 0.75     0
                 -0.5                 0.25                 0.75     0
                 -0.5                 0.25                    1     0
                 -0.5                    0                 0.25     0
                 -0.5                -0.25                 0.25     0
                 -0.5                -0.25                  0.5     0
                    0                    0                    1     0
                -0.25                -0.25                    1     0
                -0.25                    0                    1     0
                    0                 0.25                    1     0
                 0.25                 0.25                    1     0
                -0.25                 0.25                    1     0
                    0                -0.25                    1     0
                 0.25                -0.25                    1     0
                 0.25                    0                    1     0
Triangles
 192
    1    4    6    0
    2    5    4    0
    3    6    5    0
    4    5    6    0
    7    9   11    0
    8   10    9    0
    2   11   10    0
    9   10   11    0
   12   13   15    0
    3   14   13    0
    8   15   14    0
   13   14   15    0
    2   10    5    0
    8   14   10    0
    3    5   14    0
   10   14    5    0
    1   17    4    0
   16   18   17    0
    2    4   18    0
   17   18    4    0
   19   21   23    0
   20   22   21    0
   16   23   22    0
   21   22   23    0
    7   11   25    0
    2   24   11    0
   20   25   24    0
   11   24   25    0
   16   22   18    0
   20   24   22    0
    2   18   24    0
   22   24   18    0
    1   28   30    0
   26   29   28    0
   27   30   29    0
   28   29   30    0
   31   33   35    0
   32   34   33    0
   26   35   34    0
   33   34   35    0
   36   37   39    0
   27   38   37    0
   32   39   38    0
   37   38   39    0
   26   34   29    0
   32   38   34    0
   27   29   38    0
   34   38   29    0
    1    6   28    0
    3   40    6    0
   26   28   40    0
    6   40   28    0
   12   42   13    0
   41   43   42    0
    3   13   43    0
   42   43   13    0
   31   35   45    0
   26   44   35    0
   41   45   44    0
   35   44   45    0
    3   43   40    0
   41   44   43    0
   26   40   44    0
   43   44   40    0
   12   15   42    0
    8   46   15    0
   41   42   46    0
   15   46   42    0
    7   48    9    0
   47   49   48    0
    8    9   49    0
   48   49    9    0
   31   45   51    0
   41   50   45    0
   47   51   50    0
   45   50   51    0
    8   49   46    0
   47   50   49    0
   41   46   50    0
   49   50   46    0
    7   53   48    0
   52   54   53    0
   47   48   54    0
   53   54   48    0
   55   57   59    0
   56   58   57    0
   52   59   58    0
   57   58   59    0
   31   51   61    0
   47   60   51    0
   56   61   60    0
   51   60   61    0
   52   58   54    0
   56   60   58    0
   47   54   60    0
   58   60   54    0
    7   25   53    0
   20   62   25    0
   52   53   62    0
   25   62   53    0
   19   64   21    0
   63   65   64    0
   20   21   65    0
   64   65   21    0
   55   59   67    0
   52   66   59    0
   63   67   66    0
   59   66   67    0
   20   65   62    0
   63   66   65    0
   52   62   66    0
   65   66   62    0
   19   69   64    0
   68   70   69    0
   63   64   70    0
   69   70   64    0
   71   73   75    0
   72   74   73    0
   68   75   74    0
   73   74   75    0
   55   67   77    0
   63   76   67    0
   72   77   76    0
   67   76   77    0
   68   74   70    0
   72   76   74    0
   63   70   76    0
   74   76   70    0
   19   79   69    0
   78   80   79    0
   68   69   80    0
   79   80   69    0
   36   82   84    0
   81   83   82    0
   78   84   83    0
   82   83   84    0
   71   75   86    0
   68   85   75    0
   81   86   85    0
   75   85   86    0
   78   83   80    0
   81   85   83    0
   68   80   85    0
   83   85   80    0
   19   23   79    0
   16   87   23    0
   78   79   87    0
   23   87   79    0
    1   30   17    0
   27   88   30    0
   16   17   88    0
   30   88   17    0
   36   84   37    0
   78   89   84    0
   27   37   89    0
   84   89   37    0
   16   88   87    0
   27   89   88    0
   78   87   89    0
   88   89   87    0
   36   91   82    0
   90   92   91    0
   81   82   92    0
   91   92   82    0
   55   77   94    0
   72   93   77    0
   90   94   93    0
   77   93   94    0
   71   86   73    0
   81   95   86    0
   72   73   95    0
   86   95   73    0
   90   93   92    0
   72   95   93    0
   81   92   95    0
   93   95   92    0
   36   39   91    0
   32   96   39    0
   90   91   96    0
   39   96   91    0
   31   61   33    0
   56   97   61    0
   32   33   97    0
   61   97   33    0
   55   94   57    0
   90   98   94    0
   56   57   98    0
   94   98   57    0
   32   97   96    0
   56   98   97    0
   90   96   98    0
   97   98   96    0
End