MeshVersion
 1
Dimension
 3
Vertices
 386
                 -0.5                 -0.5                 -0.5     0
                -0.25                -0.25                 -0.5     0
                -0.25                 -0.5                 -0.5     0
               -0.375               -0.375                 -0.5     0
                -0.25               -0.375                 -0.5     0
               -0.375                 -0.5                 -0.5     0
                    0                    0                 -0.5     0
                    0                -0.25                 -0.5     0
                    0               -0.125                 -0.5     0
               -0.125                -0.25                 -0.5     0
               -0.125               -0.125                 -0.5     0
                    0                 -0.5                 -0.5     0
               -0.125                 -0.5                 -0.5     0
               -0.125               -0.375                 -0.5     0
                    0               -0.375                 -0.5     0
                  0.5                  0.5                 -0.5     0
                  0.5                 0.25                 -0.5     0
                 0.25                 0.25                 -0.5     0
                  0.5                0.375                 -0.5     0
                0.375                 0.25                 -0.5     0
                0.375                0.375                 -0.5     0
                  0.5                    0                 -0.5     0
                 0.25                    0                 -0.5     0
                0.375                    0                 -0.5     0
                0.375                0.125                 -0.5     0
                  0.5                0.125                 -0.5     0
                0.125                0.125                 -0.5     0
                 0.25                0.125                 -0.5     0
                0.125                    0                 -0.5     0
                  0.5                 -0.5                 -0.5     0
                 0.25                 -0.5                 -0.5     0
                  0.5                -0.25                 -0.5     0
                0.375                 -0.5                 -0.5     0
                0.375               -0.375                 -0.5     0
                  0.5               -0.375                 -0.5     0
                 0.25                -0.25                 -0.5     0
                0.125               -0.375                 -0.5     0
                 0.25               -0.375                 -0.5     0
                0.125                 -0.5                 -0.5     0
                  0.5               -0.125                 -0.5     0
                0.375                -0.25                 -0.5     0
                0.375               -0.125                 -0.5     0
                0.125               -0.125                 -0.5     0
                 0.25               -0.125                 -0.5     0
                0.125                -0.25                 -0.5     0
                 -0.5                -0.25                 -0.5     0
                 -0.5               -0.375                 -0.5     0
               -0.375                -0.25                 -0.5     0
                 -0.5                    0                 -0.5     0
                -0.25                    0                 -0.5     0
               -0.375                    0                 -0.5     0
               -0.375               -0.125                 -0.5     0
                 -0.5               -0.125                 -0.5     0
                -0.25               -0.125                 -0.5     0
               -0.125                    0                 -0.5     0
                 -0.5                  0.5                 -0.5     0
                -0.25                  0.5                 -0.5     0
                 -0.5                 0.25                 -0.5     0
               -0.375                  0.5                 -0.5     0
               -0.375                0.375                 -0.5     0
                 -0.5                0.375                 -0.5     0
                    0                  0.5                 -0.5     0
                -0.25                 0.25                 -0.5     0
               -0.125                0.375                 -0.5     0
                -0.25                0.375                 -0.5     0
               -0.125                  0.5                 -0.5     0
                 -0.5                0.125                 -0.5     0
               -0.375                 0.25                 -0.5     0
               -0.375                0.125                 -0.5     0
                 0.25                  0.5                 -0.5     0
                 0.25                0.375                 -0.5     0
                0.375                  0.5                 -0.5     0
                    0                 0.25                 -0.5     0
                    0                0.125                 -0.5     0
                0.125                 0.25                 -0.5     0
                0.125                  0.5                 -0.5     0
                0.125                0.375                 -0.5     0
                    0                0.375                 -0.5     0
                -0.25                0.125                 -0.5     0
               -0.125                 0.25                 -0.5     0
               -0.125                0.125                 -0.5     0
                -0.25                 -0.5                -0.25     0
                 -0.5                 -0.5                -0.25     0
               -0.375                 -0.5               -0.375     0
               -0.375                 -0.5                -0.25     0
                 -0.5                 -0.5               -0.375     0
                    0                 -0.5                    0     0
                -0.25                 -0.5                    0     0
               -0.125                 -0.5                    0     0
                -0.25                 -0.5               -0.125     0
               -0.125                 -0.5               -0.125     0
                 -0.5                 -0.5                    0     0
                 -0.5                 -0.5               -0.125     0
               -0.375                 -0.5               -0.125     0
               -0.375                 -0.5                    0     0
                  0.5                 -0.5                  0.5     0
                 0.25                 -0.5                  0.5     0
                 0.25                 -0.5                 0.25     0
                0.375                 -0.5                  0.5     0
                 0.25                 -0.5                0.375     0
                0.375                 -0.5                0.375     0
                    0                 -0.5                  0.5     0
                    0                 -0.5                 0.25     0
                    0                 -0.5                0.375     0
                0.125                 -0.5                0.375     0
                0.125                 -0.5                  0.5     0
                0.125                 -0.5                0.125     0
                0.125                 -0.5                 0.25     0
                    0                 -0.5                0.125     0
                 -0.5                 -0.5                  0.5     0
                 -0.5                 -0.5                 0.25     0
                -0.25                 -0.5                  0.5     0
                 -0.5                 -0.5                0.375     0
               -0.375                 -0.5                0.375     0
               -0.375                 -0.5                  0.5     0
                -0.25                 -0.5                 0.25     0
               -0.375                 -0.5                0.125     0
               -0.375                 -0.5                 0.25     0
                 -0.5                 -0.5                0.125     0
               -0.125                 -0.5                  0.5     0
                -0.25                 -0.5                0.375     0
               -0.125                 -0.5                0.375     0
               -0.125                 -0.5                0.125     0
               -0.125                 -0.5                 0.25     0
                -0.25                 -0.5                0.125     0
                -0.25                 -0.5               -0.375     0
                    0                 -0.5                -0.25     0
                    0                 -0.5               -0.375     0
               -0.125                 -0.5               -0.375     0
               -0.125                 -0.5                -0.25     0
                    0                 -0.5               -0.125     0
                  0.5                 -0.5                -0.25     0
                  0.5                 -0.5               -0.375     0
                0.375                 -0.5               -0.375     0
                  0.5                 -0.5                    0     0
                 0.25                 -0.5                -0.25     0
                0.375                 -0.5               -0.125     0
                0.375                 -0.5                -0.25     0
                  0.5                 -0.5               -0.125     0
                 0.25                 -0.5               -0.375     0
                0.125                 -0.5               -0.375     0
                  0.5                 -0.5                 0.25     0
                0.375                 -0.5                 0.25     0
                  0.5                 -0.5                0.375     0
                 0.25                 -0.5                    0     0
                0.125                 -0.5                    0     0
                 0.25                 -0.5                0.125     0
                  0.5                 -0.5                0.125     0
                0.375                 -0.5                0.125     0
                0.375                 -0.5                    0     0
                0.125                 -0.5                -0.25     0
                 0.25                 -0.5               -0.125     0
                0.125                 -0.5               -0.125     0
                  0.5               -0.375               -0.375     0
                  0.5                -0.25                -0.25     0
                  0.5               -0.125               -0.375     0
                  0.5                -0.25               -0.375     0
                  0.5               -0.375                -0.25     0
                  0.5               -0.375               -0.125     0
                  0.5                 0.25                -0.25     0
                  0.5                0.375               -0.375     0
                  0.5                 0.25               -0.375     0
                  0.5                    0                    0     0
                  0.5                    0                -0.25     0
                  0.5                    0               -0.125     0
                  0.5                0.125                -0.25     0
                  0.5                0.125               -0.125     0
                  0.5                0.125               -0.375     0
                  0.5                    0               -0.375     0
                  0.5                -0.25                 0.25     0
                  0.5               -0.375                 0.25     0
                  0.5               -0.375                0.375     0
                  0.5                -0.25                    0     0
                  0.5               -0.375                    0     0
                  0.5               -0.375                0.125     0
                  0.5               -0.125                0.125     0
                  0.5                -0.25                0.125     0
                  0.5               -0.125                    0     0
                  0.5               -0.125                -0.25     0
                  0.5               -0.125               -0.125     0
                  0.5                -0.25               -0.125     0
                  0.5                  0.5                -0.25     0
                  0.5                  0.5               -0.375     0
                  0.5                0.375                -0.25     0
                  0.5                  0.5                    0     0
                  0.5                 0.25                    0     0
                  0.5                0.375                    0     0
                  0.5                0.375               -0.125     0
                  0.5                  0.5               -0.125     0
                  0.5                 0.25               -0.125     0
                  0.5                0.125                    0     0
                  0.5                  0.5                  0.5     0
                  0.5                 0.25                  0.5     0
                  0.5                  0.5                 0.25     0
                  0.5                0.375                  0.5     0
                  0.5                0.375                0.375     0
                  0.5                  0.5                0.375     0
                  0.5                    0                  0.5     0
                  0.5                 0.25                 0.25     0
                  0.5                0.125                0.375     0
                  0.5                 0.25                0.375     0
                  0.5                0.125                  0.5     0
                  0.5                  0.5                0.125     0
                  0.5                0.375                 0.25     0
                  0.5                0.375                0.125     0
                  0.5                -0.25                  0.5     0
                  0.5                -0.25                0.375     0
                  0.5               -0.375                  0.5     0
                  0.5                    0                 0.25     0
                  0.5                    0                0.125     0
                  0.5               -0.125                 0.25     0
                  0.5               -0.125                  0.5     0
                  0.5               -0.125                0.375     0
                  0.5                    0                0.375     0
                  0.5                 0.25                0.125     0
                  0.5                0.125                 0.25     0
                  0.5                0.125                0.125     0
                0.375                  0.5               -0.375     0
                 0.25                  0.5                -0.25     0
                0.125                  0.5               -0.375     0
                 0.25                  0.5               -0.375     0
                0.375                  0.5                -0.25     0
                0.375                  0.5               -0.125     0
                -0.25                  0.5                -0.25     0
               -0.375                  0.5               -0.375     0
                -0.25                  0.5               -0.375     0
                    0                  0.5                    0     0
                    0                  0.5                -0.25     0
                    0                  0.5               -0.125     0
               -0.125                  0.5                -0.25     0
               -0.125                  0.5               -0.125     0
               -0.125                  0.5               -0.375     0
                    0                  0.5               -0.375     0
                 0.25                  0.5                 0.25     0
                0.375                  0.5                 0.25     0
                0.375                  0.5                0.375     0
                 0.25                  0.5                    0     0
                0.375                  0.5                    0     0
                0.375                  0.5                0.125     0
                0.125                  0.5                0.125     0
                 0.25                  0.5                0.125     0
                0.125                  0.5                    0     0
                0.125                  0.5                -0.25     0
                0.125                  0.5               -0.125     0
                 0.25                  0.5               -0.125     0
                 -0.5                  0.5                -0.25     0
                 -0.5                  0.5               -0.375     0
               -0.375                  0.5                -0.25     0
                 -0.5                  0.5                    0     0
                -0.25                  0.5                    0     0
               -0.375                  0.5                    0     0
               -0.375                  0.5               -0.125     0
                 -0.5                  0.5               -0.125     0
                -0.25                  0.5               -0.125     0
               -0.125                  0.5                    0     0
                 -0.5                  0.5                  0.5     0
                -0.25                  0.5                  0.5     0
                 -0.5                  0.5                 0.25     0
               -0.375                  0.5                  0.5     0
               -0.375                  0.5                0.375     0
                 -0.5                  0.5                0.375     0
                    0                  0.5                  0.5     0
                -0.25                  0.5                 0.25     0
               -0.125                  0.5                0.375     0
                -0.25                  0.5                0.375     0
               -0.125                  0.5                  0.5     0
                 -0.5                  0.5                0.125     0
               -0.375                  0.5                 0.25     0
               -0.375                  0.5                0.125     0
                 0.25                  0.5                  0.5     0
                 0.25                  0.5                0.375     0
                0.375                  0.5                  0.5     0
                    0                  0.5                 0.25     0
                    0                  0.5                0.125     0
                0.125                  0.5                 0.25     0
                0.125                  0.5                  0.5     0
                0.125                  0.5                0.375     0
                    0                  0.5                0.375     0
                -0.25                  0.5                0.125     0
               -0.125                  0.5                 0.25     0
               -0.125                  0.5                0.125     0
                 -0.5                 0.25                -0.25     0
                 -0.5                0.375               -0.375     0
                 -0.5                0.375                -0.25     0
                 -0.5                    0                    0     0
                 -0.5                 0.25                    0     0
                 -0.5                0.125                    0     0
                 -0.5                 0.25               -0.125     0
                 -0.5                0.125               -0.125     0
                 -0.5                0.375               -0.125     0
                 -0.5                0.375                    0     0
                 -0.5                -0.25                  0.5     0
                 -0.5                -0.25                 0.25     0
                 -0.5               -0.375                  0.5     0
                 -0.5                -0.25                0.375     0
                 -0.5               -0.375                0.375     0
                 -0.5                    0                  0.5     0
                 -0.5                    0                 0.25     0
                 -0.5                    0                0.375     0
                 -0.5               -0.125                0.375     0
                 -0.5               -0.125                  0.5     0
                 -0.5               -0.125                0.125     0
                 -0.5               -0.125                 0.25     0
                 -0.5                    0                0.125     0
                 -0.5                 0.25                  0.5     0
                 -0.5                0.375                0.375     0
                 -0.5                0.375                  0.5     0
                 -0.5                 0.25                 0.25     0
                 -0.5                0.375                0.125     0
                 -0.5                0.375                 0.25     0
                 -0.5                0.125                  0.5     0
                 -0.5                 0.25                0.375     0
                 -0.5                0.125                0.375     0
                 -0.5                0.125                0.125     0
                 -0.5                0.125                 0.25     0
                 -0.5                 0.25                0.125     0
                 -0.5                 0.25               -0.375     0
                 -0.5                    0                -0.25     0
                 -0.5                    0               -0.375     0
                 -0.5                0.125               -0.375     0
                 -0.5                0.125                -0.25     0
                 -0.5                    0               -0.125     0
                 -0.5               -0.375               -0.375     0
                 -0.5                -0.25                -0.25     0
                 -0.5               -0.375               -0.125     0
                 -0.5               -0.375                -0.25     0
                 -0.5                -0.25               -0.375     0
                 -0.5               -0.125               -0.375     0
                 -0.5               -0.375                 0.25     0
                 -0.5                -0.25                    0     0
                 -0.5               -0.125                    0     0
                 -0.5                -0.25                0.125     0
                 -0.5               -0.375                0.125     0
                 -0.5               -0.375                    0     0
                 -0.5               -0.125                -0.25     0
                 -0.5                -0.25               -0.125     0
                 -0.5               -0.125               -0.125     0
                -0.25                -0.25                  0.5     0
               -0.375               -0.375                  0.5     0
               -0.375                -0.25                  0.5     0
                    0                    0                  0.5     0
                -0.25                    0                  0.5     0
               -0.125                    0                  0.5     0
                -0.25               -0.125                  0.5     0
               -0.125               -0.125                  0.5     0
               -0.375               -0.125                  0.5     0
               -0.375                    0                  0.5     0
                 0.25                 0.25                  0.5     0
                 0.25                0.375                  0.5     0
                0.375                0.375                  0.5     0
                    0                 0.25                  0.5     0
                    0                0.375                  0.5     0
                0.125                0.375                  0.5     0
                0.125                0.125                  0.5     0
                0.125                 0.25                  0.5     0
                    0                0.125                  0.5     0
               -0.375                0.375                  0.5     0
                -0.25                 0.25                  0.5     0
               -0.375                0.125                  0.5     0
               -0.375                 0.25                  0.5     0
                -0.25                0.375                  0.5     0
               -0.125                0.375                  0.5     0
               -0.125                0.125                  0.5     0
               -0.125                 0.25                  0.5     0
                -0.25                0.125                  0.5     0
                -0.25               -0.375                  0.5     0
                    0                -0.25                  0.5     0
                    0               -0.375                  0.5     0
               -0.125               -0.375                  0.5     0
               -0.125                -0.25                  0.5     0
                    0               -0.125                  0.5     0
                0.375               -0.375                  0.5     0
                 0.25                -0.25                  0.5     0
                0.375               -0.125                  0.5     0
                0.375                -0.25                  0.5     0
                 0.25               -0.375                  0.5     0
                0.125               -0.375                  0.5     0
                0.375                 0.25                  0.5     0
                 0.25                    0                  0.5     0
                0.125                    0                  0.5     0
                 0.25                0.125                  0.5     0
                0.375                0.125                  0.5     0
                0.375                    0                  0.5     0
                0.125                -0.25                  0.5     0
                 0.25               -0.125                  0.5     0
                0.125               -0.125                  0.5     0
Triangles
 768
    1    4    6    0
    2    5    4    0
    3    6    5    0
    4    5    6    0
    7    9   11    0
    8   10    9    0
    2   11   10    0
    9   10   11    0
   12   13   15    0
    3   14   13    0
    8   15   14    0
   13   14   15    0
    2   10    5    0
    8   14   10    0
    3    5   14    0
   10   14    5    0
   16   19   21    0
   17   20   19    0
   18   21   20    0
   19   20   21    0
   22   24   26    0
   23   25   24    0
   17   26   25    0
   24   25   26    0
    7   27   29    0
   18   28   27    0
   23   29   28    0
   27   28   29    0
   17   25   20    0
   23   28   25    0
   18   20   28    0
   25   28   20    0
   30   33   35    0
   31   34   33    0
   32   35   34    0
   33   34   35    0
   12   37   39    0
   36   38   37    0
   31   39   38    0
   37   38   39    0
   22   40   42    0
   32   41   40    0
   36   42   41    0
   40   41   42    0
   31   38   34    0
   36   41   38    0
   32   34   41    0
   38   41   34    0
    7   29    9    0
   23   43   29    0
    8    9   43    0
   29   43    9    0
   22   42   24    0
   36   44   42    0
   23   24   44    0
   42   44   24    0
   12   15   37    0
    8   45   15    0
   36   37   45    0
   15   45   37    0
   23   44   43    0
   36   45   44    0
    8   43   45    0
   44   45   43    0
    1   47    4    0
   46   48   47    0
    2    4   48    0
   47   48    4    0
   49   51   53    0
   50   52   51    0
   46   53   52    0
   51   52   53    0
    7   11   55    0
    2   54   11    0
   50   55   54    0
   11   54   55    0
   46   52   48    0
   50   54   52    0
    2   48   54    0
   52   54   48    0
   56   59   61    0
   57   60   59    0
   58   61   60    0
   59   60   61    0
   62   64   66    0
   63   65   64    0
   57   66   65    0
   64   65   66    0
   49   67   69    0
   58   68   67    0
   63   69   68    0
   67   68   69    0
   57   65   60    0
   63   68   65    0
   58   60   68    0
   65   68   60    0
   16   21   72    0
   18   71   21    0
   70   72   71    0
   21   71   72    0
    7   74   27    0
   73   75   74    0
   18   27   75    0
   74   75   27    0
   62   76   78    0
   70   77   76    0
   73   78   77    0
   76   77   78    0
   18   75   71    0
   73   77   75    0
   70   71   77    0
   75   77   71    0
   49   69   51    0
   63   79   69    0
   50   51   79    0
   69   79   51    0
   62   78   64    0
   73   80   78    0
   63   64   80    0
   78   80   64    0
    7   55   74    0
   50   81   55    0
   73   74   81    0
   55   81   74    0
   63   80   79    0
   73   81   80    0
   50   79   81    0
   80   81   79    0
    1   84   86    0
   82   85   84    0
   83   86   85    0
   84   85   86    0
   87   89   91    0
   88   90   89    0
   82   91   90    0
   89   90   91    0
   92   93   95    0
   83   94   93    0
   88   95   94    0
   93   94   95    0
   82   90   85    0
   88   94   90    0
   83   85   94    0
   90   94   85    0
   96   99  101    0
   97  100   99    0
   98  101  100    0
   99  100  101    0
  102  104  106    0
  103  105  104    0
   97  106  105    0
  104  105  106    0
   87  107  109    0
   98  108  107    0
  103  109  108    0
  107  108  109    0
   97  105  100    0
  103  108  105    0
   98  100  108    0
  105  108  100    0
  110  113  115    0
  111  114  113    0
  112  115  114    0
  113  114  115    0
   92  117  119    0
  116  118  117    0
  111  119  118    0
  117  118  119    0
  102  120  122    0
  112  121  120    0
  116  122  121    0
  120  121  122    0
  111  118  114    0
  116  121  118    0
  112  114  121    0
  118  121  114    0
   87  109   89    0
  103  123  109    0
   88   89  123    0
  109  123   89    0
  102  122  104    0
  116  124  122    0
  103  104  124    0
  122  124  104    0
   92   95  117    0
   88  125   95    0
  116  117  125    0
   95  125  117    0
  103  124  123    0
  116  125  124    0
   88  123  125    0
  124  125  123    0
    1    6   84    0
    3  126    6    0
   82   84  126    0
    6  126   84    0
   12  128   13    0
  127  129  128    0
    3   13  129    0
  128  129   13    0
   87   91  131    0
   82  130   91    0
  127  131  130    0
   91  130  131    0
    3  129  126    0
  127  130  129    0
   82  126  130    0
  129  130  126    0
   30  133   33    0
  132  134  133    0
   31   33  134    0
  133  134   33    0
  135  137  139    0
  136  138  137    0
  132  139  138    0
  137  138  139    0
   12   39  141    0
   31  140   39    0
  136  141  140    0
   39  140  141    0
  132  138  134    0
  136  140  138    0
   31  134  140    0
  138  140  134    0
   96  101  144    0
   98  143  101    0
  142  144  143    0
  101  143  144    0
   87  146  107    0
  145  147  146    0
   98  107  147    0
  146  147  107    0
  135  148  150    0
  142  149  148    0
  145  150  149    0
  148  149  150    0
   98  147  143    0
  145  149  147    0
  142  143  149    0
  147  149  143    0
   12  141  128    0
  136  151  141    0
  127  128  151    0
  141  151  128    0
  135  150  137    0
  145  152  150    0
  136  137  152    0
  150  152  137    0
   87  131  146    0
  127  153  131    0
  145  146  153    0
  131  153  146    0
  136  152  151    0
  145  153  152    0
  127  151  153    0
  152  153  151    0
   30   35  133    0
   32  154   35    0
  132  133  154    0
   35  154  133    0
   22  156   40    0
  155  157  156    0
   32   40  157    0
  156  157   40    0
  135  139  159    0
  132  158  139    0
  155  159  158    0
  139  158  159    0
   32  157  154    0
  155  158  157    0
  132  154  158    0
  157  158  154    0
   16  161   19    0
  160  162  161    0
   17   19  162    0
  161  162   19    0
  163  165  167    0
  164  166  165    0
  160  167  166    0
  165  166  167    0
   22   26  169    0
   17  168   26    0
  164  169  168    0
   26  168  169    0
  160  166  162    0
  164  168  166    0
   17  162  168    0
  166  168  162    0
   96  144  172    0
  142  171  144    0
  170  172  171    0
  144  171  172    0
  135  174  148    0
  173  175  174    0
  142  148  175    0
  174  175  148    0
  163  176  178    0
  170  177  176    0
  173  178  177    0
  176  177  178    0
  142  175  171    0
  173  177  175    0
  170  171  177    0
  175  177  171    0
   22  169  156    0
  164  179  169    0
  155  156  179    0
  169  179  156    0
  163  178  165    0
  173  180  178    0
  164  165  180    0
  178  180  165    0
  135  159  174    0
  155  181  159    0
  173  174  181    0
  159  181  174    0
  164  180  179    0
  173  181  180    0
  155  179  181    0
  180  181  179    0
   16  183  161    0
  182  184  183    0
  160  161  184    0
  183  184  161    0
  185  187  189    0
  186  188  187    0
  182  189  188    0
  187  188  189    0
  163  167  191    0
  160  190  167    0
  186  191  190    0
  167  190  191    0
  182  188  184    0
  186  190  188    0
  160  184  190    0
  188  190  184    0
  192  195  197    0
  193  196  195    0
  194  197  196    0
  195  196  197    0
  198  200  202    0
  199  201  200    0
  193  202  201    0
  200  201  202    0
  185  203  205    0
  194  204  203    0
  199  205  204    0
  203  204  205    0
  193  201  196    0
  199  204  201    0
  194  196  204    0
  201  204  196    0
   96  172  208    0
  170  207  172    0
  206  208  207    0
  172  207  208    0
  163  210  176    0
  209  211  210    0
  170  176  211    0
  210  211  176    0
  198  212  214    0
  206  213  212    0
  209  214  213    0
  212  213  214    0
  170  211  207    0
  209  213  211    0
  206  207  213    0
  211  213  207    0
  185  205  187    0
  199  215  205    0
  186  187  215    0
  205  215  187    0
  198  214  200    0
  209  216  214    0
  199  200  216    0
  214  216  200    0
  163  191  210    0
  186  217  191    0
  209  210  217    0
  191  217  210    0
  199  216  215    0
  209  217  216    0
  186  215  217    0
  216  217  215    0
   16   72  183    0
   70  218   72    0
  182  183  218    0
   72  218  183    0
   62  220   76    0
  219  221  220    0
   70   76  221    0
  220  221   76    0
  185  189  223    0
  182  222  189    0
  219  223  222    0
  189  222  223    0
   70  221  218    0
  219  222  221    0
  182  218  222    0
  221  222  218    0
   56  225   59    0
  224  226  225    0
   57   59  226    0
  225  226   59    0
  227  229  231    0
  228  230  229    0
  224  231  230    0
  229  230  231    0
   62   66  233    0
   57  232   66    0
  228  233  232    0
   66  232  233    0
  224  230  226    0
  228  232  230    0
   57  226  232    0
  230  232  226    0
  192  197  236    0
  194  235  197    0
  234  236  235    0
  197  235  236    0
  185  238  203    0
  237  239  238    0
  194  203  239    0
  238  239  203    0
  227  240  242    0
  234  241  240    0
  237  242  241    0
  240  241  242    0
  194  239  235    0
  237  241  239    0
  234  235  241    0
  239  241  235    0
   62  233  220    0
  228  243  233    0
  219  220  243    0
  233  243  220    0
  227  242  229    0
  237  244  242    0
  228  229  244    0
  242  244  229    0
  185  223  238    0
  219  245  223    0
  237  238  245    0
  223  245  238    0
  228  244  243    0
  237  245  244    0
  219  243  245    0
  244  245  243    0
   56  247  225    0
  246  248  247    0
  224  225  248    0
  247  248  225    0
  249  251  253    0
  250  252  251    0
  246  253  252    0
  251  252  253    0
  227  231  255    0
  224  254  231    0
  250  255  254    0
  231  254  255    0
  246  252  248    0
  250  254  252    0
  224  248  254    0
  252  254  248    0
  256  259  261    0
  257  260  259    0
  258  261  260    0
  259  260  261    0
  262  264  266    0
  263  265  264    0
  257  266  265    0
  264  265  266    0
  249  267  269    0
  258  268  267    0
  263  269  268    0
  267  268  269    0
  257  265  260    0
  263  268  265    0
  258  260  268    0
  265  268  260    0
  192  236  272    0
  234  271  236    0
  270  272  271    0
  236  271  272    0
  227  274  240    0
  273  275  274    0
  234  240  275    0
  274  275  240    0
  262  276  278    0
  270  277  276    0
  273  278  277    0
  276  277  278    0
  234  275  271    0
  273  277  275    0
  270  271  277    0
  275  277  271    0
  249  269  251    0
  263  279  269    0
  250  251  279    0
  269  279  251    0
  262  278  264    0
  273  280  278    0
  263  264  280    0
  278  280  264    0
  227  255  274    0
  250  281  255    0
  273  274  281    0
  255  281  274    0
  263  280  279    0
  273  281  280    0
  250  279  281    0
  280  281  279    0
   56  283  247    0
  282  284  283    0
  246  247  284    0
  283  284  247    0
  285  287  289    0
  286  288  287    0
  282  289  288    0
  287  288  289    0
  249  253  291    0
  246  290  253    0
  286  291  290    0
  253  290  291    0
  282  288  284    0
  286  290  288    0
  246  284  290    0
  288  290  284    0
  110  294  296    0
  292  295  294    0
  293  296  295    0
  294  295  296    0
  297  299  301    0
  298  300  299    0
  292  301  300    0
  299  300  301    0
  285  302  304    0
  293  303  302    0
  298  304  303    0
  302  303  304    0
  292  300  295    0
  298  303  300    0
  293  295  303    0
  300  303  295    0
  256  261  307    0
  258  306  261    0
  305  307  306    0
  261  306  307    0
  249  309  267    0
  308  310  309    0
  258  267  310    0
  309  310  267    0
  297  311  313    0
  305  312  311    0
  308  313  312    0
  311  312  313    0
  258  310  306    0
  308  312  310    0
  305  306  312    0
  310  312  306    0
  285  304  287    0
  298  314  304    0
  286  287  314    0
  304  314  287    0
  297  313  299    0
  308  315  313    0
  298  299  315    0
  313  315  299    0
  249  291  309    0
  286  316  291    0
  308  309  316    0
  291  316  309    0
  298  315  314    0
  308  316  315    0
  286  314  316    0
  315  316  314    0
   56   61  283    0
   58  317   61    0
  282  283  317    0
   61  317  283    0
   49  319   67    0
  318  320  319    0
   58   67  320    0
  319  320   67    0
  285  289  322    0
  282  321  289    0
  318  322  321    0
  289  321  322    0
   58  320  317    0
  318  321  320    0
  282  317  321    0
  320  321  317    0
    1   86   47    0
   83  323   86    0
   46   47  323    0
   86  323   47    0
   92  325   93    0
  324  326  325    0
   83   93  326    0
  325  326   93    0
   49   53  328    0
   46  327   53    0
  324  328  327    0
   53  327  328    0
   83  326  323    0
  324  327  326    0
   46  323  327    0
  326  327  323    0
  110  296  113    0
  293  329  296    0
  111  113  329    0
  296  329  113    0
  285  331  302    0
  330  332  331    0
  293  302  332    0
  331  332  302    0
   92  119  334    0
  111  333  119    0
  330  334  333    0
  119  333  334    0
  293  332  329    0
  330  333  332    0
  111  329  333    0
  332  333  329    0
   49  328  319    0
  324  335  328    0
  318  319  335    0
  328  335  319    0
   92  334  325    0
  330  336  334    0
  324  325  336    0
  334  336  325    0
  285  322  331    0
  318  337  322    0
  330  331  337    0
  322  337  331    0
  324  336  335    0
  330  337  336    0
  318  335  337    0
  336  337  335    0
  110  339  294    0
  338  340  339    0
  292  294  340    0
  339  340  294    0
  341  343  345    0
  342  344  343    0
  338  345  344    0
  343  344  345    0
  297  301  347    0
  292  346  301    0
  342  347  346    0
  301  346  347    0
  338  344  340    0
  342  346  344    0
  292  340  346    0
  344  346  340    0
  192  272  350    0
  270  349  272    0
  348  350  349    0
  272  349  350    0
  262  352  276    0
  351  353  352    0
  270  276  353    0
  352  353  276    0
  341  354  356    0
  348  355  354    0
  351  356  355    0
  354  355  356    0
  270  353  349    0
  351  355  353    0
  348  349  355    0
  353  355  349    0
  256  307  259    0
  305  357  307    0
  257  259  357    0
  307  357  259    0
  297  359  311    0
  358  360  359    0
  305  311  360    0
  359  360  311    0
  262  266  362    0
  257  361  266    0
  358  362  361    0
  266  361  362    0
  305  360  357    0
  358  361  360    0
  257  357  361    0
  360  361  357    0
  341  356  343    0
  351  363  356    0
  342  343  363    0
  356  363  343    0
  262  362  352    0
  358  364  362    0
  351  352  364    0
  362  364  352    0
  297  347  359    0
  342  365  347    0
  358  359  365    0
  347  365  359    0
  351  364  363    0
  358  365  364    0
  342  363  365    0
  364  365  363    0
  110  115  339    0
  112  366  115    0
  338  339  366    0
  115  366  339    0
  102  368  120    0
  367  369  368    0
  112  120  369    0
  368  369  120    0
  341  345  371    0
  338  370  345    0
  367  371  370    0
  345  370  371    0
  112  369  366    0
  367  370  369    0
  338  366  370    0
  369  370  366    0
   96  208   99    0
  206  372  208    0
   97   99  372    0
  208  372   99    0
  198  374  212    0
  373  375  374    0
  206  212  375    0
  374  375  212    0
  102  106  377    0
   97  376  106    0
  373  377  376    0
  106  376  377    0
  206  375  372    0
  373  376  375    0
   97  372  376    0
  375  376  372    0
  192  350  195    0
  348  378  350    0
  193  195  378    0
  350  378  195    0
  341  380  354    0
  379  381  380    0
  348  354  381    0
  380  381  354    0
  198  202  383    0
  193  382  202    0
  379  383  382    0
  202  382  383    0
  348  381  378    0
  379  382  381    0
  193  378  382    0
  381  382  378    0
  102  377  368    0
  373  384  377    0
  367  368  384    0
  377  384  368    0
  198  383  374    0
  379  385  383    0
  373  374  385    0
  383  385  374    0
  341  371  380    0
  367  386  371    0
  379  380  386    0
  371  386  380    0
  373  385  384    0
  379  386  385    0
  367  384  386    0
  385  386  384    0
End