MeshVersion
 1
Dimension
 3
Vertices
 162
     0.85065080835204     0.52573111211913                    0     0
                  0.5     0.80901699437495     0.30901699437495     0
     0.80901699437495     0.30901699437495                  0.5     0
    0.702046444776163    0.693780477560449    0.160622035640025     0
    0.688190960235586    0.587785252292474     0.42532540417602     0
    0.862668480416187    0.433888564552694    0.259891913007754     0
                    0     0.85065080835204     0.52573111211913     0
     0.30901699437495                  0.5     0.80901699437495     0
    0.259891913007754    0.862668480416187    0.433888564552694     0
    0.160622035640025    0.702046444776163    0.693780477560449     0
     0.42532540417602    0.688190960235586    0.587785252292474     0
     0.52573111211913                    0     0.85065080835204     0
    0.587785252292474     0.42532540417602    0.688190960235586     0
    0.433888564552694    0.259891913007754    0.862668480416187     0
    0.693780477560449    0.160622035640025    0.702046444776163     0
     0.80901699437495     0.30901699437495                 -0.5     0
                  0.5     0.80901699437495    -0.30901699437495     0
    0.862668480416187    0.433888564552694   -0.259891913007754     0
    0.688190960235586    0.587785252292474    -0.42532540417602     0
    0.702046444776163    0.693780477560449   -0.160622035640025     0
     0.52573111211913                    0    -0.85065080835204     0
     0.30901699437495                  0.5    -0.80901699437495     0
    0.693780477560449    0.160622035640025   -0.702046444776163     0
    0.433888564552694    0.259891913007754   -0.862668480416187     0
    0.587785252292474     0.42532540417602   -0.688190960235586     0
                    0     0.85065080835204    -0.52573111211913     0
     0.42532540417602    0.688190960235586   -0.587785252292474     0
    0.160622035640025    0.702046444776163   -0.693780477560449     0
    0.259891913007754    0.862668480416187   -0.433888564552694     0
     0.85065080835204    -0.52573111211913                    0     0
     0.80901699437495    -0.30901699437495                  0.5     0
                  0.5    -0.80901699437495     0.30901699437495     0
    0.862668480416187   -0.433888564552694    0.259891913007754     0
    0.688190960235586   -0.587785252292474     0.42532540417602     0
    0.702046444776163   -0.693780477560449    0.160622035640025     0
     0.30901699437495                 -0.5     0.80901699437495     0
    0.693780477560449   -0.160622035640025    0.702046444776163     0
    0.433888564552694   -0.259891913007754    0.862668480416187     0
    0.587785252292474    -0.42532540417602    0.688190960235586     0
                    0    -0.85065080835204     0.52573111211913     0
     0.42532540417602   -0.688190960235586    0.587785252292474     0
    0.160622035640025   -0.702046444776163    0.693780477560449     0
    0.259891913007754   -0.862668480416187    0.433888564552694     0
                  0.5    -0.80901699437495    -0.30901699437495     0
     0.80901699437495    -0.30901699437495                 -0.5     0
    0.702046444776163   -0.693780477560449   -0.160622035640025     0
    0.688190960235586   -0.587785252292474    -0.42532540417602     0
    0.862668480416187   -0.433888564552694   -0.259891913007754     0
                    0    -0.85065080835204    -0.52573111211913     0
     0.30901699437495                 -0.5    -0.80901699437495     0
    0.259891913007754   -0.862668480416187   -0.433888564552694     0
    0.160622035640025   -0.702046444776163   -0.693780477560449     0
     0.42532540417602   -0.688190960235586   -0.587785252292474     0
    0.587785252292474    -0.42532540417602   -0.688190960235586     0
    0.433888564552694   -0.259891913007754   -0.862668480416187     0
    0.693780477560449   -0.160622035640025   -0.702046444776163     0
    -0.85065080835204     0.52573111211913                    0     0
    -0.80901699437495     0.30901699437495                  0.5     0
                 -0.5     0.80901699437495     0.30901699437495     0
   -0.862668480416187    0.433888564552694    0.259891913007754     0
   -0.688190960235586    0.587785252292474     0.42532540417602     0
   -0.702046444776163    0.693780477560449    0.160622035640025     0
    -0.52573111211913                    0     0.85065080835204     0
    -0.30901699437495                  0.5     0.80901699437495     0
   -0.693780477560449    0.160622035640025    0.702046444776163     0
   -0.433888564552694    0.259891913007754    0.862668480416187     0
   -0.587785252292474     0.42532540417602    0.688190960235586     0
    -0.42532540417602    0.688190960235586    0.587785252292474     0
   -0.160622035640025    0.702046444776163    0.693780477560449     0
   -0.259891913007754    0.862668480416187    0.433888564552694     0
                 -0.5     0.80901699437495    -0.30901699437495     0
    -0.80901699437495     0.30901699437495                 -0.5     0
   -0.702046444776163    0.693780477560449   -0.160622035640025     0
   -0.688190960235586    0.587785252292474    -0.42532540417602     0
   -0.862668480416187    0.433888564552694   -0.259891913007754     0
    -0.30901699437495                  0.5    -0.80901699437495     0
   -0.259891913007754    0.862668480416187   -0.433888564552694     0
   -0.160622035640025    0.702046444776163   -0.693780477560449     0
    -0.42532540417602    0.688190960235586   -0.587785252292474     0
    -0.52573111211913                    0    -0.85065080835204     0
   -0.587785252292474     0.42532540417602   -0.688190960235586     0
   -0.433888564552694    0.259891913007754   -0.862668480416187     0
   -0.693780477560449    0.160622035640025   -0.702046444776163     0
    -0.85065080835204    -0.52573111211913                    0     0
                 -0.5    -0.80901699437495     0.30901699437495     0
    -0.80901699437495    -0.30901699437495                  0.5     0
   -0.702046444776163   -0.693780477560449    0.160622035640025     0
   -0.688190960235586   -0.587785252292474     0.42532540417602     0
   -0.862668480416187   -0.433888564552694    0.259891913007754     0
    -0.30901699437495                 -0.5     0.80901699437495     0
   -0.259891913007754   -0.862668480416187    0.433888564552694     0
   -0.160622035640025   -0.702046444776163    0.693780477560449     0
    -0.42532540417602   -0.688190960235586    0.587785252292474     0
   -0.587785252292474    -0.42532540417602    0.688190960235586     0
   -0.433888564552694   -0.259891913007754    0.862668480416187     0
   -0.693780477560449   -0.160622035640025    0.702046444776163     0
    -0.80901699437495    -0.30901699437495                 -0.5     0
                 -0.5    -0.80901699437495    -0.30901699437495     0
   -0.862668480416187   -0.433888564552694   -0.259891913007754     0
   -0.688190960235586   -0.587785252292474    -0.42532540417602     0
   -0.702046444776163   -0.693780477560449   -0.160622035640025     0
    -0.30901699437495                 -0.5    -0.80901699437495     0
   -0.693780477560449   -0.160622035640025   -0.702046444776163     0
   -0.433888564552694   -0.259891913007754   -0.862668480416187     0
   -0.587785252292474    -0.42532540417602   -0.688190960235586     0
    -0.42532540417602   -0.688190960235586   -0.587785252292474     0
   -0.160622035640025   -0.702046444776163   -0.693780477560449     0
   -0.259891913007754   -0.862668480416187   -0.433888564552694     0
    0.525731112119132    0.850650808352041                    0     0
                    0                    1                    0     0
                    0    0.961938357783918    -0.27326652891267     0
    0.262865556059566    0.951056516295153   -0.162459848116454     0
    0.262865556059566    0.951056516295153    0.162459848116454     0
                    0    0.961938357783918     0.27326652891267     0
   -0.525731112119132    0.850650808352041                    0     0
   -0.262865556059566    0.951056516295153    0.162459848116454     0
   -0.262865556059566    0.951056516295153   -0.162459848116454     0
    0.525731112119132   -0.850650808352041                    0     0
                    0                   -1                    0     0
                    0   -0.961938357783918     0.27326652891267     0
    0.262865556059566   -0.951056516295153    0.162459848116454     0
    0.262865556059566   -0.951056516295153   -0.162459848116454     0
                    0   -0.961938357783918    -0.27326652891267     0
   -0.525731112119132   -0.850650808352041                    0     0
   -0.262865556059566   -0.951056516295153   -0.162459848116454     0
   -0.262865556059566   -0.951056516295153    0.162459848116454     0
    0.850650808352041                    0    0.525731112119132     0
                    1                    0                    0     0
    0.961938357783918    -0.27326652891267                    0     0
    0.951056516295153   -0.162459848116454    0.262865556059566     0
    0.951056516295153    0.162459848116454    0.262865556059566     0
    0.961938357783918     0.27326652891267                    0     0
    0.850650808352041                    0   -0.525731112119132     0
    0.951056516295153    0.162459848116454   -0.262865556059566     0
    0.951056516295153   -0.162459848116454   -0.262865556059566     0
   -0.850650808352041                    0    0.525731112119132     0
                   -1                    0                    0     0
   -0.961938357783918     0.27326652891267                    0     0
   -0.951056516295153    0.162459848116454    0.262865556059566     0
   -0.951056516295153   -0.162459848116454    0.262865556059566     0
   -0.961938357783918    -0.27326652891267                    0     0
   -0.850650808352041                    0   -0.525731112119132     0
   -0.951056516295153   -0.162459848116454   -0.262865556059566     0
   -0.951056516295153    0.162459848116454   -0.262865556059566     0
                    0    0.525731112119132    0.850650808352041     0
                    0                    0                    1     0
    -0.27326652891267                    0    0.961938357783918     0
   -0.162459848116454    0.262865556059566    0.951056516295153     0
    0.162459848116454    0.262865556059566    0.951056516295153     0
     0.27326652891267                    0    0.961938357783918     0
                    0   -0.525731112119132    0.850650808352041     0
    0.162459848116454   -0.262865556059566    0.951056516295153     0
   -0.162459848116454   -0.262865556059566    0.951056516295153     0
                    0    0.525731112119132   -0.850650808352041     0
                    0                    0                   -1     0
     0.27326652891267                    0   -0.961938357783918     0
    0.162459848116454    0.262865556059566   -0.951056516295153     0
   -0.162459848116454    0.262865556059566   -0.951056516295153     0
    -0.27326652891267                    0   -0.961938357783918     0
                    0   -0.525731112119132   -0.850650808352041     0
   -0.162459848116454   -0.262865556059566   -0.951056516295153     0
    0.162459848116454   -0.262865556059566   -0.951056516295153     0
Triangles
 320
    1    4    6    0
    2    5    4    0
    3    6    5    0
    4    5    6    0
    2    9   11    0
    7   10    9    0
    8   11   10    0
    9   10   11    0
    3   13   15    0
    8   14   13    0
   12   15   14    0
   13   14   15    0
    2   11    5    0
    8   13   11    0
    3    5   13    0
   11   13    5    0
    1   18   20    0
   16   19   18    0
   17   20   19    0
   18   19   20    0
   16   23   25    0
   21   24   23    0
   22   25   24    0
   23   24   25    0
   17   27   29    0
   22   28   27    0
   26   29   28    0
   27   28   29    0
   16   25   19    0
   22   27   25    0
   17   19   27    0
   25   27   19    0
   30   33   35    0
   31   34   33    0
   32   35   34    0
   33   34   35    0
   31   37   39    0
   12   38   37    0
   36   39   38    0
   37   38   39    0
   32   41   43    0
   36   42   41    0
   40   43   42    0
   41   42   43    0
   31   39   34    0
   36   41   39    0
   32   34   41    0
   39   41   34    0
   30   46   48    0
   44   47   46    0
   45   48   47    0
   46   47   48    0
   44   51   53    0
   49   52   51    0
   50   53   52    0
   51   52   53    0
   45   54   56    0
   50   55   54    0
   21   56   55    0
   54   55   56    0
   44   53   47    0
   50   54   53    0
   45   47   54    0
   53   54   47    0
   57   60   62    0
   58   61   60    0
   59   62   61    0
   60   61   62    0
   58   65   67    0
   63   66   65    0
   64   67   66    0
   65   66   67    0
   59   68   70    0
   64   69   68    0
    7   70   69    0
   68   69   70    0
   58   67   61    0
   64   68   67    0
   59   61   68    0
   67   68   61    0
   57   73   75    0
   71   74   73    0
   72   75   74    0
   73   74   75    0
   71   77   79    0
   26   78   77    0
   76   79   78    0
   77   78   79    0
   72   81   83    0
   76   82   81    0
   80   83   82    0
   81   82   83    0
   71   79   74    0
   76   81   79    0
   72   74   81    0
   79   81   74    0
   84   87   89    0
   85   88   87    0
   86   89   88    0
   87   88   89    0
   85   91   93    0
   40   92   91    0
   90   93   92    0
   91   92   93    0
   86   94   96    0
   90   95   94    0
   63   96   95    0
   94   95   96    0
   85   93   88    0
   90   94   93    0
   86   88   94    0
   93   94   88    0
   84   99  101    0
   97  100   99    0
   98  101  100    0
   99  100  101    0
   97  103  105    0
   80  104  103    0
  102  105  104    0
  103  104  105    0
   98  106  108    0
  102  107  106    0
   49  108  107    0
  106  107  108    0
   97  105  100    0
  102  106  105    0
   98  100  106    0
  105  106  100    0
    1   20    4    0
   17  109   20    0
    2    4  109    0
   20  109    4    0
   17   29  112    0
   26  111   29    0
  110  112  111    0
   29  111  112    0
    2  113    9    0
  110  114  113    0
    7    9  114    0
  113  114    9    0
   17  112  109    0
  110  113  112    0
    2  109  113    0
  112  113  109    0
   57   62   73    0
   59  115   62    0
   71   73  115    0
   62  115   73    0
   59   70  116    0
    7  114   70    0
  110  116  114    0
   70  114  116    0
   71  117   77    0
  110  111  117    0
   26   77  111    0
  117  111   77    0
   59  116  115    0
  110  117  116    0
   71  115  117    0
  116  117  115    0
   30   35   46    0
   32  118   35    0
   44   46  118    0
   35  118   46    0
   32   43  121    0
   40  120   43    0
  119  121  120    0
   43  120  121    0
   44  122   51    0
  119  123  122    0
   49   51  123    0
  122  123   51    0
   32  121  118    0
  119  122  121    0
   44  118  122    0
  121  122  118    0
   84  101   87    0
   98  124  101    0
   85   87  124    0
  101  124   87    0
   98  108  125    0
   49  123  108    0
  119  125  123    0
  108  123  125    0
   85  126   91    0
  119  120  126    0
   40   91  120    0
  126  120   91    0
   98  125  124    0
  119  126  125    0
   85  124  126    0
  125  126  124    0
   12   37   15    0
   31  127   37    0
    3   15  127    0
   37  127   15    0
   31   33  130    0
   30  129   33    0
  128  130  129    0
   33  129  130    0
    3  131    6    0
  128  132  131    0
    1    6  132    0
  131  132    6    0
   31  130  127    0
  128  131  130    0
    3  127  131    0
  130  131  127    0
   21   23   56    0
   16  133   23    0
   45   56  133    0
   23  133   56    0
   16   18  134    0
    1  132   18    0
  128  134  132    0
   18  132  134    0
   45  135   48    0
  128  129  135    0
   30   48  129    0
  135  129   48    0
   16  134  133    0
  128  135  134    0
   45  133  135    0
  134  135  133    0
   63   65   96    0
   58  136   65    0
   86   96  136    0
   65  136   96    0
   58   60  139    0
   57  138   60    0
  137  139  138    0
   60  138  139    0
   86  140   89    0
  137  141  140    0
   84   89  141    0
  140  141   89    0
   58  139  136    0
  137  140  139    0
   86  136  140    0
  139  140  136    0
   80  103   83    0
   97  142  103    0
   72   83  142    0
  103  142   83    0
   97   99  143    0
   84  141   99    0
  137  143  141    0
   99  141  143    0
   72  144   75    0
  137  138  144    0
   57   75  138    0
  144  138   75    0
   97  143  142    0
  137  144  143    0
   72  142  144    0
  143  144  142    0
    7   69   10    0
   64  145   69    0
    8   10  145    0
   69  145   10    0
   64   66  148    0
   63  147   66    0
  146  148  147    0
   66  147  148    0
    8  149   14    0
  146  150  149    0
   12   14  150    0
  149  150   14    0
   64  148  145    0
  146  149  148    0
    8  145  149    0
  148  149  145    0
   40   42   92    0
   36  151   42    0
   90   92  151    0
   42  151   92    0
   36   38  152    0
   12  150   38    0
  146  152  150    0
   38  150  152    0
   90  153   95    0
  146  147  153    0
   63   95  147    0
  153  147   95    0
   36  152  151    0
  146  153  152    0
   90  151  153    0
  152  153  151    0
   26   28   78    0
   22  154   28    0
   76   78  154    0
   28  154   78    0
   22   24  157    0
   21  156   24    0
  155  157  156    0
   24  156  157    0
   76  158   82    0
  155  159  158    0
   80   82  159    0
  158  159   82    0
   22  157  154    0
  155  158  157    0
   76  154  158    0
  157  158  154    0
   49  107   52    0
  102  160  107    0
   50   52  160    0
  107  160   52    0
  102  104  161    0
   80  159  104    0
  155  161  159    0
  104  159  161    0
   50  162   55    0
  155  156  162    0
   21   55  156    0
  162  156   55    0
  102  161  160    0
  155  162  161    0
   50  160  162    0
  161  162  160    0
End