MeshVersion
 1
Dimension
 3
Vertices
 642
     0.85065080835204     0.52573111211913                    0     0
    0.702046444776163    0.693780477560449    0.160622035640025     0
    0.862668480416187    0.433888564552694    0.259891913007754     0
    0.783843042419972    0.615642020873679   0.0810862934433043     0
    0.792649229259282    0.571251659135708     0.21302286564913     0
    0.864929335863276    0.484441642060666    0.131200378813013     0
                  0.5     0.80901699437495     0.30901699437495     0
    0.688190960235586    0.587785252292474     0.42532540417602     0
    0.601500955007544    0.707106781186548    0.371748034460185     0
    0.702309846743373    0.647411893882224    0.296004592577769     0
    0.606825149271813    0.758652300163257    0.237086325350578     0
     0.80901699437495     0.30901699437495                  0.5     0
     0.84391147462239     0.37503856747821    0.383613732685047     0
    0.783451698363313    0.516121620051061    0.346153014788992     0
    0.757935420047776    0.453990499739548    0.468429850866954     0
    0.259891913007754    0.862668480416187    0.433888564552694     0
     0.42532540417602    0.688190960235586    0.587785252292474     0
    0.383613732685047     0.84391147462239     0.37503856747821     0
    0.346153014788992    0.783451698363313    0.516121620051061     0
    0.468429850866954    0.757935420047776    0.453990499739548     0
                    0     0.85065080835204     0.52573111211913     0
    0.160622035640025    0.702046444776163    0.693780477560449     0
   0.0810862934433043    0.783843042419972    0.615642020873679     0
     0.21302286564913    0.792649229259282    0.571251659135708     0
    0.131200378813013    0.864929335863276    0.484441642060666     0
     0.30901699437495                  0.5     0.80901699437495     0
    0.371748034460185    0.601500955007544    0.707106781186548     0
    0.296004592577769    0.702309846743373    0.647411893882224     0
    0.237086325350578    0.606825149271813    0.758652300163257     0
    0.587785252292474     0.42532540417602    0.688190960235586     0
    0.693780477560449    0.160622035640025    0.702046444776163     0
    0.707106781186548    0.371748034460185    0.601500955007544     0
    0.647411893882224    0.296004592577769    0.702309846743373     0
    0.758652300163257    0.237086325350578    0.606825149271813     0
    0.433888564552694    0.259891913007754    0.862668480416187     0
     0.37503856747821    0.383613732685047     0.84391147462239     0
    0.516121620051061    0.346153014788992    0.783451698363313     0
    0.453990499739548    0.468429850866954    0.757935420047776     0
     0.52573111211913                    0     0.85065080835204     0
    0.615642020873679   0.0810862934433043    0.783843042419972     0
    0.571251659135708     0.21302286564913    0.792649229259282     0
    0.484441642060666    0.131200378813013    0.864929335863276     0
    0.564254211765771    0.646577791797732    0.513375441230448     0
    0.513375441230448    0.564254211765771    0.646577791797732     0
    0.646577791797732    0.513375441230448    0.564254211765771     0
    0.862668480416187    0.433888564552694   -0.259891913007754     0
    0.702046444776163    0.693780477560449   -0.160622035640025     0
    0.864929335863276    0.484441642060666   -0.131200378813013     0
    0.792649229259282    0.571251659135708    -0.21302286564913     0
    0.783843042419972    0.615642020873679  -0.0810862934433043     0
     0.80901699437495     0.30901699437495                 -0.5     0
    0.688190960235586    0.587785252292474    -0.42532540417602     0
    0.757935420047776    0.453990499739548   -0.468429850866954     0
    0.783451698363313    0.516121620051061   -0.346153014788992     0
     0.84391147462239     0.37503856747821   -0.383613732685047     0
                  0.5     0.80901699437495    -0.30901699437495     0
    0.606825149271813    0.758652300163257   -0.237086325350578     0
    0.702309846743373    0.647411893882224   -0.296004592577769     0
    0.601500955007544    0.707106781186548   -0.371748034460185     0
    0.693780477560449    0.160622035640025   -0.702046444776163     0
    0.587785252292474     0.42532540417602   -0.688190960235586     0
    0.758652300163257    0.237086325350578   -0.606825149271813     0
    0.647411893882224    0.296004592577769   -0.702309846743373     0
    0.707106781186548    0.371748034460185   -0.601500955007544     0
     0.52573111211913                    0    -0.85065080835204     0
    0.433888564552694    0.259891913007754   -0.862668480416187     0
    0.484441642060666    0.131200378813013   -0.864929335863276     0
    0.571251659135708     0.21302286564913   -0.792649229259282     0
    0.615642020873679   0.0810862934433043   -0.783843042419972     0
     0.30901699437495                  0.5    -0.80901699437495     0
    0.453990499739548    0.468429850866954   -0.757935420047776     0
    0.516121620051061    0.346153014788992   -0.783451698363313     0
     0.37503856747821    0.383613732685047    -0.84391147462239     0
     0.42532540417602    0.688190960235586   -0.587785252292474     0
    0.259891913007754    0.862668480416187   -0.433888564552694     0
    0.468429850866954    0.757935420047776   -0.453990499739548     0
    0.346153014788992    0.783451698363313   -0.516121620051061     0
    0.383613732685047     0.84391147462239    -0.37503856747821     0
    0.160622035640025    0.702046444776163   -0.693780477560449     0
    0.237086325350578    0.606825149271813   -0.758652300163257     0
    0.296004592577769    0.702309846743373   -0.647411893882224     0
    0.371748034460185    0.601500955007544   -0.707106781186548     0
                    0     0.85065080835204    -0.52573111211913     0
    0.131200378813013    0.864929335863276   -0.484441642060666     0
     0.21302286564913    0.792649229259282   -0.571251659135708     0
   0.0810862934433043    0.783843042419972   -0.615642020873679     0
    0.646577791797732    0.513375441230448   -0.564254211765771     0
    0.513375441230448    0.564254211765771   -0.646577791797732     0
    0.564254211765771    0.646577791797732   -0.513375441230448     0
     0.85065080835204    -0.52573111211913                    0     0
    0.862668480416187   -0.433888564552694    0.259891913007754     0
    0.702046444776163   -0.693780477560449    0.160622035640025     0
    0.864929335863276   -0.484441642060666    0.131200378813013     0
    0.792649229259282   -0.571251659135708     0.21302286564913     0
    0.783843042419972   -0.615642020873679   0.0810862934433043     0
     0.80901699437495    -0.30901699437495                  0.5     0
    0.688190960235586   -0.587785252292474     0.42532540417602     0
    0.757935420047776   -0.453990499739548    0.468429850866954     0
    0.783451698363313   -0.516121620051061    0.346153014788992     0
     0.84391147462239    -0.37503856747821    0.383613732685047     0
                  0.5    -0.80901699437495     0.30901699437495     0
    0.606825149271813   -0.758652300163257    0.237086325350578     0
    0.702309846743373   -0.647411893882224    0.296004592577769     0
    0.601500955007544   -0.707106781186548    0.371748034460185     0
    0.693780477560449   -0.160622035640025    0.702046444776163     0
    0.587785252292474    -0.42532540417602    0.688190960235586     0
    0.758652300163257   -0.237086325350578    0.606825149271813     0
    0.647411893882224   -0.296004592577769    0.702309846743373     0
    0.707106781186548   -0.371748034460185    0.601500955007544     0
    0.433888564552694   -0.259891913007754    0.862668480416187     0
    0.484441642060666   -0.131200378813013    0.864929335863276     0
    0.571251659135708    -0.21302286564913    0.792649229259282     0
    0.615642020873679  -0.0810862934433043    0.783843042419972     0
     0.30901699437495                 -0.5     0.80901699437495     0
    0.453990499739548   -0.468429850866954    0.757935420047776     0
    0.516121620051061   -0.346153014788992    0.783451698363313     0
     0.37503856747821   -0.383613732685047     0.84391147462239     0
     0.42532540417602   -0.688190960235586    0.587785252292474     0
    0.259891913007754   -0.862668480416187    0.433888564552694     0
    0.468429850866954   -0.757935420047776    0.453990499739548     0
    0.346153014788992   -0.783451698363313    0.516121620051061     0
    0.383613732685047    -0.84391147462239     0.37503856747821     0
    0.160622035640025   -0.702046444776163    0.693780477560449     0
    0.237086325350578   -0.606825149271813    0.758652300163257     0
    0.296004592577769   -0.702309846743373    0.647411893882224     0
    0.371748034460185   -0.601500955007544    0.707106781186548     0
                    0    -0.85065080835204     0.52573111211913     0
    0.131200378813013   -0.864929335863276    0.484441642060666     0
     0.21302286564913   -0.792649229259282    0.571251659135708     0
   0.0810862934433043   -0.783843042419972    0.615642020873679     0
    0.646577791797732   -0.513375441230448    0.564254211765771     0
    0.513375441230448   -0.564254211765771    0.646577791797732     0
    0.564254211765771   -0.646577791797732    0.513375441230448     0
    0.702046444776163   -0.693780477560449   -0.160622035640025     0
    0.862668480416187   -0.433888564552694   -0.259891913007754     0
    0.783843042419972   -0.615642020873679  -0.0810862934433043     0
    0.792649229259282   -0.571251659135708    -0.21302286564913     0
    0.864929335863276   -0.484441642060666   -0.131200378813013     0
                  0.5    -0.80901699437495    -0.30901699437495     0
    0.688190960235586   -0.587785252292474    -0.42532540417602     0
    0.601500955007544   -0.707106781186548   -0.371748034460185     0
    0.702309846743373   -0.647411893882224   -0.296004592577769     0
    0.606825149271813   -0.758652300163257   -0.237086325350578     0
     0.80901699437495    -0.30901699437495                 -0.5     0
     0.84391147462239    -0.37503856747821   -0.383613732685047     0
    0.783451698363313   -0.516121620051061   -0.346153014788992     0
    0.757935420047776   -0.453990499739548   -0.468429850866954     0
    0.259891913007754   -0.862668480416187   -0.433888564552694     0
     0.42532540417602   -0.688190960235586   -0.587785252292474     0
    0.383613732685047    -0.84391147462239    -0.37503856747821     0
    0.346153014788992   -0.783451698363313   -0.516121620051061     0
    0.468429850866954   -0.757935420047776   -0.453990499739548     0
                    0    -0.85065080835204    -0.52573111211913     0
    0.160622035640025   -0.702046444776163   -0.693780477560449     0
   0.0810862934433043   -0.783843042419972   -0.615642020873679     0
     0.21302286564913   -0.792649229259282   -0.571251659135708     0
    0.131200378813013   -0.864929335863276   -0.484441642060666     0
     0.30901699437495                 -0.5    -0.80901699437495     0
    0.371748034460185   -0.601500955007544   -0.707106781186548     0
    0.296004592577769   -0.702309846743373   -0.647411893882224     0
    0.237086325350578   -0.606825149271813   -0.758652300163257     0
    0.587785252292474    -0.42532540417602   -0.688190960235586     0
    0.693780477560449   -0.160622035640025   -0.702046444776163     0
    0.707106781186548   -0.371748034460185   -0.601500955007544     0
    0.647411893882224   -0.296004592577769   -0.702309846743373     0
    0.758652300163257   -0.237086325350578   -0.606825149271813     0
    0.433888564552694   -0.259891913007754   -0.862668480416187     0
     0.37503856747821   -0.383613732685047    -0.84391147462239     0
    0.516121620051061   -0.346153014788992   -0.783451698363313     0
    0.453990499739548   -0.468429850866954   -0.757935420047776     0
    0.615642020873679  -0.0810862934433043   -0.783843042419972     0
    0.571251659135708    -0.21302286564913   -0.792649229259282     0
    0.484441642060666   -0.131200378813013   -0.864929335863276     0
    0.564254211765771   -0.646577791797732   -0.513375441230448     0
    0.513375441230448   -0.564254211765771   -0.646577791797732     0
    0.646577791797732   -0.513375441230448   -0.564254211765771     0
    -0.85065080835204     0.52573111211913                    0     0
   -0.862668480416187    0.433888564552694    0.259891913007754     0
   -0.702046444776163    0.693780477560449    0.160622035640025     0
   -0.864929335863276    0.484441642060666    0.131200378813013     0
   -0.792649229259282    0.571251659135708     0.21302286564913     0
   -0.783843042419972    0.615642020873679   0.0810862934433043     0
    -0.80901699437495     0.30901699437495                  0.5     0
   -0.688190960235586    0.587785252292474     0.42532540417602     0
   -0.757935420047776    0.453990499739548    0.468429850866954     0
   -0.783451698363313    0.516121620051061    0.346153014788992     0
    -0.84391147462239     0.37503856747821    0.383613732685047     0
                 -0.5     0.80901699437495     0.30901699437495     0
   -0.606825149271813    0.758652300163257    0.237086325350578     0
   -0.702309846743373    0.647411893882224    0.296004592577769     0
   -0.601500955007544    0.707106781186548    0.371748034460185     0
   -0.693780477560449    0.160622035640025    0.702046444776163     0
   -0.587785252292474     0.42532540417602    0.688190960235586     0
   -0.758652300163257    0.237086325350578    0.606825149271813     0
   -0.647411893882224    0.296004592577769    0.702309846743373     0
   -0.707106781186548    0.371748034460185    0.601500955007544     0
    -0.52573111211913                    0     0.85065080835204     0
   -0.433888564552694    0.259891913007754    0.862668480416187     0
   -0.484441642060666    0.131200378813013    0.864929335863276     0
   -0.571251659135708     0.21302286564913    0.792649229259282     0
   -0.615642020873679   0.0810862934433043    0.783843042419972     0
    -0.30901699437495                  0.5     0.80901699437495     0
   -0.453990499739548    0.468429850866954    0.757935420047776     0
   -0.516121620051061    0.346153014788992    0.783451698363313     0
    -0.37503856747821    0.383613732685047     0.84391147462239     0
    -0.42532540417602    0.688190960235586    0.587785252292474     0
   -0.259891913007754    0.862668480416187    0.433888564552694     0
   -0.468429850866954    0.757935420047776    0.453990499739548     0
   -0.346153014788992    0.783451698363313    0.516121620051061     0
   -0.383613732685047     0.84391147462239     0.37503856747821     0
   -0.160622035640025    0.702046444776163    0.693780477560449     0
   -0.237086325350578    0.606825149271813    0.758652300163257     0
   -0.296004592577769    0.702309846743373    0.647411893882224     0
   -0.371748034460185    0.601500955007544    0.707106781186548     0
   -0.131200378813013    0.864929335863276    0.484441642060666     0
    -0.21302286564913    0.792649229259282    0.571251659135708     0
  -0.0810862934433043    0.783843042419972    0.615642020873679     0
   -0.646577791797732    0.513375441230448    0.564254211765771     0
   -0.513375441230448    0.564254211765771    0.646577791797732     0
   -0.564254211765771    0.646577791797732    0.513375441230448     0
   -0.702046444776163    0.693780477560449   -0.160622035640025     0
   -0.862668480416187    0.433888564552694   -0.259891913007754     0
   -0.783843042419972    0.615642020873679  -0.0810862934433043     0
   -0.792649229259282    0.571251659135708    -0.21302286564913     0
   -0.864929335863276    0.484441642060666   -0.131200378813013     0
                 -0.5     0.80901699437495    -0.30901699437495     0
   -0.688190960235586    0.587785252292474    -0.42532540417602     0
   -0.601500955007544    0.707106781186548   -0.371748034460185     0
   -0.702309846743373    0.647411893882224   -0.296004592577769     0
   -0.606825149271813    0.758652300163257   -0.237086325350578     0
    -0.80901699437495     0.30901699437495                 -0.5     0
    -0.84391147462239     0.37503856747821   -0.383613732685047     0
   -0.783451698363313    0.516121620051061   -0.346153014788992     0
   -0.757935420047776    0.453990499739548   -0.468429850866954     0
   -0.259891913007754    0.862668480416187   -0.433888564552694     0
    -0.42532540417602    0.688190960235586   -0.587785252292474     0
   -0.383613732685047     0.84391147462239    -0.37503856747821     0
   -0.346153014788992    0.783451698363313   -0.516121620051061     0
   -0.468429850866954    0.757935420047776   -0.453990499739548     0
   -0.160622035640025    0.702046444776163   -0.693780477560449     0
  -0.0810862934433043    0.783843042419972   -0.615642020873679     0
    -0.21302286564913    0.792649229259282   -0.571251659135708     0
   -0.131200378813013    0.864929335863276   -0.484441642060666     0
    -0.30901699437495                  0.5    -0.80901699437495     0
   -0.371748034460185    0.601500955007544   -0.707106781186548     0
   -0.296004592577769    0.702309846743373   -0.647411893882224     0
   -0.237086325350578    0.606825149271813   -0.758652300163257     0
   -0.587785252292474     0.42532540417602   -0.688190960235586     0
   -0.693780477560449    0.160622035640025   -0.702046444776163     0
   -0.707106781186548    0.371748034460185   -0.601500955007544     0
   -0.647411893882224    0.296004592577769   -0.702309846743373     0
   -0.758652300163257    0.237086325350578   -0.606825149271813     0
   -0.433888564552694    0.259891913007754   -0.862668480416187     0
    -0.37503856747821    0.383613732685047    -0.84391147462239     0
   -0.516121620051061    0.346153014788992   -0.783451698363313     0
   -0.453990499739548    0.468429850866954   -0.757935420047776     0
    -0.52573111211913                    0    -0.85065080835204     0
   -0.615642020873679   0.0810862934433043   -0.783843042419972     0
   -0.571251659135708     0.21302286564913   -0.792649229259282     0
   -0.484441642060666    0.131200378813013   -0.864929335863276     0
   -0.564254211765771    0.646577791797732   -0.513375441230448     0
   -0.513375441230448    0.564254211765771   -0.646577791797732     0
   -0.646577791797732    0.513375441230448   -0.564254211765771     0
    -0.85065080835204    -0.52573111211913                    0     0
   -0.702046444776163   -0.693780477560449    0.160622035640025     0
   -0.862668480416187   -0.433888564552694    0.259891913007754     0
   -0.783843042419972   -0.615642020873679   0.0810862934433043     0
   -0.792649229259282   -0.571251659135708     0.21302286564913     0
   -0.864929335863276   -0.484441642060666    0.131200378813013     0
                 -0.5    -0.80901699437495     0.30901699437495     0
   -0.688190960235586   -0.587785252292474     0.42532540417602     0
   -0.601500955007544   -0.707106781186548    0.371748034460185     0
   -0.702309846743373   -0.647411893882224    0.296004592577769     0
   -0.606825149271813   -0.758652300163257    0.237086325350578     0
    -0.80901699437495    -0.30901699437495                  0.5     0
    -0.84391147462239    -0.37503856747821    0.383613732685047     0
   -0.783451698363313   -0.516121620051061    0.346153014788992     0
   -0.757935420047776   -0.453990499739548    0.468429850866954     0
   -0.259891913007754   -0.862668480416187    0.433888564552694     0
    -0.42532540417602   -0.688190960235586    0.587785252292474     0
   -0.383613732685047    -0.84391147462239     0.37503856747821     0
   -0.346153014788992   -0.783451698363313    0.516121620051061     0
   -0.468429850866954   -0.757935420047776    0.453990499739548     0
   -0.160622035640025   -0.702046444776163    0.693780477560449     0
  -0.0810862934433043   -0.783843042419972    0.615642020873679     0
    -0.21302286564913   -0.792649229259282    0.571251659135708     0
   -0.131200378813013   -0.864929335863276    0.484441642060666     0
    -0.30901699437495                 -0.5     0.80901699437495     0
   -0.371748034460185   -0.601500955007544    0.707106781186548     0
   -0.296004592577769   -0.702309846743373    0.647411893882224     0
   -0.237086325350578   -0.606825149271813    0.758652300163257     0
   -0.587785252292474    -0.42532540417602    0.688190960235586     0
   -0.693780477560449   -0.160622035640025    0.702046444776163     0
   -0.707106781186548   -0.371748034460185    0.601500955007544     0
   -0.647411893882224   -0.296004592577769    0.702309846743373     0
   -0.758652300163257   -0.237086325350578    0.606825149271813     0
   -0.433888564552694   -0.259891913007754    0.862668480416187     0
    -0.37503856747821   -0.383613732685047     0.84391147462239     0
   -0.516121620051061   -0.346153014788992    0.783451698363313     0
   -0.453990499739548   -0.468429850866954    0.757935420047776     0
   -0.615642020873679  -0.0810862934433043    0.783843042419972     0
   -0.571251659135708    -0.21302286564913    0.792649229259282     0
   -0.484441642060666   -0.131200378813013    0.864929335863276     0
   -0.564254211765771   -0.646577791797732    0.513375441230448     0
   -0.513375441230448   -0.564254211765771    0.646577791797732     0
   -0.646577791797732   -0.513375441230448    0.564254211765771     0
   -0.862668480416187   -0.433888564552694   -0.259891913007754     0
   -0.702046444776163   -0.693780477560449   -0.160622035640025     0
   -0.864929335863276   -0.484441642060666   -0.131200378813013     0
   -0.792649229259282   -0.571251659135708    -0.21302286564913     0
   -0.783843042419972   -0.615642020873679  -0.0810862934433043     0
    -0.80901699437495    -0.30901699437495                 -0.5     0
   -0.688190960235586   -0.587785252292474    -0.42532540417602     0
   -0.757935420047776   -0.453990499739548   -0.468429850866954     0
   -0.783451698363313   -0.516121620051061   -0.346153014788992     0
    -0.84391147462239    -0.37503856747821   -0.383613732685047     0
                 -0.5    -0.80901699437495    -0.30901699437495     0
   -0.606825149271813   -0.758652300163257   -0.237086325350578     0
   -0.702309846743373   -0.647411893882224   -0.296004592577769     0
   -0.601500955007544   -0.707106781186548   -0.371748034460185     0
   -0.693780477560449   -0.160622035640025   -0.702046444776163     0
   -0.587785252292474    -0.42532540417602   -0.688190960235586     0
   -0.758652300163257   -0.237086325350578   -0.606825149271813     0
   -0.647411893882224   -0.296004592577769   -0.702309846743373     0
   -0.707106781186548   -0.371748034460185   -0.601500955007544     0
   -0.433888564552694   -0.259891913007754   -0.862668480416187     0
   -0.484441642060666   -0.131200378813013   -0.864929335863276     0
   -0.571251659135708    -0.21302286564913   -0.792649229259282     0
   -0.615642020873679  -0.0810862934433043   -0.783843042419972     0
    -0.30901699437495                 -0.5    -0.80901699437495     0
   -0.453990499739548   -0.468429850866954   -0.757935420047776     0
   -0.516121620051061   -0.346153014788992   -0.783451698363313     0
    -0.37503856747821   -0.383613732685047    -0.84391147462239     0
    -0.42532540417602   -0.688190960235586   -0.587785252292474     0
   -0.259891913007754   -0.862668480416187   -0.433888564552694     0
   -0.468429850866954   -0.757935420047776   -0.453990499739548     0
   -0.346153014788992   -0.783451698363313   -0.516121620051061     0
   -0.383613732685047    -0.84391147462239    -0.37503856747821     0
   -0.160622035640025   -0.702046444776163   -0.693780477560449     0
   -0.237086325350578   -0.606825149271813   -0.758652300163257     0
   -0.296004592577769   -0.702309846743373   -0.647411893882224     0
   -0.371748034460185   -0.601500955007544   -0.707106781186548     0
   -0.131200378813013   -0.864929335863276   -0.484441642060666     0
    -0.21302286564913   -0.792649229259282   -0.571251659135708     0
  -0.0810862934433043   -0.783843042419972   -0.615642020873679     0
   -0.646577791797732   -0.513375441230448   -0.564254211765771     0
   -0.513375441230448   -0.564254211765771   -0.646577791797732     0
   -0.564254211765771   -0.646577791797732   -0.513375441230448     0
    0.711281734962217    0.702907030487773                    0     0
    0.525731112119132    0.850650808352041                    0     0
    0.519258489728182    0.840177885327139   -0.156434465040232     0
    0.620239582613446    0.780204370710127  -0.0811418516199404     0
    0.620239582613446    0.780204370710127   0.0811418516199404     0
    0.519258489728182    0.840177885327139    0.156434465040232     0
    0.262865556059566    0.951056516295153   -0.162459848116454     0
    0.264082750659065    0.916244175191216   -0.301258879093232     0
    0.386187385587591    0.891006524188368   -0.238676930319595     0
                    0    0.961938357783918    -0.27326652891267     0
                    0    0.915043421232985   -0.403355348617362     0
    0.131655371352065    0.924304600611347   -0.358228793486578     0
                    0                    1                    0     0
    0.133071104140591    0.987688340595138  -0.0822424652793629     0
    0.132792476827902    0.966392597402439   -0.220117027473292     0
                    0    0.990438881956862   -0.137952242127633     0
    0.262865556059566    0.951056516295153    0.162459848116454     0
    0.386187385587591    0.891006524188368    0.238676930319595     0
    0.264082750659065    0.916244175191216    0.301258879093232     0
                    0    0.961938357783918     0.27326652891267     0
                    0    0.990438881956862    0.137952242127633     0
    0.132792476827902    0.966392597402439    0.220117027473292     0
    0.133071104140591    0.987688340595138   0.0822424652793629     0
    0.131655371352065    0.924304600611347    0.358228793486578     0
                    0    0.915043421232985    0.403355348617362     0
     0.39960705170185    0.912982492932299  -0.0823235800319607     0
    0.266404701134567    0.963861263467623                    0     0
     0.39960705170185    0.912982492932299   0.0823235800319607     0
   -0.711281734962217    0.702907030487773                    0     0
   -0.525731112119132    0.850650808352041                    0     0
   -0.519258489728182    0.840177885327139    0.156434465040232     0
   -0.620239582613446    0.780204370710127   0.0811418516199404     0
   -0.620239582613446    0.780204370710127  -0.0811418516199404     0
   -0.519258489728182    0.840177885327139   -0.156434465040232     0
   -0.262865556059566    0.951056516295153    0.162459848116454     0
   -0.264082750659065    0.916244175191216    0.301258879093232     0
   -0.386187385587591    0.891006524188368    0.238676930319595     0
   -0.131655371352065    0.924304600611347    0.358228793486578     0
   -0.133071104140591    0.987688340595138   0.0822424652793629     0
   -0.132792476827902    0.966392597402439    0.220117027473292     0
   -0.262865556059566    0.951056516295153   -0.162459848116454     0
   -0.386187385587591    0.891006524188368   -0.238676930319595     0
   -0.264082750659065    0.916244175191216   -0.301258879093232     0
   -0.132792476827902    0.966392597402439   -0.220117027473292     0
   -0.133071104140591    0.987688340595138  -0.0822424652793629     0
   -0.131655371352065    0.924304600611347   -0.358228793486578     0
    -0.39960705170185    0.912982492932299   0.0823235800319607     0
   -0.266404701134567    0.963861263467623                    0     0
    -0.39960705170185    0.912982492932299  -0.0823235800319607     0
    0.711281734962217   -0.702907030487773                    0     0
    0.525731112119132   -0.850650808352041                    0     0
    0.519258489728182   -0.840177885327139    0.156434465040232     0
    0.620239582613446   -0.780204370710127   0.0811418516199404     0
    0.620239582613446   -0.780204370710127  -0.0811418516199404     0
    0.519258489728182   -0.840177885327139   -0.156434465040232     0
    0.262865556059566   -0.951056516295153    0.162459848116454     0
    0.264082750659065   -0.916244175191216    0.301258879093232     0
    0.386187385587591   -0.891006524188368    0.238676930319595     0
                    0   -0.961938357783918     0.27326652891267     0
                    0   -0.915043421232985    0.403355348617362     0
    0.131655371352065   -0.924304600611347    0.358228793486578     0
                    0                   -1                    0     0
    0.133071104140591   -0.987688340595138   0.0822424652793629     0
    0.132792476827902   -0.966392597402439    0.220117027473292     0
                    0   -0.990438881956862    0.137952242127633     0
    0.262865556059566   -0.951056516295153   -0.162459848116454     0
    0.386187385587591   -0.891006524188368   -0.238676930319595     0
    0.264082750659065   -0.916244175191216   -0.301258879093232     0
                    0   -0.961938357783918    -0.27326652891267     0
                    0   -0.990438881956862   -0.137952242127633     0
    0.132792476827902   -0.966392597402439   -0.220117027473292     0
    0.133071104140591   -0.987688340595138  -0.0822424652793629     0
    0.131655371352065   -0.924304600611347   -0.358228793486578     0
                    0   -0.915043421232985   -0.403355348617362     0
     0.39960705170185   -0.912982492932299   0.0823235800319607     0
    0.266404701134567   -0.963861263467623                    0     0
     0.39960705170185   -0.912982492932299  -0.0823235800319607     0
   -0.711281734962217   -0.702907030487773                    0     0
   -0.525731112119132   -0.850650808352041                    0     0
   -0.519258489728182   -0.840177885327139   -0.156434465040232     0
   -0.620239582613446   -0.780204370710127  -0.0811418516199404     0
   -0.620239582613446   -0.780204370710127   0.0811418516199404     0
   -0.519258489728182   -0.840177885327139    0.156434465040232     0
   -0.262865556059566   -0.951056516295153   -0.162459848116454     0
   -0.264082750659065   -0.916244175191216   -0.301258879093232     0
   -0.386187385587591   -0.891006524188368   -0.238676930319595     0
   -0.131655371352065   -0.924304600611347   -0.358228793486578     0
   -0.133071104140591   -0.987688340595138  -0.0822424652793629     0
   -0.132792476827902   -0.966392597402439   -0.220117027473292     0
   -0.262865556059566   -0.951056516295153    0.162459848116454     0
   -0.386187385587591   -0.891006524188368    0.238676930319595     0
   -0.264082750659065   -0.916244175191216    0.301258879093232     0
   -0.132792476827902   -0.966392597402439    0.220117027473292     0
   -0.133071104140591   -0.987688340595138   0.0822424652793629     0
   -0.131655371352065   -0.924304600611347    0.358228793486578     0
    -0.39960705170185   -0.912982492932299  -0.0823235800319607     0
   -0.266404701134567   -0.963861263467623                    0     0
    -0.39960705170185   -0.912982492932299   0.0823235800319607     0
    0.702907030487773                    0    0.711281734962217     0
    0.850650808352041                    0    0.525731112119132     0
    0.840177885327139   -0.156434465040232    0.519258489728182     0
    0.780204370710127  -0.0811418516199404    0.620239582613446     0
    0.780204370710127   0.0811418516199404    0.620239582613446     0
    0.840177885327139    0.156434465040232    0.519258489728182     0
    0.951056516295153   -0.162459848116454    0.262865556059566     0
    0.916244175191216   -0.301258879093232    0.264082750659065     0
    0.891006524188368   -0.238676930319595    0.386187385587591     0
    0.961938357783918    -0.27326652891267                    0     0
    0.915043421232985   -0.403355348617362                    0     0
    0.924304600611347   -0.358228793486578    0.131655371352065     0
                    1                    0                    0     0
    0.987688340595138  -0.0822424652793629    0.133071104140591     0
    0.966392597402439   -0.220117027473292    0.132792476827902     0
    0.990438881956862   -0.137952242127633                    0     0
    0.951056516295153    0.162459848116454    0.262865556059566     0
    0.891006524188368    0.238676930319595    0.386187385587591     0
    0.916244175191216    0.301258879093232    0.264082750659065     0
    0.961938357783918     0.27326652891267                    0     0
    0.990438881956862    0.137952242127633                    0     0
    0.966392597402439    0.220117027473292    0.132792476827902     0
    0.987688340595138   0.0822424652793629    0.133071104140591     0
    0.924304600611347    0.358228793486578    0.131655371352065     0
    0.915043421232985    0.403355348617362                    0     0
    0.912982492932299  -0.0823235800319607     0.39960705170185     0
    0.963861263467623                    0    0.266404701134567     0
    0.912982492932299   0.0823235800319607     0.39960705170185     0
    0.702907030487773                    0   -0.711281734962217     0
    0.850650808352041                    0   -0.525731112119132     0
    0.840177885327139    0.156434465040232   -0.519258489728182     0
    0.780204370710127   0.0811418516199404   -0.620239582613446     0
    0.780204370710127  -0.0811418516199404   -0.620239582613446     0
    0.840177885327139   -0.156434465040232   -0.519258489728182     0
    0.951056516295153    0.162459848116454   -0.262865556059566     0
    0.916244175191216    0.301258879093232   -0.264082750659065     0
    0.891006524188368    0.238676930319595   -0.386187385587591     0
    0.924304600611347    0.358228793486578   -0.131655371352065     0
    0.987688340595138   0.0822424652793629   -0.133071104140591     0
    0.966392597402439    0.220117027473292   -0.132792476827902     0
    0.951056516295153   -0.162459848116454   -0.262865556059566     0
    0.891006524188368   -0.238676930319595   -0.386187385587591     0
    0.916244175191216   -0.301258879093232   -0.264082750659065     0
    0.966392597402439   -0.220117027473292   -0.132792476827902     0
    0.987688340595138  -0.0822424652793629   -0.133071104140591     0
    0.924304600611347   -0.358228793486578   -0.131655371352065     0
    0.912982492932299   0.0823235800319607    -0.39960705170185     0
    0.963861263467623                    0   -0.266404701134567     0
    0.912982492932299  -0.0823235800319607    -0.39960705170185     0
   -0.702907030487773                    0    0.711281734962217     0
   -0.850650808352041                    0    0.525731112119132     0
   -0.840177885327139    0.156434465040232    0.519258489728182     0
   -0.780204370710127   0.0811418516199404    0.620239582613446     0
   -0.780204370710127  -0.0811418516199404    0.620239582613446     0
   -0.840177885327139   -0.156434465040232    0.519258489728182     0
   -0.951056516295153    0.162459848116454    0.262865556059566     0
   -0.916244175191216    0.301258879093232    0.264082750659065     0
   -0.891006524188368    0.238676930319595    0.386187385587591     0
   -0.961938357783918     0.27326652891267                    0     0
   -0.915043421232985    0.403355348617362                    0     0
   -0.924304600611347    0.358228793486578    0.131655371352065     0
                   -1                    0                    0     0
   -0.987688340595138   0.0822424652793629    0.133071104140591     0
   -0.966392597402439    0.220117027473292    0.132792476827902     0
   -0.990438881956862    0.137952242127633                    0     0
   -0.951056516295153   -0.162459848116454    0.262865556059566     0
   -0.891006524188368   -0.238676930319595    0.386187385587591     0
   -0.916244175191216   -0.301258879093232    0.264082750659065     0
   -0.961938357783918    -0.27326652891267                    0     0
   -0.990438881956862   -0.137952242127633                    0     0
   -0.966392597402439   -0.220117027473292    0.132792476827902     0
   -0.987688340595138  -0.0822424652793629    0.133071104140591     0
   -0.924304600611347   -0.358228793486578    0.131655371352065     0
   -0.915043421232985   -0.403355348617362                    0     0
   -0.912982492932299   0.0823235800319607     0.39960705170185     0
   -0.963861263467623                    0    0.266404701134567     0
   -0.912982492932299  -0.0823235800319607     0.39960705170185     0
   -0.702907030487773                    0   -0.711281734962217     0
   -0.850650808352041                    0   -0.525731112119132     0
   -0.840177885327139   -0.156434465040232   -0.519258489728182     0
   -0.780204370710127  -0.0811418516199404   -0.620239582613446     0
   -0.780204370710127   0.0811418516199404   -0.620239582613446     0
   -0.840177885327139    0.156434465040232   -0.519258489728182     0
   -0.951056516295153   -0.162459848116454   -0.262865556059566     0
   -0.916244175191216   -0.301258879093232   -0.264082750659065     0
   -0.891006524188368   -0.238676930319595   -0.386187385587591     0
   -0.924304600611347   -0.358228793486578   -0.131655371352065     0
   -0.987688340595138  -0.0822424652793629   -0.133071104140591     0
   -0.966392597402439   -0.220117027473292   -0.132792476827902     0
   -0.951056516295153    0.162459848116454   -0.262865556059566     0
   -0.891006524188368    0.238676930319595   -0.386187385587591     0
   -0.916244175191216    0.301258879093232   -0.264082750659065     0
   -0.966392597402439    0.220117027473292   -0.132792476827902     0
   -0.987688340595138   0.0822424652793629   -0.133071104140591     0
   -0.924304600611347    0.358228793486578   -0.131655371352065     0
   -0.912982492932299  -0.0823235800319607    -0.39960705170185     0
   -0.963861263467623                    0   -0.266404701134567     0
   -0.912982492932299   0.0823235800319607    -0.39960705170185     0
                    0    0.711281734962217    0.702907030487773     0
                    0    0.525731112119132    0.850650808352041     0
   -0.156434465040232    0.519258489728182    0.840177885327139     0
  -0.0811418516199404    0.620239582613446    0.780204370710127     0
   0.0811418516199404    0.620239582613446    0.780204370710127     0
    0.156434465040232    0.519258489728182    0.840177885327139     0
   -0.162459848116454    0.262865556059566    0.951056516295153     0
   -0.301258879093232    0.264082750659065    0.916244175191216     0
   -0.238676930319595    0.386187385587591    0.891006524188368     0
    -0.27326652891267                    0    0.961938357783918     0
   -0.403355348617362                    0    0.915043421232985     0
   -0.358228793486578    0.131655371352065    0.924304600611347     0
                    0                    0                    1     0
  -0.0822424652793629    0.133071104140591    0.987688340595138     0
   -0.220117027473292    0.132792476827902    0.966392597402439     0
   -0.137952242127633                    0    0.990438881956862     0
    0.162459848116454    0.262865556059566    0.951056516295153     0
    0.238676930319595    0.386187385587591    0.891006524188368     0
    0.301258879093232    0.264082750659065    0.916244175191216     0
     0.27326652891267                    0    0.961938357783918     0
    0.137952242127633                    0    0.990438881956862     0
    0.220117027473292    0.132792476827902    0.966392597402439     0
   0.0822424652793629    0.133071104140591    0.987688340595138     0
    0.358228793486578    0.131655371352065    0.924304600611347     0
    0.403355348617362                    0    0.915043421232985     0
  -0.0823235800319607     0.39960705170185    0.912982492932299     0
                    0    0.266404701134567    0.963861263467623     0
   0.0823235800319607     0.39960705170185    0.912982492932299     0
                    0   -0.711281734962217    0.702907030487773     0
                    0   -0.525731112119132    0.850650808352041     0
    0.156434465040232   -0.519258489728182    0.840177885327139     0
   0.0811418516199404   -0.620239582613446    0.780204370710127     0
  -0.0811418516199404   -0.620239582613446    0.780204370710127     0
   -0.156434465040232   -0.519258489728182    0.840177885327139     0
    0.162459848116454   -0.262865556059566    0.951056516295153     0
    0.301258879093232   -0.264082750659065    0.916244175191216     0
    0.238676930319595   -0.386187385587591    0.891006524188368     0
    0.358228793486578   -0.131655371352065    0.924304600611347     0
   0.0822424652793629   -0.133071104140591    0.987688340595138     0
    0.220117027473292   -0.132792476827902    0.966392597402439     0
   -0.162459848116454   -0.262865556059566    0.951056516295153     0
   -0.238676930319595   -0.386187385587591    0.891006524188368     0
   -0.301258879093232   -0.264082750659065    0.916244175191216     0
   -0.220117027473292   -0.132792476827902    0.966392597402439     0
  -0.0822424652793629   -0.133071104140591    0.987688340595138     0
   -0.358228793486578   -0.131655371352065    0.924304600611347     0
   0.0823235800319607    -0.39960705170185    0.912982492932299     0
                    0   -0.266404701134567    0.963861263467623     0
  -0.0823235800319607    -0.39960705170185    0.912982492932299     0
                    0    0.711281734962217   -0.702907030487773     0
                    0    0.525731112119132   -0.850650808352041     0
    0.156434465040232    0.519258489728182   -0.840177885327139     0
   0.0811418516199404    0.620239582613446   -0.780204370710127     0
  -0.0811418516199404    0.620239582613446   -0.780204370710127     0
   -0.156434465040232    0.519258489728182   -0.840177885327139     0
    0.162459848116454    0.262865556059566   -0.951056516295153     0
    0.301258879093232    0.264082750659065   -0.916244175191216     0
    0.238676930319595    0.386187385587591   -0.891006524188368     0
     0.27326652891267                    0   -0.961938357783918     0
    0.403355348617362                    0   -0.915043421232985     0
    0.358228793486578    0.131655371352065   -0.924304600611347     0
                    0                    0                   -1     0
   0.0822424652793629    0.133071104140591   -0.987688340595138     0
    0.220117027473292    0.132792476827902   -0.966392597402439     0
    0.137952242127633                    0   -0.990438881956862     0
   -0.162459848116454    0.262865556059566   -0.951056516295153     0
   -0.238676930319595    0.386187385587591   -0.891006524188368     0
   -0.301258879093232    0.264082750659065   -0.916244175191216     0
    -0.27326652891267                    0   -0.961938357783918     0
   -0.137952242127633                    0   -0.990438881956862     0
   -0.220117027473292    0.132792476827902   -0.966392597402439     0
  -0.0822424652793629    0.133071104140591   -0.987688340595138     0
   -0.358228793486578    0.131655371352065   -0.924304600611347     0
   -0.403355348617362                    0   -0.915043421232985     0
   0.0823235800319607     0.39960705170185   -0.912982492932299     0
                    0    0.266404701134567   -0.963861263467623     0
  -0.0823235800319607     0.39960705170185   -0.912982492932299     0
                    0   -0.711281734962217   -0.702907030487773     0
                    0   -0.525731112119132   -0.850650808352041     0
   -0.156434465040232   -0.519258489728182   -0.840177885327139     0
  -0.0811418516199404   -0.620239582613446   -0.780204370710127     0
   0.0811418516199404   -0.620239582613446   -0.780204370710127     0
    0.156434465040232   -0.519258489728182   -0.840177885327139     0
   -0.162459848116454   -0.262865556059566   -0.951056516295153     0
   -0.301258879093232   -0.264082750659065   -0.916244175191216     0
   -0.238676930319595   -0.386187385587591   -0.891006524188368     0
   -0.358228793486578   -0.131655371352065   -0.924304600611347     0
  -0.0822424652793629   -0.133071104140591   -0.987688340595138     0
   -0.220117027473292   -0.132792476827902   -0.966392597402439     0
    0.162459848116454   -0.262865556059566   -0.951056516295153     0
    0.238676930319595   -0.386187385587591   -0.891006524188368     0
    0.301258879093232   -0.264082750659065   -0.916244175191216     0
    0.220117027473292   -0.132792476827902   -0.966392597402439     0
   0.0822424652793629   -0.133071104140591   -0.987688340595138     0
    0.358228793486578   -0.131655371352065   -0.924304600611347     0
  -0.0823235800319607    -0.39960705170185   -0.912982492932299     0
                    0   -0.266404701134567   -0.963861263467623     0
   0.0823235800319607    -0.39960705170185   -0.912982492932299     0
Triangles
 1280
    1    4    6    0
    2    5    4    0
    3    6    5    0
    4    5    6    0
    7    9   11    0
    8   10    9    0
    2   11   10    0
    9   10   11    0
   12   13   15    0
    3   14   13    0
    8   15   14    0
   13   14   15    0
    2   10    5    0
    8   14   10    0
    3    5   14    0
   10   14    5    0
    7   18   20    0
   16   19   18    0
   17   20   19    0
   18   19   20    0
   21   23   25    0
   22   24   23    0
   16   25   24    0
   23   24   25    0
   26   27   29    0
   17   28   27    0
   22   29   28    0
   27   28   29    0
   16   24   19    0
   22   28   24    0
   17   19   28    0
   24   28   19    0
   12   32   34    0
   30   33   32    0
   31   34   33    0
   32   33   34    0
   26   36   38    0
   35   37   36    0
   30   38   37    0
   36   37   38    0
   39   40   42    0
   31   41   40    0
   35   42   41    0
   40   41   42    0
   30   37   33    0
   35   41   37    0
   31   33   41    0
   37   41   33    0
    7   20    9    0
   17   43   20    0
    8    9   43    0
   20   43    9    0
   26   38   27    0
   30   44   38    0
   17   27   44    0
   38   44   27    0
   12   15   32    0
    8   45   15    0
   30   32   45    0
   15   45   32    0
   17   44   43    0
   30   45   44    0
    8   43   45    0
   44   45   43    0
    1   48   50    0
   46   49   48    0
   47   50   49    0
   48   49   50    0
   51   53   55    0
   52   54   53    0
   46   55   54    0
   53   54   55    0
   56   57   59    0
   47   58   57    0
   52   59   58    0
   57   58   59    0
   46   54   49    0
   52   58   54    0
   47   49   58    0
   54   58   49    0
   51   62   64    0
   60   63   62    0
   61   64   63    0
   62   63   64    0
   65   67   69    0
   66   68   67    0
   60   69   68    0
   67   68   69    0
   70   71   73    0
   61   72   71    0
   66   73   72    0
   71   72   73    0
   60   68   63    0
   66   72   68    0
   61   63   72    0
   68   72   63    0
   56   76   78    0
   74   77   76    0
   75   78   77    0
   76   77   78    0
   70   80   82    0
   79   81   80    0
   74   82   81    0
   80   81   82    0
   83   84   86    0
   75   85   84    0
   79   86   85    0
   84   85   86    0
   74   81   77    0
   79   85   81    0
   75   77   85    0
   81   85   77    0
   51   64   53    0
   61   87   64    0
   52   53   87    0
   64   87   53    0
   70   82   71    0
   74   88   82    0
   61   71   88    0
   82   88   71    0
   56   59   76    0
   52   89   59    0
   74   76   89    0
   59   89   76    0
   61   88   87    0
   74   89   88    0
   52   87   89    0
   88   89   87    0
   90   93   95    0
   91   94   93    0
   92   95   94    0
   93   94   95    0
   96   98  100    0
   97   99   98    0
   91  100   99    0
   98   99  100    0
  101  102  104    0
   92  103  102    0
   97  104  103    0
  102  103  104    0
   91   99   94    0
   97  103   99    0
   92   94  103    0
   99  103   94    0
   96  107  109    0
  105  108  107    0
  106  109  108    0
  107  108  109    0
   39  111  113    0
  110  112  111    0
  105  113  112    0
  111  112  113    0
  114  115  117    0
  106  116  115    0
  110  117  116    0
  115  116  117    0
  105  112  108    0
  110  116  112    0
  106  108  116    0
  112  116  108    0
  101  120  122    0
  118  121  120    0
  119  122  121    0
  120  121  122    0
  114  124  126    0
  123  125  124    0
  118  126  125    0
  124  125  126    0
  127  128  130    0
  119  129  128    0
  123  130  129    0
  128  129  130    0
  118  125  121    0
  123  129  125    0
  119  121  129    0
  125  129  121    0
   96  109   98    0
  106  131  109    0
   97   98  131    0
  109  131   98    0
  114  126  115    0
  118  132  126    0
  106  115  132    0
  126  132  115    0
  101  104  120    0
   97  133  104    0
  118  120  133    0
  104  133  120    0
  106  132  131    0
  118  133  132    0
   97  131  133    0
  132  133  131    0
   90  136  138    0
  134  137  136    0
  135  138  137    0
  136  137  138    0
  139  141  143    0
  140  142  141    0
  134  143  142    0
  141  142  143    0
  144  145  147    0
  135  146  145    0
  140  147  146    0
  145  146  147    0
  134  142  137    0
  140  146  142    0
  135  137  146    0
  142  146  137    0
  139  150  152    0
  148  151  150    0
  149  152  151    0
  150  151  152    0
  153  155  157    0
  154  156  155    0
  148  157  156    0
  155  156  157    0
  158  159  161    0
  149  160  159    0
  154  161  160    0
  159  160  161    0
  148  156  151    0
  154  160  156    0
  149  151  160    0
  156  160  151    0
  144  164  166    0
  162  165  164    0
  163  166  165    0
  164  165  166    0
  158  168  170    0
  167  169  168    0
  162  170  169    0
  168  169  170    0
   65  171  173    0
  163  172  171    0
  167  173  172    0
  171  172  173    0
  162  169  165    0
  167  172  169    0
  163  165  172    0
  169  172  165    0
  139  152  141    0
  149  174  152    0
  140  141  174    0
  152  174  141    0
  158  170  159    0
  162  175  170    0
  149  159  175    0
  170  175  159    0
  144  147  164    0
  140  176  147    0
  162  164  176    0
  147  176  164    0
  149  175  174    0
  162  176  175    0
  140  174  176    0
  175  176  174    0
  177  180  182    0
  178  181  180    0
  179  182  181    0
  180  181  182    0
  183  185  187    0
  184  186  185    0
  178  187  186    0
  185  186  187    0
  188  189  191    0
  179  190  189    0
  184  191  190    0
  189  190  191    0
  178  186  181    0
  184  190  186    0
  179  181  190    0
  186  190  181    0
  183  194  196    0
  192  195  194    0
  193  196  195    0
  194  195  196    0
  197  199  201    0
  198  200  199    0
  192  201  200    0
  199  200  201    0
  202  203  205    0
  193  204  203    0
  198  205  204    0
  203  204  205    0
  192  200  195    0
  198  204  200    0
  193  195  204    0
  200  204  195    0
  188  208  210    0
  206  209  208    0
  207  210  209    0
  208  209  210    0
  202  212  214    0
  211  213  212    0
  206  214  213    0
  212  213  214    0
   21  215  217    0
  207  216  215    0
  211  217  216    0
  215  216  217    0
  206  213  209    0
  211  216  213    0
  207  209  216    0
  213  216  209    0
  183  196  185    0
  193  218  196    0
  184  185  218    0
  196  218  185    0
  202  214  203    0
  206  219  214    0
  193  203  219    0
  214  219  203    0
  188  191  208    0
  184  220  191    0
  206  208  220    0
  191  220  208    0
  193  219  218    0
  206  220  219    0
  184  218  220    0
  219  220  218    0
  177  223  225    0
  221  224  223    0
  222  225  224    0
  223  224  225    0
  226  228  230    0
  227  229  228    0
  221  230  229    0
  228  229  230    0
  231  232  234    0
  222  233  232    0
  227  234  233    0
  232  233  234    0
  221  229  224    0
  227  233  229    0
  222  224  233    0
  229  233  224    0
  226  237  239    0
  235  238  237    0
  236  239  238    0
  237  238  239    0
   83  241  243    0
  240  242  241    0
  235  243  242    0
  241  242  243    0
  244  245  247    0
  236  246  245    0
  240  247  246    0
  245  246  247    0
  235  242  238    0
  240  246  242    0
  236  238  246    0
  242  246  238    0
  231  250  252    0
  248  251  250    0
  249  252  251    0
  250  251  252    0
  244  254  256    0
  253  255  254    0
  248  256  255    0
  254  255  256    0
  257  258  260    0
  249  259  258    0
  253  260  259    0
  258  259  260    0
  248  255  251    0
  253  259  255    0
  249  251  259    0
  255  259  251    0
  226  239  228    0
  236  261  239    0
  227  228  261    0
  239  261  228    0
  244  256  245    0
  248  262  256    0
  236  245  262    0
  256  262  245    0
  231  234  250    0
  227  263  234    0
  248  250  263    0
  234  263  250    0
  236  262  261    0
  248  263  262    0
  227  261  263    0
  262  263  261    0
  264  267  269    0
  265  268  267    0
  266  269  268    0
  267  268  269    0
  270  272  274    0
  271  273  272    0
  265  274  273    0
  272  273  274    0
  275  276  278    0
  266  277  276    0
  271  278  277    0
  276  277  278    0
  265  273  268    0
  271  277  273    0
  266  268  277    0
  273  277  268    0
  270  281  283    0
  279  282  281    0
  280  283  282    0
  281  282  283    0
  127  285  287    0
  284  286  285    0
  279  287  286    0
  285  286  287    0
  288  289  291    0
  280  290  289    0
  284  291  290    0
  289  290  291    0
  279  286  282    0
  284  290  286    0
  280  282  290    0
  286  290  282    0
  275  294  296    0
  292  295  294    0
  293  296  295    0
  294  295  296    0
  288  298  300    0
  297  299  298    0
  292  300  299    0
  298  299  300    0
  197  301  303    0
  293  302  301    0
  297  303  302    0
  301  302  303    0
  292  299  295    0
  297  302  299    0
  293  295  302    0
  299  302  295    0
  270  283  272    0
  280  304  283    0
  271  272  304    0
  283  304  272    0
  288  300  289    0
  292  305  300    0
  280  289  305    0
  300  305  289    0
  275  278  294    0
  271  306  278    0
  292  294  306    0
  278  306  294    0
  280  305  304    0
  292  306  305    0
  271  304  306    0
  305  306  304    0
  264  309  311    0
  307  310  309    0
  308  311  310    0
  309  310  311    0
  312  314  316    0
  313  315  314    0
  307  316  315    0
  314  315  316    0
  317  318  320    0
  308  319  318    0
  313  320  319    0
  318  319  320    0
  307  315  310    0
  313  319  315    0
  308  310  319    0
  315  319  310    0
  312  323  325    0
  321  324  323    0
  322  325  324    0
  323  324  325    0
  257  327  329    0
  326  328  327    0
  321  329  328    0
  327  328  329    0
  330  331  333    0
  322  332  331    0
  326  333  332    0
  331  332  333    0
  321  328  324    0
  326  332  328    0
  322  324  332    0
  328  332  324    0
  317  336  338    0
  334  337  336    0
  335  338  337    0
  336  337  338    0
  330  340  342    0
  339  341  340    0
  334  342  341    0
  340  341  342    0
  153  343  345    0
  335  344  343    0
  339  345  344    0
  343  344  345    0
  334  341  337    0
  339  344  341    0
  335  337  344    0
  341  344  337    0
  312  325  314    0
  322  346  325    0
  313  314  346    0
  325  346  314    0
  330  342  331    0
  334  347  342    0
  322  331  347    0
  342  347  331    0
  317  320  336    0
  313  348  320    0
  334  336  348    0
  320  348  336    0
  322  347  346    0
  334  348  347    0
  313  346  348    0
  347  348  346    0
    1   50    4    0
   47  349   50    0
    2    4  349    0
   50  349    4    0
   56  351   57    0
  350  352  351    0
   47   57  352    0
  351  352   57    0
    7   11  354    0
    2  353   11    0
  350  354  353    0
   11  353  354    0
   47  352  349    0
  350  353  352    0
    2  349  353    0
  352  353  349    0
   56   78  357    0
   75  356   78    0
  355  357  356    0
   78  356  357    0
   83  359   84    0
  358  360  359    0
   75   84  360    0
  359  360   84    0
  361  362  364    0
  355  363  362    0
  358  364  363    0
  362  363  364    0
   75  360  356    0
  358  363  360    0
  355  356  363    0
  360  363  356    0
    7  366   18    0
  365  367  366    0
   16   18  367    0
  366  367   18    0
  361  369  371    0
  368  370  369    0
  365  371  370    0
  369  370  371    0
   21   25  373    0
   16  372   25    0
  368  373  372    0
   25  372  373    0
  365  370  367    0
  368  372  370    0
   16  367  372    0
  370  372  367    0
   56  357  351    0
  355  374  357    0
  350  351  374    0
  357  374  351    0
  361  371  362    0
  365  375  371    0
  355  362  375    0
  371  375  362    0
    7  354  366    0
  350  376  354    0
  365  366  376    0
  354  376  366    0
  355  375  374    0
  365  376  375    0
  350  374  376    0
  375  376  374    0
  177  182  223    0
  179  377  182    0
  221  223  377    0
  182  377  223    0
  188  379  189    0
  378  380  379    0
  179  189  380    0
  379  380  189    0
  226  230  382    0
  221  381  230    0
  378  382  381    0
  230  381  382    0
  179  380  377    0
  378  381  380    0
  221  377  381    0
  380  381  377    0
  188  210  385    0
  207  384  210    0
  383  385  384    0
  210  384  385    0
   21  373  215    0
  368  386  373    0
  207  215  386    0
  373  386  215    0
  361  387  369    0
  383  388  387    0
  368  369  388    0
  387  388  369    0
  207  386  384    0
  368  388  386    0
  383  384  388    0
  386  388  384    0
  226  390  237    0
  389  391  390    0
  235  237  391    0
  390  391  237    0
  361  364  393    0
  358  392  364    0
  389  393  392    0
  364  392  393    0
   83  243  359    0
  235  394  243    0
  358  359  394    0
  243  394  359    0
  389  392  391    0
  358  394  392    0
  235  391  394    0
  392  394  391    0
  188  385  379    0
  383  395  385    0
  378  379  395    0
  385  395  379    0
  361  393  387    0
  389  396  393    0
  383  387  396    0
  393  396  387    0
  226  382  390    0
  378  397  382    0
  389  390  397    0
  382  397  390    0
  383  396  395    0
  389  397  396    0
  378  395  397    0
  396  397  395    0
   90   95  136    0
   92  398   95    0
  134  136  398    0
   95  398  136    0
  101  400  102    0
  399  401  400    0
   92  102  401    0
  400  401  102    0
  139  143  403    0
  134  402  143    0
  399  403  402    0
  143  402  403    0
   92  401  398    0
  399  402  401    0
  134  398  402    0
  401  402  398    0
  101  122  406    0
  119  405  122    0
  404  406  405    0
  122  405  406    0
  127  408  128    0
  407  409  408    0
  119  128  409    0
  408  409  128    0
  410  411  413    0
  404  412  411    0
  407  413  412    0
  411  412  413    0
  119  409  405    0
  407  412  409    0
  404  405  412    0
  409  412  405    0
  139  415  150    0
  414  416  415    0
  148  150  416    0
  415  416  150    0
  410  418  420    0
  417  419  418    0
  414  420  419    0
  418  419  420    0
  153  157  422    0
  148  421  157    0
  417  422  421    0
  157  421  422    0
  414  419  416    0
  417  421  419    0
  148  416  421    0
  419  421  416    0
  101  406  400    0
  404  423  406    0
  399  400  423    0
  406  423  400    0
  410  420  411    0
  414  424  420    0
  404  411  424    0
  420  424  411    0
  139  403  415    0
  399  425  403    0
  414  415  425    0
  403  425  415    0
  404  424  423    0
  414  425  424    0
  399  423  425    0
  424  425  423    0
  264  311  267    0
  308  426  311    0
  265  267  426    0
  311  426  267    0
  317  428  318    0
  427  429  428    0
  308  318  429    0
  428  429  318    0
  270  274  431    0
  265  430  274    0
  427  431  430    0
  274  430  431    0
  308  429  426    0
  427  430  429    0
  265  426  430    0
  429  430  426    0
  317  338  434    0
  335  433  338    0
  432  434  433    0
  338  433  434    0
  153  422  343    0
  417  435  422    0
  335  343  435    0
  422  435  343    0
  410  436  418    0
  432  437  436    0
  417  418  437    0
  436  437  418    0
  335  435  433    0
  417  437  435    0
  432  433  437    0
  435  437  433    0
  270  439  281    0
  438  440  439    0
  279  281  440    0
  439  440  281    0
  410  413  442    0
  407  441  413    0
  438  442  441    0
  413  441  442    0
  127  287  408    0
  279  443  287    0
  407  408  443    0
  287  443  408    0
  438  441  440    0
  407  443  441    0
  279  440  443    0
  441  443  440    0
  317  434  428    0
  432  444  434    0
  427  428  444    0
  434  444  428    0
  410  442  436    0
  438  445  442    0
  432  436  445    0
  442  445  436    0
  270  431  439    0
  427  446  431    0
  438  439  446    0
  431  446  439    0
  432  445  444    0
  438  446  445    0
  427  444  446    0
  445  446  444    0
   39  113   40    0
  105  447  113    0
   31   40  447    0
  113  447   40    0
   96  449  107    0
  448  450  449    0
  105  107  450    0
  449  450  107    0
   12   34  452    0
   31  451   34    0
  448  452  451    0
   34  451  452    0
  105  450  447    0
  448  451  450    0
   31  447  451    0
  450  451  447    0
   96  100  455    0
   91  454  100    0
  453  455  454    0
  100  454  455    0
   90  457   93    0
  456  458  457    0
   91   93  458    0
  457  458   93    0
  459  460  462    0
  453  461  460    0
  456  462  461    0
  460  461  462    0
   91  458  454    0
  456  461  458    0
  453  454  461    0
  458  461  454    0
   12  464   13    0
  463  465  464    0
    3   13  465    0
  464  465   13    0
  459  467  469    0
  466  468  467    0
  463  469  468    0
  467  468  469    0
    1    6  471    0
    3  470    6    0
  466  471  470    0
    6  470  471    0
  463  468  465    0
  466  470  468    0
    3  465  470    0
  468  470  465    0
   96  455  449    0
  453  472  455    0
  448  449  472    0
  455  472  449    0
  459  469  460    0
  463  473  469    0
  453  460  473    0
  469  473  460    0
   12  452  464    0
  448  474  452    0
  463  464  474    0
  452  474  464    0
  453  473  472    0
  463  474  473    0
  448  472  474    0
  473  474  472    0
   65   69  171    0
   60  475   69    0
  163  171  475    0
   69  475  171    0
   51  477   62    0
  476  478  477    0
   60   62  478    0
  477  478   62    0
  144  166  480    0
  163  479  166    0
  476  480  479    0
  166  479  480    0
   60  478  475    0
  476  479  478    0
  163  475  479    0
  478  479  475    0
   51   55  483    0
   46  482   55    0
  481  483  482    0
   55  482  483    0
    1  471   48    0
  466  484  471    0
   46   48  484    0
  471  484   48    0
  459  485  467    0
  481  486  485    0
  466  467  486    0
  485  486  467    0
   46  484  482    0
  466  486  484    0
  481  482  486    0
  484  486  482    0
  144  488  145    0
  487  489  488    0
  135  145  489    0
  488  489  145    0
  459  462  491    0
  456  490  462    0
  487  491  490    0
  462  490  491    0
   90  138  457    0
  135  492  138    0
  456  457  492    0
  138  492  457    0
  487  490  489    0
  456  492  490    0
  135  489  492    0
  490  492  489    0
   51  483  477    0
  481  493  483    0
  476  477  493    0
  483  493  477    0
  459  491  485    0
  487  494  491    0
  481  485  494    0
  491  494  485    0
  144  480  488    0
  476  495  480    0
  487  488  495    0
  480  495  488    0
  481  494  493    0
  487  495  494    0
  476  493  495    0
  494  495  493    0
  197  201  301    0
  192  496  201    0
  293  301  496    0
  201  496  301    0
  183  498  194    0
  497  499  498    0
  192  194  499    0
  498  499  194    0
  275  296  501    0
  293  500  296    0
  497  501  500    0
  296  500  501    0
  192  499  496    0
  497  500  499    0
  293  496  500    0
  499  500  496    0
  183  187  504    0
  178  503  187    0
  502  504  503    0
  187  503  504    0
  177  506  180    0
  505  507  506    0
  178  180  507    0
  506  507  180    0
  508  509  511    0
  502  510  509    0
  505  511  510    0
  509  510  511    0
  178  507  503    0
  505  510  507    0
  502  503  510    0
  507  510  503    0
  275  513  276    0
  512  514  513    0
  266  276  514    0
  513  514  276    0
  508  516  518    0
  515  517  516    0
  512  518  517    0
  516  517  518    0
  264  269  520    0
  266  519  269    0
  515  520  519    0
  269  519  520    0
  512  517  514    0
  515  519  517    0
  266  514  519    0
  517  519  514    0
  183  504  498    0
  502  521  504    0
  497  498  521    0
  504  521  498    0
  508  518  509    0
  512  522  518    0
  502  509  522    0
  518  522  509    0
  275  501  513    0
  497  523  501    0
  512  513  523    0
  501  523  513    0
  502  522  521    0
  512  523  522    0
  497  521  523    0
  522  523  521    0
  257  329  258    0
  321  524  329    0
  249  258  524    0
  329  524  258    0
  312  526  323    0
  525  527  526    0
  321  323  527    0
  526  527  323    0
  231  252  529    0
  249  528  252    0
  525  529  528    0
  252  528  529    0
  321  527  524    0
  525  528  527    0
  249  524  528    0
  527  528  524    0
  312  316  532    0
  307  531  316    0
  530  532  531    0
  316  531  532    0
  264  520  309    0
  515  533  520    0
  307  309  533    0
  520  533  309    0
  508  534  516    0
  530  535  534    0
  515  516  535    0
  534  535  516    0
  307  533  531    0
  515  535  533    0
  530  531  535    0
  533  535  531    0
  231  537  232    0
  536  538  537    0
  222  232  538    0
  537  538  232    0
  508  511  540    0
  505  539  511    0
  536  540  539    0
  511  539  540    0
  177  225  506    0
  222  541  225    0
  505  506  541    0
  225  541  506    0
  536  539  538    0
  505  541  539    0
  222  538  541    0
  539  541  538    0
  312  532  526    0
  530  542  532    0
  525  526  542    0
  532  542  526    0
  508  540  534    0
  536  543  540    0
  530  534  543    0
  540  543  534    0
  231  529  537    0
  525  544  529    0
  536  537  544    0
  529  544  537    0
  530  543  542    0
  536  544  543    0
  525  542  544    0
  543  544  542    0
   21  217   23    0
  211  545  217    0
   22   23  545    0
  217  545   23    0
  202  547  212    0
  546  548  547    0
  211  212  548    0
  547  548  212    0
   26   29  550    0
   22  549   29    0
  546  550  549    0
   29  549  550    0
  211  548  545    0
  546  549  548    0
   22  545  549    0
  548  549  545    0
  202  205  553    0
  198  552  205    0
  551  553  552    0
  205  552  553    0
  197  555  199    0
  554  556  555    0
  198  199  556    0
  555  556  199    0
  557  558  560    0
  551  559  558    0
  554  560  559    0
  558  559  560    0
  198  556  552    0
  554  559  556    0
  551  552  559    0
  556  559  552    0
   26  562   36    0
  561  563  562    0
   35   36  563    0
  562  563   36    0
  557  565  567    0
  564  566  565    0
  561  567  566    0
  565  566  567    0
   39   42  569    0
   35  568   42    0
  564  569  568    0
   42  568  569    0
  561  566  563    0
  564  568  566    0
   35  563  568    0
  566  568  563    0
  202  553  547    0
  551  570  553    0
  546  547  570    0
  553  570  547    0
  557  567  558    0
  561  571  567    0
  551  558  571    0
  567  571  558    0
   26  550  562    0
  546  572  550    0
  561  562  572    0
  550  572  562    0
  551  571  570    0
  561  572  571    0
  546  570  572    0
  571  572  570    0
  127  130  285    0
  123  573  130    0
  284  285  573    0
  130  573  285    0
  114  575  124    0
  574  576  575    0
  123  124  576    0
  575  576  124    0
  288  291  578    0
  284  577  291    0
  574  578  577    0
  291  577  578    0
  123  576  573    0
  574  577  576    0
  284  573  577    0
  576  577  573    0
  114  117  581    0
  110  580  117    0
  579  581  580    0
  117  580  581    0
   39  569  111    0
  564  582  569    0
  110  111  582    0
  569  582  111    0
  557  583  565    0
  579  584  583    0
  564  565  584    0
  583  584  565    0
  110  582  580    0
  564  584  582    0
  579  580  584    0
  582  584  580    0
  288  586  298    0
  585  587  586    0
  297  298  587    0
  586  587  298    0
  557  560  589    0
  554  588  560    0
  585  589  588    0
  560  588  589    0
  197  303  555    0
  297  590  303    0
  554  555  590    0
  303  590  555    0
  585  588  587    0
  554  590  588    0
  297  587  590    0
  588  590  587    0
  114  581  575    0
  579  591  581    0
  574  575  591    0
  581  591  575    0
  557  589  583    0
  585  592  589    0
  579  583  592    0
  589  592  583    0
  288  578  586    0
  574  593  578    0
  585  586  593    0
  578  593  586    0
  579  592  591    0
  585  593  592    0
  574  591  593    0
  592  593  591    0
   83   86  241    0
   79  594   86    0
  240  241  594    0
   86  594  241    0
   70  596   80    0
  595  597  596    0
   79   80  597    0
  596  597   80    0
  244  247  599    0
  240  598  247    0
  595  599  598    0
  247  598  599    0
   79  597  594    0
  595  598  597    0
  240  594  598    0
  597  598  594    0
   70   73  602    0
   66  601   73    0
  600  602  601    0
   73  601  602    0
   65  604   67    0
  603  605  604    0
   66   67  605    0
  604  605   67    0
  606  607  609    0
  600  608  607    0
  603  609  608    0
  607  608  609    0
   66  605  601    0
  603  608  605    0
  600  601  608    0
  605  608  601    0
  244  611  254    0
  610  612  611    0
  253  254  612    0
  611  612  254    0
  606  614  616    0
  613  615  614    0
  610  616  615    0
  614  615  616    0
  257  260  618    0
  253  617  260    0
  613  618  617    0
  260  617  618    0
  610  615  612    0
  613  617  615    0
  253  612  617    0
  615  617  612    0
   70  602  596    0
  600  619  602    0
  595  596  619    0
  602  619  596    0
  606  616  607    0
  610  620  616    0
  600  607  620    0
  616  620  607    0
  244  599  611    0
  595  621  599    0
  610  611  621    0
  599  621  611    0
  600  620  619    0
  610  621  620    0
  595  619  621    0
  620  621  619    0
  153  345  155    0
  339  622  345    0
  154  155  622    0
  345  622  155    0
  330  624  340    0
  623  625  624    0
  339  340  625    0
  624  625  340    0
  158  161  627    0
  154  626  161    0
  623  627  626    0
  161  626  627    0
  339  625  622    0
  623  626  625    0
  154  622  626    0
  625  626  622    0
  330  333  630    0
  326  629  333    0
  628  630  629    0
  333  629  630    0
  257  618  327    0
  613  631  618    0
  326  327  631    0
  618  631  327    0
  606  632  614    0
  628  633  632    0
  613  614  633    0
  632  633  614    0
  326  631  629    0
  613  633  631    0
  628  629  633    0
  631  633  629    0
  158  635  168    0
  634  636  635    0
  167  168  636    0
  635  636  168    0
  606  609  638    0
  603  637  609    0
  634  638  637    0
  609  637  638    0
   65  173  604    0
  167  639  173    0
  603  604  639    0
  173  639  604    0
  634  637  636    0
  603  639  637    0
  167  636  639    0
  637  639  636    0
  330  630  624    0
  628  640  630    0
  623  624  640    0
  630  640  624    0
  606  638  632    0
  634  641  638    0
  628  632  641    0
  638  641  632    0
  158  627  635    0
  623  642  627    0
  634  635  642    0
  627  642  635    0
  628  641  640    0
  634  642  641    0
  623  640  642    0
  641  642  640    0
End