MeshVersion
 1
Dimension
 3
Vertices
 26
                 -0.5                 -0.5                 -0.5     0
                  0.5                  0.5                 -0.5     0
                  0.5                 -0.5                 -0.5     0
                    0                    0                 -0.5     0
                  0.5                    0                 -0.5     0
                    0                 -0.5                 -0.5     0
                 -0.5                  0.5                 -0.5     0
                 -0.5                    0                 -0.5     0
                    0                  0.5                 -0.5     0
                  0.5                 -0.5                  0.5     0
                 -0.5                 -0.5                  0.5     0
                    0                 -0.5                    0     0
                    0                 -0.5                  0.5     0
                 -0.5                 -0.5                    0     0
                  0.5                 -0.5                    0     0
                  0.5                    0                    0     0
                  0.5                  0.5                  0.5     0
                  0.5                  0.5                    0     0
                  0.5                    0                  0.5     0
                    0                  0.5                    0     0
                 -0.5                  0.5                  0.5     0
                 -0.5                  0.5                    0     0
                    0                  0.5                  0.5     0
                 -0.5                    0                    0     0
                 -0.5                    0                  0.5     0
                    0                    0                  0.5     0
Triangles
 48
    1    4    6    0
    2    5    4    0
    3    6    5    0
    4    5    6    0
    1    8    4    0
    7    9    8    0
    2    4    9    0
    8    9    4    0
    1   12   14    0
   10   13   12    0
   11   14   13    0
   12   13   14    0
    1    6   12    0
    3   15    6    0
   10   12   15    0
    6   15   12    0
    3    5   15    0
    2   16    5    0
   10   15   16    0
    5   16   15    0
    2   18   16    0
   17   19   18    0
   10   16   19    0
   18   19   16    0
    2    9   18    0
    7   20    9    0
   17   18   20    0
    9   20   18    0
    7   22   20    0
   21   23   22    0
   17   20   23    0
   22   23   20    0
    7   24   22    0
   11   25   24    0
   21   22   25    0
   24   25   22    0
    7    8   24    0
    1   14    8    0
   11   24   14    0
    8   14   24    0
   11   26   25    0
   17   23   26    0
   21   25   23    0
   26   23   25    0
   11   13   26    0
   10   19   13    0
   17   26   19    0
   13   19   26    0
End