MeshVersion
 1
Dimension
 3
Vertices
 8
                 -0.5                 -0.5                 -0.5     0
                  0.5                 -0.5                 -0.5     0
                  0.5                  0.5                 -0.5     0
                 -0.5                  0.5                 -0.5     0
                 -0.5                 -0.5                  0.5     0
                  0.5                 -0.5                  0.5     0
                  0.5                  0.5                  0.5     0
                 -0.5                  0.5                  0.5     0
Triangles
 12
    1    3    2    0
    1    4    3    0
    1    6    5    0
    1    2    6    0
    2    3    6    0
    3    7    6    0
    3    4    7    0
    4    8    7    0
    4    5    8    0
    4    1    5    0
    5    7    8    0
    5    6    7    0
End