MeshVersion
 1
Dimension
 3
Vertices
 6
                    1                    0                    0     0
                    0                    1                    0     0
                    0                    0                    1     0
                   -1                    0                    0     0
                    0                   -1                    0     0
                    0                    0                   -1     0
Triangles
 8
     3     1     2     0
     3     2     4     0
     3     4     5     0
     3     5     1     0
     6     2     1     0
     6     4     2     0
     6     5     4     0
     6     1     5     0
End