MeshVersion
 1
Dimension
 3
Vertices
 42
   -0.525731112119134     0.85065080835204                    0     0
    -0.85065080835204                    0    0.525731112119134     0
                    0    0.525731112119134     0.85065080835204     0
   -0.809016994374947                  0.5    0.309016994374947     0
                 -0.5    0.309016994374947    0.809016994374947     0
   -0.309016994374947    0.809016994374947                  0.5     0
    0.525731112119134     0.85065080835204                    0     0
    0.309016994374947    0.809016994374947                  0.5     0
                    0                    1                    0     0
                    0    0.525731112119134    -0.85065080835204     0
    0.309016994374947    0.809016994374947                 -0.5     0
   -0.309016994374947    0.809016994374947                 -0.5     0
    -0.85065080835204                    0   -0.525731112119134     0
                 -0.5    0.309016994374947   -0.809016994374947     0
   -0.809016994374947                  0.5   -0.309016994374947     0
                   -1                    0                    0     0
                    0   -0.525731112119134     0.85065080835204     0
                 -0.5   -0.309016994374947    0.809016994374947     0
                    0                    0                    1     0
     0.85065080835204                    0    0.525731112119134     0
                  0.5    0.309016994374947    0.809016994374947     0
    0.809016994374947                  0.5    0.309016994374947     0
     0.85065080835204                    0   -0.525731112119134     0
    0.809016994374947                  0.5   -0.309016994374947     0
                  0.5    0.309016994374947   -0.809016994374947     0
                    0   -0.525731112119134    -0.85065080835204     0
                    0                    0                   -1     0
                 -0.5   -0.309016994374947   -0.809016994374947     0
   -0.525731112119134    -0.85065080835204                    0     0
   -0.809016994374947                 -0.5   -0.309016994374947     0
   -0.809016994374947                 -0.5    0.309016994374947     0
   -0.309016994374947   -0.809016994374947                  0.5     0
                  0.5   -0.309016994374947    0.809016994374947     0
                    1                    0                    0     0
                  0.5   -0.309016994374947   -0.809016994374947     0
   -0.309016994374947   -0.809016994374947                 -0.5     0
    0.525731112119134    -0.85065080835204                    0     0
    0.309016994374947   -0.809016994374947                  0.5     0
                    0                   -1                    0     0
    0.809016994374947                 -0.5    0.309016994374947     0
    0.809016994374947                 -0.5   -0.309016994374947     0
    0.309016994374947   -0.809016994374947                 -0.5     0
Triangles
 80
     1     4     6     0
     2     5     4     0
     3     6     5     0
     4     5     6     0
     1     6     9     0
     3     8     6     0
     7     9     8     0
     6     8     9     0
     1     9    12     0
     7    11     9     0
    10    12    11     0
     9    11    12     0
     1    12    15     0
    10    14    12     0
    13    15    14     0
    12    14    15     0
     1    15     4     0
    13    16    15     0
     2     4    16     0
    15    16     4     0
     3     5    19     0
     2    18     5     0
    17    19    18     0
     5    18    19     0
     7     8    22     0
     3    21     8     0
    20    22    21     0
     8    21    22     0
    10    11    25     0
     7    24    11     0
    23    25    24     0
    11    24    25     0
    13    14    28     0
    10    27    14     0
    26    28    27     0
    14    27    28     0
     2    16    31     0
    13    30    16     0
    29    31    30     0
    16    30    31     0
    29    32    31     0
    17    18    32     0
     2    31    18     0
    32    18    31     0
    17    33    19     0
    20    21    33     0
     3    19    21     0
    33    21    19     0
    20    34    22     0
    23    24    34     0
     7    22    24     0
    34    24    22     0
    23    35    25     0
    26    27    35     0
    10    25    27     0
    35    27    25     0
    26    36    28     0
    29    30    36     0
    13    28    30     0
    36    30    28     0
    37    38    39     0
    17    32    38     0
    29    39    32     0
    38    32    39     0
    37    40    38     0
    20    33    40     0
    17    38    33     0
    40    33    38     0
    37    41    40     0
    23    34    41     0
    20    40    34     0
    41    34    40     0
    37    42    41     0
    26    35    42     0
    23    41    35     0
    42    35    41     0
    37    39    42     0
    29    36    39     0
    26    42    36     0
    39    36    42     0
End