MeshVersion
 1
Dimension
 3
Vertices
 18
                    0                    0                    1     0
                    1                    0                    0     0
                    0                    1                    0     0
    0.707106781186547                    0    0.707106781186547     0
    0.707106781186547    0.707106781186547                    0     0
                    0    0.707106781186547    0.707106781186547     0
                   -1                    0                    0     0
   -0.707106781186547    0.707106781186547                    0     0
   -0.707106781186547                    0    0.707106781186547     0
                    0                   -1                    0     0
   -0.707106781186547   -0.707106781186547                    0     0
                    0   -0.707106781186547    0.707106781186547     0
    0.707106781186547   -0.707106781186547                    0     0
                    0                    0                   -1     0
                    0    0.707106781186547   -0.707106781186547     0
    0.707106781186547                    0   -0.707106781186547     0
   -0.707106781186547                    0   -0.707106781186547     0
                    0   -0.707106781186547   -0.707106781186547     0
Triangles
 32
     1     4     6     0
     2     5     4     0
     3     6     5     0
     4     5     6     0
     1     6     9     0
     3     8     6     0
     7     9     8     0
     6     8     9     0
     1     9    12     0
     7    11     9     0
    10    12    11     0
     9    11    12     0
     1    12     4     0
    10    13    12     0
     2     4    13     0
    12    13     4     0
    14    15    16     0
     3     5    15     0
     2    16     5     0
    15     5    16     0
    14    17    15     0
     7     8    17     0
     3    15     8     0
    17     8    15     0
    14    18    17     0
    10    11    18     0
     7    17    11     0
    18    11    17     0
    14    16    18     0
     2    13    16     0
    10    18    13     0
    16    13    18     0
End