MeshVersion
 1
Dimension
 3
Vertices
 34
    0.577350269189626    0.577350269189626    0.577350269189626     0
                    1                    0                    0     0
                    0                    1                    0     0
    0.888073833977115    0.325057583671868    0.325057583671868     0
    0.707106781186547    0.707106781186547                    0     0
    0.325057583671868    0.888073833977115    0.325057583671868     0
    0.577350269189626   -0.577350269189626   -0.577350269189626     0
                    0                    0                   -1     0
    0.325057583671868   -0.325057583671868   -0.888073833977115     0
    0.707106781186547                    0   -0.707106781186547     0
    0.888073833977115   -0.325057583671868   -0.325057583671868     0
   -0.577350269189626    0.577350269189626   -0.577350269189626     0
   -0.325057583671868    0.888073833977115   -0.325057583671868     0
                    0    0.707106781186547   -0.707106781186547     0
   -0.325057583671868    0.325057583671868   -0.888073833977115     0
   -0.577350269189626   -0.577350269189626    0.577350269189626     0
                    0                   -1                    0     0
                    0                    0                    1     0
   -0.325057583671868   -0.888073833977115    0.325057583671868     0
                    0   -0.707106781186547    0.707106781186547     0
   -0.325057583671868   -0.325057583671868    0.888073833977115     0
    0.707106781186547   -0.707106781186547                    0     0
    0.325057583671868   -0.888073833977115   -0.325057583671868     0
    0.325057583671868    0.325057583671868    0.888073833977115     0
    0.707106781186547                    0    0.707106781186547     0
                    0    0.707106781186547    0.707106781186547     0
                   -1                    0                    0     0
   -0.888073833977115    0.325057583671868   -0.325057583671868     0
   -0.707106781186547    0.707106781186547                    0     0
   -0.707106781186547                    0    0.707106781186547     0
   -0.888073833977115   -0.325057583671868    0.325057583671868     0
   -0.707106781186547   -0.707106781186547                    0     0
   -0.707106781186547                    0   -0.707106781186547     0
                    0   -0.707106781186547   -0.707106781186547     0
Triangles
 64
     1     4     6     0
     2     5     4     0
     3     6     5     0
     4     5     6     0
     7     9    11     0
     8    10     9     0
     2    11    10     0
     9    10    11     0
    12    13    15     0
     3    14    13     0
     8    15    14     0
    13    14    15     0
     2    10     5     0
     8    14    10     0
     3     5    14     0
    10    14     5     0
    16    19    21     0
    17    20    19     0
    18    21    20     0
    19    20    21     0
     7    11    23     0
     2    22    11     0
    17    23    22     0
    11    22    23     0
     1    24     4     0
    18    25    24     0
     2     4    25     0
    24    25     4     0
    17    22    20     0
     2    25    22     0
    18    20    25     0
    22    25    20     0
     1     6    24     0
     3    26     6     0
    18    24    26     0
     6    26    24     0
    12    28    13     0
    27    29    28     0
     3    13    29     0
    28    29    13     0
    16    21    31     0
    18    30    21     0
    27    31    30     0
    21    30    31     0
     3    29    26     0
    27    30    29     0
    18    26    30     0
    29    30    26     0
    16    31    19     0
    27    32    31     0
    17    19    32     0
    31    32    19     0
    12    15    28     0
     8    33    15     0
    27    28    33     0
    15    33    28     0
     7    23     9     0
    17    34    23     0
     8     9    34     0
    23    34     9     0
    27    33    32     0
     8    34    33     0
    17    32    34     0
    33    34    32     0
End