MeshVersion
 1
Dimension
 3
Vertices
 66
                    0                    0                    1     0
    0.707106781186547                    0    0.707106781186547     0
                    0    0.707106781186547    0.707106781186547     0
     0.38268343236509                    0    0.923879532511287     0
    0.408248290463863    0.408248290463863    0.816496580927726     0
                    0     0.38268343236509    0.923879532511287     0
                    1                    0                    0     0
    0.707106781186547    0.707106781186547                    0     0
    0.923879532511287     0.38268343236509                    0     0
    0.816496580927726    0.408248290463863    0.408248290463863     0
    0.923879532511287                    0     0.38268343236509     0
                    0                    1                    0     0
                    0    0.923879532511287     0.38268343236509     0
    0.408248290463863    0.816496580927726    0.408248290463863     0
     0.38268343236509    0.923879532511287                    0     0
   -0.707106781186547                    0    0.707106781186547     0
   -0.408248290463863    0.408248290463863    0.816496580927726     0
    -0.38268343236509                    0    0.923879532511287     0
   -0.707106781186547    0.707106781186547                    0     0
    -0.38268343236509    0.923879532511287                    0     0
   -0.408248290463863    0.816496580927726    0.408248290463863     0
                   -1                    0                    0     0
   -0.923879532511287                    0     0.38268343236509     0
   -0.816496580927726    0.408248290463863    0.408248290463863     0
   -0.923879532511287     0.38268343236509                    0     0
                    0   -0.707106781186547    0.707106781186547     0
   -0.408248290463863   -0.408248290463863    0.816496580927726     0
                    0    -0.38268343236509    0.923879532511287     0
   -0.707106781186547   -0.707106781186547                    0     0
   -0.923879532511287    -0.38268343236509                    0     0
   -0.816496580927726   -0.408248290463863    0.408248290463863     0
                    0                   -1                    0     0
                    0   -0.923879532511287     0.38268343236509     0
   -0.408248290463863   -0.816496580927726    0.408248290463863     0
    -0.38268343236509   -0.923879532511287                    0     0
    0.408248290463863   -0.408248290463863    0.816496580927726     0
    0.707106781186547   -0.707106781186547                    0     0
     0.38268343236509   -0.923879532511287                    0     0
    0.408248290463863   -0.816496580927726    0.408248290463863     0
    0.816496580927726   -0.408248290463863    0.408248290463863     0
    0.923879532511287    -0.38268343236509                    0     0
                    0                    0                   -1     0
                    0    0.707106781186547   -0.707106781186547     0
    0.707106781186547                    0   -0.707106781186547     0
                    0     0.38268343236509   -0.923879532511287     0
    0.408248290463863    0.408248290463863   -0.816496580927726     0
     0.38268343236509                    0   -0.923879532511287     0
    0.408248290463863    0.816496580927726   -0.408248290463863     0
                    0    0.923879532511287    -0.38268343236509     0
    0.923879532511287                    0    -0.38268343236509     0
    0.816496580927726    0.408248290463863   -0.408248290463863     0
   -0.707106781186547                    0   -0.707106781186547     0
    -0.38268343236509                    0   -0.923879532511287     0
   -0.408248290463863    0.408248290463863   -0.816496580927726     0
   -0.816496580927726    0.408248290463863   -0.408248290463863     0
   -0.923879532511287                    0    -0.38268343236509     0
   -0.408248290463863    0.816496580927726   -0.408248290463863     0
                    0   -0.707106781186547   -0.707106781186547     0
                    0    -0.38268343236509   -0.923879532511287     0
   -0.408248290463863   -0.408248290463863   -0.816496580927726     0
   -0.408248290463863   -0.816496580927726   -0.408248290463863     0
                    0   -0.923879532511287    -0.38268343236509     0
   -0.816496580927726   -0.408248290463863   -0.408248290463863     0
    0.408248290463863   -0.408248290463863   -0.816496580927726     0
    0.816496580927726   -0.408248290463863   -0.408248290463863     0
    0.408248290463863   -0.816496580927726   -0.408248290463863     0
Triangles
 128
     1     4     6     0
     2     5     4     0
     3     6     5     0
     4     5     6     0
     7     9    11     0
     8    10     9     0
     2    11    10     0
     9    10    11     0
    12    13    15     0
     3    14    13     0
     8    15    14     0
    13    14    15     0
     2    10     5     0
     8    14    10     0
     3     5    14     0
    10    14     5     0
     1     6    18     0
     3    17     6     0
    16    18    17     0
     6    17    18     0
    12    20    13     0
    19    21    20     0
     3    13    21     0
    20    21    13     0
    22    23    25     0
    16    24    23     0
    19    25    24     0
    23    24    25     0
     3    21    17     0
    19    24    21     0
    16    17    24     0
    21    24    17     0
     1    18    28     0
    16    27    18     0
    26    28    27     0
    18    27    28     0
    22    30    23     0
    29    31    30     0
    16    23    31     0
    30    31    23     0
    32    33    35     0
    26    34    33     0
    29    35    34     0
    33    34    35     0
    16    31    27     0
    29    34    31     0
    26    27    34     0
    31    34    27     0
     1    28     4     0
    26    36    28     0
     2     4    36     0
    28    36     4     0
    32    38    33     0
    37    39    38     0
    26    33    39     0
    38    39    33     0
     7    11    41     0
     2    40    11     0
    37    41    40     0
    11    40    41     0
    26    39    36     0
    37    40    39     0
     2    36    40     0
    39    40    36     0
    42    45    47     0
    43    46    45     0
    44    47    46     0
    45    46    47     0
    12    15    49     0
     8    48    15     0
    43    49    48     0
    15    48    49     0
     7    50     9     0
    44    51    50     0
     8     9    51     0
    50    51     9     0
    43    48    46     0
     8    51    48     0
    44    46    51     0
    48    51    46     0
    42    53    45     0
    52    54    53     0
    43    45    54     0
    53    54    45     0
    22    25    56     0
    19    55    25     0
    52    56    55     0
    25    55    56     0
    12    49    20     0
    43    57    49     0
    19    20    57     0
    49    57    20     0
    52    55    54     0
    19    57    55     0
    43    54    57     0
    55    57    54     0
    42    59    53     0
    58    60    59     0
    52    53    60     0
    59    60    53     0
    32    35    62     0
    29    61    35     0
    58    62    61     0
    35    61    62     0
    22    56    30     0
    52    63    56     0
    29    30    63     0
    56    63    30     0
    58    61    60     0
    29    63    61     0
    52    60    63     0
    61    63    60     0
    42    47    59     0
    44    64    47     0
    58    59    64     0
    47    64    59     0
     7    41    50     0
    37    65    41     0
    44    50    65     0
    41    65    50     0
    32    62    38     0
    58    66    62     0
    37    38    66     0
    62    66    38     0
    44    65    64     0
    37    66    65     0
    58    64    66     0
    65    66    64     0
End