MeshVersion
 1
Dimension
 3
Vertices
 130
    0.577350269189626    0.577350269189626    0.577350269189626     0
    0.888073833977115    0.325057583671868    0.325057583671868     0
    0.325057583671868    0.888073833977115    0.325057583671868     0
      0.7541171991928    0.464385211802447    0.464385211802447     0
    0.661224832946645    0.661224832946645    0.354349320006915     0
    0.464385211802447      0.7541171991928    0.464385211802447     0
                    1                    0                    0     0
    0.707106781186547    0.707106781186547                    0     0
    0.923879532511287     0.38268343236509                    0     0
    0.827549182492217    0.535467124046354    0.168633655069179     0
    0.971615622038138    0.167276840912665    0.167276840912665     0
                    0                    1                    0     0
    0.167276840912665    0.971615622038138    0.167276840912665     0
    0.535467124046354    0.827549182492217    0.168633655069179     0
     0.38268343236509    0.923879532511287                    0     0
    0.577350269189626   -0.577350269189626   -0.577350269189626     0
    0.325057583671868   -0.325057583671868   -0.888073833977115     0
    0.888073833977115   -0.325057583671868   -0.325057583671868     0
    0.464385211802447   -0.464385211802447     -0.7541171991928     0
    0.661224832946645   -0.354349320006915   -0.661224832946645     0
      0.7541171991928   -0.464385211802447   -0.464385211802447     0
                    0                    0                   -1     0
    0.707106781186547                    0   -0.707106781186547     0
     0.38268343236509                    0   -0.923879532511287     0
    0.535467124046354   -0.168633655069179   -0.827549182492217     0
    0.167276840912665   -0.167276840912665   -0.971615622038138     0
    0.971615622038138   -0.167276840912665   -0.167276840912665     0
    0.827549182492217   -0.168633655069179   -0.535467124046354     0
    0.923879532511287                    0    -0.38268343236509     0
   -0.577350269189626    0.577350269189626   -0.577350269189626     0
   -0.325057583671868    0.888073833977115   -0.325057583671868     0
   -0.325057583671868    0.325057583671868   -0.888073833977115     0
   -0.464385211802447      0.7541171991928   -0.464385211802447     0
   -0.354349320006915    0.661224832946645   -0.661224832946645     0
   -0.464385211802447    0.464385211802447     -0.7541171991928     0
                    0    0.707106781186547   -0.707106781186547     0
                    0    0.923879532511287    -0.38268343236509     0
   -0.168633655069179    0.827549182492217   -0.535467124046354     0
   -0.167276840912665    0.971615622038138   -0.167276840912665     0
   -0.167276840912665    0.167276840912665   -0.971615622038138     0
   -0.168633655069179    0.535467124046354   -0.827549182492217     0
                    0     0.38268343236509   -0.923879532511287     0
    0.816496580927726    0.408248290463863   -0.408248290463863     0
    0.408248290463863    0.408248290463863   -0.816496580927726     0
    0.408248290463863    0.816496580927726   -0.408248290463863     0
   -0.577350269189626   -0.577350269189626    0.577350269189626     0
   -0.325057583671868   -0.888073833977115    0.325057583671868     0
   -0.325057583671868   -0.325057583671868    0.888073833977115     0
   -0.464385211802447     -0.7541171991928    0.464385211802447     0
   -0.354349320006915   -0.661224832946645    0.661224832946645     0
   -0.464385211802447   -0.464385211802447      0.7541171991928     0
                    0                   -1                    0     0
                    0   -0.707106781186547    0.707106781186547     0
                    0   -0.923879532511287     0.38268343236509     0
   -0.168633655069179   -0.827549182492217    0.535467124046354     0
   -0.167276840912665   -0.971615622038138    0.167276840912665     0
                    0                    0                    1     0
   -0.167276840912665   -0.167276840912665    0.971615622038138     0
   -0.168633655069179   -0.535467124046354    0.827549182492217     0
                    0    -0.38268343236509    0.923879532511287     0
    0.325057583671868   -0.888073833977115   -0.325057583671868     0
    0.661224832946645   -0.661224832946645   -0.354349320006915     0
    0.464385211802447     -0.7541171991928   -0.464385211802447     0
    0.707106781186547   -0.707106781186547                    0     0
    0.923879532511287    -0.38268343236509                    0     0
    0.827549182492217   -0.535467124046354   -0.168633655069179     0
    0.167276840912665   -0.971615622038138   -0.167276840912665     0
    0.535467124046354   -0.827549182492217   -0.168633655069179     0
     0.38268343236509   -0.923879532511287                    0     0
    0.325057583671868    0.325057583671868    0.888073833977115     0
    0.464385211802447    0.464385211802447      0.7541171991928     0
    0.661224832946645    0.354349320006915    0.661224832946645     0
    0.707106781186547                    0    0.707106781186547     0
     0.38268343236509                    0    0.923879532511287     0
    0.535467124046354    0.168633655069179    0.827549182492217     0
    0.167276840912665    0.167276840912665    0.971615622038138     0
    0.827549182492217    0.168633655069179    0.535467124046354     0
    0.923879532511287                    0     0.38268343236509     0
    0.408248290463863   -0.816496580927726    0.408248290463863     0
    0.816496580927726   -0.408248290463863    0.408248290463863     0
    0.408248290463863   -0.408248290463863    0.816496580927726     0
    0.354349320006915    0.661224832946645    0.661224832946645     0
                    0    0.707106781186547    0.707106781186547     0
                    0    0.923879532511287     0.38268343236509     0
    0.168633655069179    0.827549182492217    0.535467124046354     0
    0.168633655069179    0.535467124046354    0.827549182492217     0
                    0     0.38268343236509    0.923879532511287     0
   -0.888073833977115    0.325057583671868   -0.325057583671868     0
     -0.7541171991928    0.464385211802447   -0.464385211802447     0
   -0.661224832946645    0.661224832946645   -0.354349320006915     0
                   -1                    0                    0     0
   -0.707106781186547    0.707106781186547                    0     0
   -0.923879532511287     0.38268343236509                    0     0
   -0.827549182492217    0.535467124046354   -0.168633655069179     0
   -0.971615622038138    0.167276840912665   -0.167276840912665     0
   -0.535467124046354    0.827549182492217   -0.168633655069179     0
    -0.38268343236509    0.923879532511287                    0     0
   -0.888073833977115   -0.325057583671868    0.325057583671868     0
   -0.661224832946645   -0.354349320006915    0.661224832946645     0
     -0.7541171991928   -0.464385211802447    0.464385211802447     0
   -0.707106781186547                    0    0.707106781186547     0
    -0.38268343236509                    0    0.923879532511287     0
   -0.535467124046354   -0.168633655069179    0.827549182492217     0
   -0.971615622038138   -0.167276840912665    0.167276840912665     0
   -0.827549182492217   -0.168633655069179    0.535467124046354     0
   -0.923879532511287                    0     0.38268343236509     0
   -0.408248290463863    0.816496580927726    0.408248290463863     0
   -0.816496580927726    0.408248290463863    0.408248290463863     0
   -0.408248290463863    0.408248290463863    0.816496580927726     0
   -0.661224832946645   -0.661224832946645    0.354349320006915     0
   -0.707106781186547   -0.707106781186547                    0     0
   -0.923879532511287    -0.38268343236509                    0     0
   -0.827549182492217   -0.535467124046354    0.168633655069179     0
   -0.535467124046354   -0.827549182492217    0.168633655069179     0
    -0.38268343236509   -0.923879532511287                    0     0
   -0.661224832946645    0.354349320006915   -0.661224832946645     0
   -0.707106781186547                    0   -0.707106781186547     0
    -0.38268343236509                    0   -0.923879532511287     0
   -0.535467124046354    0.168633655069179   -0.827549182492217     0
   -0.827549182492217    0.168633655069179   -0.535467124046354     0
   -0.923879532511287                    0    -0.38268343236509     0
    0.354349320006915   -0.661224832946645   -0.661224832946645     0
                    0   -0.707106781186547   -0.707106781186547     0
                    0   -0.923879532511287    -0.38268343236509     0
    0.168633655069179   -0.827549182492217   -0.535467124046354     0
    0.168633655069179   -0.535467124046354   -0.827549182492217     0
                    0    -0.38268343236509   -0.923879532511287     0
   -0.816496580927726   -0.408248290463863   -0.408248290463863     0
   -0.408248290463863   -0.408248290463863   -0.816496580927726     0
   -0.408248290463863   -0.816496580927726   -0.408248290463863     0
Triangles
 256
     1     4     6     0
     2     5     4     0
     3     6     5     0
     4     5     6     0
     7     9    11     0
     8    10     9     0
     2    11    10     0
     9    10    11     0
    12    13    15     0
     3    14    13     0
     8    15    14     0
    13    14    15     0
     2    10     5     0
     8    14    10     0
     3     5    14     0
    10    14     5     0
    16    19    21     0
    17    20    19     0
    18    21    20     0
    19    20    21     0
    22    24    26     0
    23    25    24     0
    17    26    25     0
    24    25    26     0
     7    27    29     0
    18    28    27     0
    23    29    28     0
    27    28    29     0
    17    25    20     0
    23    28    25     0
    18    20    28     0
    25    28    20     0
    30    33    35     0
    31    34    33     0
    32    35    34     0
    33    34    35     0
    12    37    39     0
    36    38    37     0
    31    39    38     0
    37    38    39     0
    22    40    42     0
    32    41    40     0
    36    42    41     0
    40    41    42     0
    31    38    34     0
    36    41    38     0
    32    34    41     0
    38    41    34     0
     7    29     9     0
    23    43    29     0
     8     9    43     0
    29    43     9     0
    22    42    24     0
    36    44    42     0
    23    24    44     0
    42    44    24     0
    12    15    37     0
     8    45    15     0
    36    37    45     0
    15    45    37     0
    23    44    43     0
    36    45    44     0
     8    43    45     0
    44    45    43     0
    46    49    51     0
    47    50    49     0
    48    51    50     0
    49    50    51     0
    52    54    56     0
    53    55    54     0
    47    56    55     0
    54    55    56     0
    57    58    60     0
    48    59    58     0
    53    60    59     0
    58    59    60     0
    47    55    50     0
    53    59    55     0
    48    50    59     0
    55    59    50     0
    16    21    63     0
    18    62    21     0
    61    63    62     0
    21    62    63     0
     7    65    27     0
    64    66    65     0
    18    27    66     0
    65    66    27     0
    52    67    69     0
    61    68    67     0
    64    69    68     0
    67    68    69     0
    18    66    62     0
    64    68    66     0
    61    62    68     0
    66    68    62     0
     1    71     4     0
    70    72    71     0
     2     4    72     0
    71    72     4     0
    57    74    76     0
    73    75    74     0
    70    76    75     0
    74    75    76     0
     7    11    78     0
     2    77    11     0
    73    78    77     0
    11    77    78     0
    70    75    72     0
    73    77    75     0
     2    72    77     0
    75    77    72     0
    52    69    54     0
    64    79    69     0
    53    54    79     0
    69    79    54     0
     7    78    65     0
    73    80    78     0
    64    65    80     0
    78    80    65     0
    57    60    74     0
    53    81    60     0
    73    74    81     0
    60    81    74     0
    64    80    79     0
    73    81    80     0
    53    79    81     0
    80    81    79     0
     1     6    71     0
     3    82     6     0
    70    71    82     0
     6    82    71     0
    12    84    13     0
    83    85    84     0
     3    13    85     0
    84    85    13     0
    57    76    87     0
    70    86    76     0
    83    87    86     0
    76    86    87     0
     3    85    82     0
    83    86    85     0
    70    82    86     0
    85    86    82     0
    30    89    33     0
    88    90    89     0
    31    33    90     0
    89    90    33     0
    91    93    95     0
    92    94    93     0
    88    95    94     0
    93    94    95     0
    12    39    97     0
    31    96    39     0
    92    97    96     0
    39    96    97     0
    88    94    90     0
    92    96    94     0
    31    90    96     0
    94    96    90     0
    46    51   100     0
    48    99    51     0
    98   100    99     0
    51    99   100     0
    57   102    58     0
   101   103   102     0
    48    58   103     0
   102   103    58     0
    91   104   106     0
    98   105   104     0
   101   106   105     0
   104   105   106     0
    48   103    99     0
   101   105   103     0
    98    99   105     0
   103   105    99     0
    12    97    84     0
    92   107    97     0
    83    84   107     0
    97   107    84     0
    91   106    93     0
   101   108   106     0
    92    93   108     0
   106   108    93     0
    57    87   102     0
    83   109    87     0
   101   102   109     0
    87   109   102     0
    92   108   107     0
   101   109   108     0
    83   107   109     0
   108   109   107     0
    46   100    49     0
    98   110   100     0
    47    49   110     0
   100   110    49     0
    91   112   104     0
   111   113   112     0
    98   104   113     0
   112   113   104     0
    52    56   115     0
    47   114    56     0
   111   115   114     0
    56   114   115     0
    98   113   110     0
   111   114   113     0
    47   110   114     0
   113   114   110     0
    30    35    89     0
    32   116    35     0
    88    89   116     0
    35   116    89     0
    22   118    40     0
   117   119   118     0
    32    40   119     0
   118   119    40     0
    91    95   121     0
    88   120    95     0
   117   121   120     0
    95   120   121     0
    32   119   116     0
   117   120   119     0
    88   116   120     0
   119   120   116     0
    16    63    19     0
    61   122    63     0
    17    19   122     0
    63   122    19     0
    52   124    67     0
   123   125   124     0
    61    67   125     0
   124   125    67     0
    22    26   127     0
    17   126    26     0
   123   127   126     0
    26   126   127     0
    61   125   122     0
   123   126   125     0
    17   122   126     0
   125   126   122     0
    91   121   112     0
   117   128   121     0
   111   112   128     0
   121   128   112     0
    22   127   118     0
   123   129   127     0
   117   118   129     0
   127   129   118     0
    52   115   124     0
   111   130   115     0
   123   124   130     0
   115   130   124     0
   117   129   128     0
   123   130   129     0
   111   128   130     0
   129   130   128     0
End