MeshVersion
 1
Dimension
 3
Vertices
 12
   -0.525731112119134     0.85065080835204                    0     0
    0.525731112119134     0.85065080835204                    0     0
   -0.525731112119134    -0.85065080835204                    0     0
    0.525731112119134    -0.85065080835204                    0     0
                    0   -0.525731112119134     0.85065080835204     0
                    0    0.525731112119134     0.85065080835204     0
                    0   -0.525731112119134    -0.85065080835204     0
                    0    0.525731112119134    -0.85065080835204     0
     0.85065080835204                    0   -0.525731112119134     0
     0.85065080835204                    0    0.525731112119134     0
    -0.85065080835204                    0   -0.525731112119134     0
    -0.85065080835204                    0    0.525731112119134     0
Triangles
 20
     1    12     6     0
     1     6     2     0
     1     2     8     0
     1     8    11     0
     1    11    12     0
     6    12     5     0
     2     6    10     0
     8     2     9     0
    11     8     7     0
    12    11     3     0
     3     5    12     0
     5    10     6     0
    10     9     2     0
     9     7     8     0
     7     3    11     0
     4     5     3     0
     4    10     5     0
     4     9    10     0
     4     7     9     0
     4     3     7     0
End