MeshVersion
 1
Dimension
 3
Vertices
 642
   -0.525731112119134     0.85065080835204                    0     0
   -0.693780477560449    0.702046444776163    0.160622035640023     0
   -0.433888564552695    0.862668480416186    0.259891913007754     0
   -0.615642020873681    0.783843042419971   0.0810862934433035     0
   -0.571251659135709    0.792649229259281     0.21302286564913     0
   -0.484441642060668    0.864929335863275    0.131200378813013     0
   -0.809016994374947                  0.5    0.309016994374947     0
   -0.587785252292473    0.688190960235587     0.42532540417602     0
   -0.707106781186547    0.601500955007546    0.371748034460185     0
   -0.647411893882224    0.702309846743374    0.296004592577769     0
   -0.758652300163257    0.606825149271814    0.237086325350576     0
   -0.309016994374947    0.809016994374947                  0.5     0
    -0.37503856747821     0.84391147462239    0.383613732685048     0
   -0.516121620051061    0.783451698363313    0.346153014788992     0
   -0.453990499739547    0.757935420047777    0.468429850866954     0
    -0.85065080835204                    0    0.525731112119134     0
   -0.702046444776163    0.160622035640023    0.693780477560449     0
   -0.862668480416186    0.259891913007754    0.433888564552695     0
   -0.783843042419971   0.0810862934433035    0.615642020873681     0
   -0.792649229259281     0.21302286564913    0.571251659135709     0
   -0.864929335863275    0.131200378813013    0.484441642060668     0
                 -0.5    0.309016994374947    0.809016994374947     0
   -0.688190960235587     0.42532540417602    0.587785252292473     0
   -0.601500955007546    0.371748034460185    0.707106781186547     0
   -0.702309846743374    0.296004592577769    0.647411893882224     0
   -0.606825149271814    0.237086325350576    0.758652300163257     0
    -0.84391147462239    0.383613732685048     0.37503856747821     0
   -0.783451698363313    0.346153014788992    0.516121620051061     0
   -0.757935420047777    0.468429850866954    0.453990499739547     0
                    0    0.525731112119134     0.85065080835204     0
   -0.160622035640023    0.693780477560449    0.702046444776163     0
   -0.259891913007754    0.433888564552695    0.862668480416186     0
  -0.0810862934433035    0.615642020873681    0.783843042419971     0
    -0.21302286564913    0.571251659135709    0.792649229259281     0
   -0.131200378813013    0.484441642060668    0.864929335863275     0
    -0.42532540417602    0.587785252292473    0.688190960235587     0
   -0.371748034460185    0.707106781186547    0.601500955007546     0
   -0.296004592577769    0.647411893882224    0.702309846743374     0
   -0.237086325350576    0.758652300163257    0.606825149271814     0
   -0.383613732685048     0.37503856747821     0.84391147462239     0
   -0.346153014788992    0.516121620051061    0.783451698363313     0
   -0.468429850866954    0.453990499739547    0.757935420047777     0
   -0.646577791797732    0.564254211765772    0.513375441230448     0
   -0.564254211765772    0.513375441230448    0.646577791797732     0
   -0.513375441230448    0.646577791797732    0.564254211765772     0
   -0.273266528912672    0.961938357783917                    0     0
   -0.358228793486579    0.924304600611346    0.131655371352065     0
   -0.403355348617364    0.915043421232984                    0     0
   -0.162459848116453    0.951056516295154    0.262865556059567     0
   -0.238676930319593    0.891006524188368    0.386187385587592     0
   -0.301258879093232    0.916244175191216    0.264082750659066     0
                    0                    1                    0     0
   -0.137952242127634    0.990438881956862                    0     0
   -0.220117027473292    0.966392597402439    0.132792476827902     0
  -0.0822424652793623    0.987688340595138    0.133071104140591     0
    0.160622035640023    0.693780477560449    0.702046444776163     0
   0.0810862934433035    0.615642020873681    0.783843042419971     0
                    0    0.702907030487773    0.711281734962216     0
    0.309016994374947    0.809016994374947                  0.5     0
                    0     0.85065080835204    0.525731112119134     0
    0.156434465040231    0.840177885327139    0.519258489728183     0
   0.0811418516199396    0.780204370710127    0.620239582613447     0
    0.237086325350576    0.758652300163257    0.606825149271814     0
  -0.0811418516199396    0.780204370710127    0.620239582613447     0
   -0.156434465040231    0.840177885327139    0.519258489728183     0
    0.525731112119134     0.85065080835204                    0     0
    0.273266528912672    0.961938357783917                    0     0
    0.433888564552695    0.862668480416186    0.259891913007754     0
    0.403355348617364    0.915043421232984                    0     0
    0.358228793486579    0.924304600611346    0.131655371352065     0
    0.484441642060668    0.864929335863275    0.131200378813013     0
    0.162459848116453    0.951056516295154    0.262865556059567     0
   0.0822424652793623    0.987688340595138    0.133071104140591     0
    0.220117027473292    0.966392597402439    0.132792476827902     0
    0.137952242127634    0.990438881956862                    0     0
     0.37503856747821     0.84391147462239    0.383613732685048     0
    0.301258879093232    0.916244175191216    0.264082750659066     0
    0.238676930319593    0.891006524188368    0.386187385587592     0
  -0.0823235800319602    0.912982492932299    0.399607051701851     0
   0.0823235800319602    0.912982492932299    0.399607051701851     0
                    0    0.963861263467623    0.266404701134567     0
   -0.433888564552695    0.862668480416186   -0.259891913007754     0
   -0.358228793486579    0.924304600611346   -0.131655371352065     0
   -0.484441642060668    0.864929335863275   -0.131200378813013     0
   -0.162459848116453    0.951056516295154   -0.262865556059567     0
  -0.0822424652793623    0.987688340595138   -0.133071104140591     0
   -0.220117027473292    0.966392597402439   -0.132792476827902     0
   -0.309016994374947    0.809016994374947                 -0.5     0
    -0.37503856747821     0.84391147462239   -0.383613732685048     0
   -0.301258879093232    0.916244175191216   -0.264082750659066     0
   -0.238676930319593    0.891006524188368   -0.386187385587592     0
    0.433888564552695    0.862668480416186   -0.259891913007754     0
    0.484441642060668    0.864929335863275   -0.131200378813013     0
    0.358228793486579    0.924304600611346   -0.131655371352065     0
    0.309016994374947    0.809016994374947                 -0.5     0
    0.162459848116453    0.951056516295154   -0.262865556059567     0
    0.238676930319593    0.891006524188368   -0.386187385587592     0
    0.301258879093232    0.916244175191216   -0.264082750659066     0
     0.37503856747821     0.84391147462239   -0.383613732685048     0
    0.220117027473292    0.966392597402439   -0.132792476827902     0
   0.0822424652793623    0.987688340595138   -0.133071104140591     0
                    0    0.525731112119134    -0.85065080835204     0
   -0.160622035640023    0.693780477560449   -0.702046444776163     0
    0.160622035640023    0.693780477560449   -0.702046444776163     0
  -0.0810862934433035    0.615642020873681   -0.783843042419971     0
                    0    0.702907030487773   -0.711281734962216     0
   0.0810862934433035    0.615642020873681   -0.783843042419971     0
                    0     0.85065080835204   -0.525731112119134     0
   -0.156434465040231    0.840177885327139   -0.519258489728183     0
  -0.0811418516199396    0.780204370710127   -0.620239582613447     0
   -0.237086325350576    0.758652300163257   -0.606825149271814     0
    0.237086325350576    0.758652300163257   -0.606825149271814     0
   0.0811418516199396    0.780204370710127   -0.620239582613447     0
    0.156434465040231    0.840177885327139   -0.519258489728183     0
                    0    0.963861263467623   -0.266404701134567     0
   0.0823235800319602    0.912982492932299   -0.399607051701851     0
  -0.0823235800319602    0.912982492932299   -0.399607051701851     0
   -0.693780477560449    0.702046444776163   -0.160622035640023     0
   -0.571251659135709    0.792649229259281    -0.21302286564913     0
   -0.615642020873681    0.783843042419971  -0.0810862934433035     0
   -0.587785252292473    0.688190960235587    -0.42532540417602     0
   -0.453990499739547    0.757935420047777   -0.468429850866954     0
   -0.516121620051061    0.783451698363313   -0.346153014788992     0
   -0.809016994374947                  0.5   -0.309016994374947     0
   -0.758652300163257    0.606825149271814   -0.237086325350576     0
   -0.647411893882224    0.702309846743374   -0.296004592577769     0
   -0.707106781186547    0.601500955007546   -0.371748034460185     0
   -0.259891913007754    0.433888564552695   -0.862668480416186     0
   -0.131200378813013    0.484441642060668   -0.864929335863275     0
    -0.21302286564913    0.571251659135709   -0.792649229259281     0
                 -0.5    0.309016994374947   -0.809016994374947     0
    -0.42532540417602    0.587785252292473   -0.688190960235587     0
   -0.468429850866954    0.453990499739547   -0.757935420047777     0
   -0.346153014788992    0.516121620051061   -0.783451698363313     0
   -0.383613732685048     0.37503856747821    -0.84391147462239     0
   -0.296004592577769    0.647411893882224   -0.702309846743374     0
   -0.371748034460185    0.707106781186547   -0.601500955007546     0
    -0.85065080835204                    0   -0.525731112119134     0
   -0.862668480416186    0.259891913007754   -0.433888564552695     0
   -0.702046444776163    0.160622035640023   -0.693780477560449     0
   -0.864929335863275    0.131200378813013   -0.484441642060668     0
   -0.792649229259281     0.21302286564913   -0.571251659135709     0
   -0.783843042419971   0.0810862934433035   -0.615642020873681     0
   -0.688190960235587     0.42532540417602   -0.587785252292473     0
   -0.757935420047777    0.468429850866954   -0.453990499739547     0
   -0.783451698363313    0.346153014788992   -0.516121620051061     0
    -0.84391147462239    0.383613732685048    -0.37503856747821     0
   -0.606825149271814    0.237086325350576   -0.758652300163257     0
   -0.702309846743374    0.296004592577769   -0.647411893882224     0
   -0.601500955007546    0.371748034460185   -0.707106781186547     0
   -0.513375441230448    0.646577791797732   -0.564254211765772     0
   -0.564254211765772    0.513375441230448   -0.646577791797732     0
   -0.646577791797732    0.564254211765772   -0.513375441230448     0
   -0.702907030487773    0.711281734962216                    0     0
    -0.85065080835204    0.525731112119134                    0     0
   -0.840177885327139    0.519258489728183   -0.156434465040231     0
   -0.780204370710127    0.620239582613447  -0.0811418516199396     0
   -0.780204370710127    0.620239582613447   0.0811418516199396     0
   -0.840177885327139    0.519258489728183    0.156434465040231     0
   -0.961938357783917                    0   -0.273266528912672     0
   -0.915043421232984                    0   -0.403355348617364     0
   -0.924304600611346    0.131655371352065   -0.358228793486579     0
                   -1                    0                    0     0
   -0.951056516295154    0.262865556059567   -0.162459848116453     0
   -0.987688340595138    0.133071104140591  -0.0822424652793623     0
   -0.966392597402439    0.132792476827902   -0.220117027473292     0
   -0.990438881956862                    0   -0.137952242127634     0
   -0.916244175191216    0.264082750659066   -0.301258879093232     0
   -0.891006524188368    0.386187385587592   -0.238676930319593     0
   -0.961938357783917                    0    0.273266528912672     0
   -0.924304600611346    0.131655371352065    0.358228793486579     0
   -0.915043421232984                    0    0.403355348617364     0
   -0.951056516295154    0.262865556059567    0.162459848116453     0
   -0.891006524188368    0.386187385587592    0.238676930319593     0
   -0.916244175191216    0.264082750659066    0.301258879093232     0
   -0.990438881956862                    0    0.137952242127634     0
   -0.966392597402439    0.132792476827902    0.220117027473292     0
   -0.987688340595138    0.133071104140591   0.0822424652793623     0
   -0.912982492932299    0.399607051701851  -0.0823235800319602     0
   -0.963861263467623    0.266404701134567                    0     0
   -0.912982492932299    0.399607051701851   0.0823235800319602     0
                    0    0.273266528912672    0.961938357783917     0
   -0.131655371352065    0.358228793486579    0.924304600611346     0
                    0    0.403355348617364    0.915043421232984     0
   -0.262865556059567    0.162459848116453    0.951056516295154     0
   -0.386187385587592    0.238676930319593    0.891006524188368     0
   -0.264082750659066    0.301258879093232    0.916244175191216     0
                    0                    0                    1     0
                    0    0.137952242127634    0.990438881956862     0
   -0.132792476827902    0.220117027473292    0.966392597402439     0
   -0.133071104140591   0.0822424652793623    0.987688340595138     0
   -0.702046444776163   -0.160622035640023    0.693780477560449     0
   -0.783843042419971  -0.0810862934433035    0.615642020873681     0
   -0.711281734962216                    0    0.702907030487773     0
                 -0.5   -0.309016994374947    0.809016994374947     0
   -0.525731112119134                    0     0.85065080835204     0
   -0.519258489728183   -0.156434465040231    0.840177885327139     0
   -0.620239582613447  -0.0811418516199396    0.780204370710127     0
   -0.606825149271814   -0.237086325350576    0.758652300163257     0
   -0.620239582613447   0.0811418516199396    0.780204370710127     0
   -0.519258489728183    0.156434465040231    0.840177885327139     0
                    0   -0.525731112119134     0.85065080835204     0
                    0   -0.273266528912672    0.961938357783917     0
   -0.259891913007754   -0.433888564552695    0.862668480416186     0
                    0   -0.403355348617364    0.915043421232984     0
   -0.131655371352065   -0.358228793486579    0.924304600611346     0
   -0.131200378813013   -0.484441642060668    0.864929335863275     0
   -0.262865556059567   -0.162459848116453    0.951056516295154     0
   -0.133071104140591  -0.0822424652793623    0.987688340595138     0
   -0.132792476827902   -0.220117027473292    0.966392597402439     0
                    0   -0.137952242127634    0.990438881956862     0
   -0.383613732685048    -0.37503856747821     0.84391147462239     0
   -0.264082750659066   -0.301258879093232    0.916244175191216     0
   -0.386187385587592   -0.238676930319593    0.891006524188368     0
   -0.399607051701851   0.0823235800319602    0.912982492932299     0
   -0.399607051701851  -0.0823235800319602    0.912982492932299     0
   -0.266404701134567                    0    0.963861263467623     0
    0.693780477560449    0.702046444776163    0.160622035640023     0
    0.571251659135709    0.792649229259281     0.21302286564913     0
    0.615642020873681    0.783843042419971   0.0810862934433035     0
    0.587785252292473    0.688190960235587     0.42532540417602     0
    0.453990499739547    0.757935420047777    0.468429850866954     0
    0.516121620051061    0.783451698363313    0.346153014788992     0
    0.809016994374947                  0.5    0.309016994374947     0
    0.758652300163257    0.606825149271814    0.237086325350576     0
    0.647411893882224    0.702309846743374    0.296004592577769     0
    0.707106781186547    0.601500955007546    0.371748034460185     0
    0.259891913007754    0.433888564552695    0.862668480416186     0
    0.131200378813013    0.484441642060668    0.864929335863275     0
     0.21302286564913    0.571251659135709    0.792649229259281     0
                  0.5    0.309016994374947    0.809016994374947     0
     0.42532540417602    0.587785252292473    0.688190960235587     0
    0.468429850866954    0.453990499739547    0.757935420047777     0
    0.346153014788992    0.516121620051061    0.783451698363313     0
    0.383613732685048     0.37503856747821     0.84391147462239     0
    0.296004592577769    0.647411893882224    0.702309846743374     0
    0.371748034460185    0.707106781186547    0.601500955007546     0
     0.85065080835204                    0    0.525731112119134     0
    0.862668480416186    0.259891913007754    0.433888564552695     0
    0.702046444776163    0.160622035640023    0.693780477560449     0
    0.864929335863275    0.131200378813013    0.484441642060668     0
    0.792649229259281     0.21302286564913    0.571251659135709     0
    0.783843042419971   0.0810862934433035    0.615642020873681     0
    0.688190960235587     0.42532540417602    0.587785252292473     0
    0.757935420047777    0.468429850866954    0.453990499739547     0
    0.783451698363313    0.346153014788992    0.516121620051061     0
     0.84391147462239    0.383613732685048     0.37503856747821     0
    0.606825149271814    0.237086325350576    0.758652300163257     0
    0.702309846743374    0.296004592577769    0.647411893882224     0
    0.601500955007546    0.371748034460185    0.707106781186547     0
    0.513375441230448    0.646577791797732    0.564254211765772     0
    0.564254211765772    0.513375441230448    0.646577791797732     0
    0.646577791797732    0.564254211765772    0.513375441230448     0
    0.259891913007754    0.433888564552695   -0.862668480416186     0
     0.21302286564913    0.571251659135709   -0.792649229259281     0
    0.131200378813013    0.484441642060668   -0.864929335863275     0
     0.42532540417602    0.587785252292473   -0.688190960235587     0
    0.371748034460185    0.707106781186547   -0.601500955007546     0
    0.296004592577769    0.647411893882224   -0.702309846743374     0
                  0.5    0.309016994374947   -0.809016994374947     0
    0.383613732685048     0.37503856747821    -0.84391147462239     0
    0.346153014788992    0.516121620051061   -0.783451698363313     0
    0.468429850866954    0.453990499739547   -0.757935420047777     0
    0.693780477560449    0.702046444776163   -0.160622035640023     0
    0.615642020873681    0.783843042419971  -0.0810862934433035     0
    0.571251659135709    0.792649229259281    -0.21302286564913     0
    0.809016994374947                  0.5   -0.309016994374947     0
    0.587785252292473    0.688190960235587    -0.42532540417602     0
    0.707106781186547    0.601500955007546   -0.371748034460185     0
    0.647411893882224    0.702309846743374   -0.296004592577769     0
    0.758652300163257    0.606825149271814   -0.237086325350576     0
    0.516121620051061    0.783451698363313   -0.346153014788992     0
    0.453990499739547    0.757935420047777   -0.468429850866954     0
     0.85065080835204                    0   -0.525731112119134     0
    0.702046444776163    0.160622035640023   -0.693780477560449     0
    0.862668480416186    0.259891913007754   -0.433888564552695     0
    0.783843042419971   0.0810862934433035   -0.615642020873681     0
    0.792649229259281     0.21302286564913   -0.571251659135709     0
    0.864929335863275    0.131200378813013   -0.484441642060668     0
    0.688190960235587     0.42532540417602   -0.587785252292473     0
    0.601500955007546    0.371748034460185   -0.707106781186547     0
    0.702309846743374    0.296004592577769   -0.647411893882224     0
    0.606825149271814    0.237086325350576   -0.758652300163257     0
     0.84391147462239    0.383613732685048    -0.37503856747821     0
    0.783451698363313    0.346153014788992   -0.516121620051061     0
    0.757935420047777    0.468429850866954   -0.453990499739547     0
    0.513375441230448    0.646577791797732   -0.564254211765772     0
    0.646577791797732    0.564254211765772   -0.513375441230448     0
    0.564254211765772    0.513375441230448   -0.646577791797732     0
   -0.702046444776163   -0.160622035640023   -0.693780477560449     0
   -0.711281734962216                    0   -0.702907030487773     0
   -0.783843042419971  -0.0810862934433035   -0.615642020873681     0
   -0.525731112119134                    0    -0.85065080835204     0
   -0.519258489728183    0.156434465040231   -0.840177885327139     0
   -0.620239582613447   0.0811418516199396   -0.780204370710127     0
                 -0.5   -0.309016994374947   -0.809016994374947     0
   -0.606825149271814   -0.237086325350576   -0.758652300163257     0
   -0.620239582613447  -0.0811418516199396   -0.780204370710127     0
   -0.519258489728183   -0.156434465040231   -0.840177885327139     0
                    0    0.273266528912672   -0.961938357783917     0
                    0    0.403355348617364   -0.915043421232984     0
   -0.131655371352065    0.358228793486579   -0.924304600611346     0
                    0                    0                   -1     0
   -0.262865556059567    0.162459848116453   -0.951056516295154     0
   -0.133071104140591   0.0822424652793623   -0.987688340595138     0
   -0.132792476827902    0.220117027473292   -0.966392597402439     0
                    0    0.137952242127634   -0.990438881956862     0
   -0.264082750659066    0.301258879093232   -0.916244175191216     0
   -0.386187385587592    0.238676930319593   -0.891006524188368     0
                    0   -0.525731112119134    -0.85065080835204     0
   -0.259891913007754   -0.433888564552695   -0.862668480416186     0
                    0   -0.273266528912672   -0.961938357783917     0
   -0.131200378813013   -0.484441642060668   -0.864929335863275     0
   -0.131655371352065   -0.358228793486579   -0.924304600611346     0
                    0   -0.403355348617364   -0.915043421232984     0
   -0.262865556059567   -0.162459848116453   -0.951056516295154     0
   -0.386187385587592   -0.238676930319593   -0.891006524188368     0
   -0.264082750659066   -0.301258879093232   -0.916244175191216     0
   -0.383613732685048    -0.37503856747821    -0.84391147462239     0
                    0   -0.137952242127634   -0.990438881956862     0
   -0.132792476827902   -0.220117027473292   -0.966392597402439     0
   -0.133071104140591  -0.0822424652793623   -0.987688340595138     0
   -0.399607051701851   0.0823235800319602   -0.912982492932299     0
   -0.266404701134567                    0   -0.963861263467623     0
   -0.399607051701851  -0.0823235800319602   -0.912982492932299     0
   -0.862668480416186   -0.259891913007754    0.433888564552695     0
   -0.924304600611346   -0.131655371352065    0.358228793486579     0
   -0.864929335863275   -0.131200378813013    0.484441642060668     0
   -0.951056516295154   -0.262865556059567    0.162459848116453     0
   -0.987688340595138   -0.133071104140591   0.0822424652793623     0
   -0.966392597402439   -0.132792476827902    0.220117027473292     0
   -0.809016994374947                 -0.5    0.309016994374947     0
    -0.84391147462239   -0.383613732685048     0.37503856747821     0
   -0.916244175191216   -0.264082750659066    0.301258879093232     0
   -0.891006524188368   -0.386187385587592    0.238676930319593     0
   -0.862668480416186   -0.259891913007754   -0.433888564552695     0
   -0.864929335863275   -0.131200378813013   -0.484441642060668     0
   -0.924304600611346   -0.131655371352065   -0.358228793486579     0
   -0.809016994374947                 -0.5   -0.309016994374947     0
   -0.951056516295154   -0.262865556059567   -0.162459848116453     0
   -0.891006524188368   -0.386187385587592   -0.238676930319593     0
   -0.916244175191216   -0.264082750659066   -0.301258879093232     0
    -0.84391147462239   -0.383613732685048    -0.37503856747821     0
   -0.966392597402439   -0.132792476827902   -0.220117027473292     0
   -0.987688340595138   -0.133071104140591  -0.0822424652793623     0
   -0.525731112119134    -0.85065080835204                    0     0
   -0.693780477560449   -0.702046444776163    0.160622035640023     0
   -0.693780477560449   -0.702046444776163   -0.160622035640023     0
   -0.615642020873681   -0.783843042419971   0.0810862934433035     0
   -0.702907030487773   -0.711281734962216                    0     0
   -0.615642020873681   -0.783843042419971  -0.0810862934433035     0
    -0.85065080835204   -0.525731112119134                    0     0
   -0.840177885327139   -0.519258489728183    0.156434465040231     0
   -0.780204370710127   -0.620239582613447   0.0811418516199396     0
   -0.758652300163257   -0.606825149271814    0.237086325350576     0
   -0.758652300163257   -0.606825149271814   -0.237086325350576     0
   -0.780204370710127   -0.620239582613447  -0.0811418516199396     0
   -0.840177885327139   -0.519258489728183   -0.156434465040231     0
   -0.963861263467623   -0.266404701134567                    0     0
   -0.912982492932299   -0.399607051701851  -0.0823235800319602     0
   -0.912982492932299   -0.399607051701851   0.0823235800319602     0
   -0.433888564552695   -0.862668480416186    0.259891913007754     0
   -0.484441642060668   -0.864929335863275    0.131200378813013     0
   -0.571251659135709   -0.792649229259281     0.21302286564913     0
   -0.309016994374947   -0.809016994374947                  0.5     0
   -0.587785252292473   -0.688190960235587     0.42532540417602     0
   -0.453990499739547   -0.757935420047777    0.468429850866954     0
   -0.516121620051061   -0.783451698363313    0.346153014788992     0
    -0.37503856747821    -0.84391147462239    0.383613732685048     0
   -0.647411893882224   -0.702309846743374    0.296004592577769     0
   -0.707106781186547   -0.601500955007546    0.371748034460185     0
   -0.160622035640023   -0.693780477560449    0.702046444776163     0
    -0.21302286564913   -0.571251659135709    0.792649229259281     0
  -0.0810862934433035   -0.615642020873681    0.783843042419971     0
    -0.42532540417602   -0.587785252292473    0.688190960235587     0
   -0.468429850866954   -0.453990499739547    0.757935420047777     0
   -0.346153014788992   -0.516121620051061    0.783451698363313     0
   -0.237086325350576   -0.758652300163257    0.606825149271814     0
   -0.296004592577769   -0.647411893882224    0.702309846743374     0
   -0.371748034460185   -0.707106781186547    0.601500955007546     0
   -0.792649229259281    -0.21302286564913    0.571251659135709     0
   -0.688190960235587    -0.42532540417602    0.587785252292473     0
   -0.757935420047777   -0.468429850866954    0.453990499739547     0
   -0.783451698363313   -0.346153014788992    0.516121620051061     0
   -0.702309846743374   -0.296004592577769    0.647411893882224     0
   -0.601500955007546   -0.371748034460185    0.707106781186547     0
   -0.513375441230448   -0.646577791797732    0.564254211765772     0
   -0.564254211765772   -0.513375441230448    0.646577791797732     0
   -0.646577791797732   -0.564254211765772    0.513375441230448     0
    0.259891913007754   -0.433888564552695    0.862668480416186     0
    0.131200378813013   -0.484441642060668    0.864929335863275     0
    0.131655371352065   -0.358228793486579    0.924304600611346     0
                  0.5   -0.309016994374947    0.809016994374947     0
    0.262865556059567   -0.162459848116453    0.951056516295154     0
    0.386187385587592   -0.238676930319593    0.891006524188368     0
    0.264082750659066   -0.301258879093232    0.916244175191216     0
    0.383613732685048    -0.37503856747821     0.84391147462239     0
    0.132792476827902   -0.220117027473292    0.966392597402439     0
    0.133071104140591  -0.0822424652793623    0.987688340595138     0
    0.702046444776163   -0.160622035640023    0.693780477560449     0
    0.711281734962216                    0    0.702907030487773     0
    0.783843042419971  -0.0810862934433035    0.615642020873681     0
    0.525731112119134                    0     0.85065080835204     0
    0.519258489728183    0.156434465040231    0.840177885327139     0
    0.620239582613447   0.0811418516199396    0.780204370710127     0
    0.606825149271814   -0.237086325350576    0.758652300163257     0
    0.620239582613447  -0.0811418516199396    0.780204370710127     0
    0.519258489728183   -0.156434465040231    0.840177885327139     0
    0.131655371352065    0.358228793486579    0.924304600611346     0
    0.262865556059567    0.162459848116453    0.951056516295154     0
    0.133071104140591   0.0822424652793623    0.987688340595138     0
    0.132792476827902    0.220117027473292    0.966392597402439     0
    0.264082750659066    0.301258879093232    0.916244175191216     0
    0.386187385587592    0.238676930319593    0.891006524188368     0
    0.399607051701851  -0.0823235800319602    0.912982492932299     0
    0.399607051701851   0.0823235800319602    0.912982492932299     0
    0.266404701134567                    0    0.963861263467623     0
    0.961938357783917                    0    0.273266528912672     0
    0.915043421232984                    0    0.403355348617364     0
    0.924304600611346    0.131655371352065    0.358228793486579     0
                    1                    0                    0     0
    0.951056516295154    0.262865556059567    0.162459848116453     0
    0.987688340595138    0.133071104140591   0.0822424652793623     0
    0.966392597402439    0.132792476827902    0.220117027473292     0
    0.990438881956862                    0    0.137952242127634     0
    0.916244175191216    0.264082750659066    0.301258879093232     0
    0.891006524188368    0.386187385587592    0.238676930319593     0
    0.961938357783917                    0   -0.273266528912672     0
    0.924304600611346    0.131655371352065   -0.358228793486579     0
    0.915043421232984                    0   -0.403355348617364     0
    0.951056516295154    0.262865556059567   -0.162459848116453     0
    0.891006524188368    0.386187385587592   -0.238676930319593     0
    0.916244175191216    0.264082750659066   -0.301258879093232     0
    0.990438881956862                    0   -0.137952242127634     0
    0.966392597402439    0.132792476827902   -0.220117027473292     0
    0.987688340595138    0.133071104140591  -0.0822424652793623     0
    0.702907030487773    0.711281734962216                    0     0
     0.85065080835204    0.525731112119134                    0     0
    0.840177885327139    0.519258489728183    0.156434465040231     0
    0.780204370710127    0.620239582613447   0.0811418516199396     0
    0.780204370710127    0.620239582613447  -0.0811418516199396     0
    0.840177885327139    0.519258489728183   -0.156434465040231     0
    0.963861263467623    0.266404701134567                    0     0
    0.912982492932299    0.399607051701851  -0.0823235800319602     0
    0.912982492932299    0.399607051701851   0.0823235800319602     0
    0.702046444776163   -0.160622035640023   -0.693780477560449     0
    0.783843042419971  -0.0810862934433035   -0.615642020873681     0
    0.711281734962216                    0   -0.702907030487773     0
                  0.5   -0.309016994374947   -0.809016994374947     0
    0.525731112119134                    0    -0.85065080835204     0
    0.519258489728183   -0.156434465040231   -0.840177885327139     0
    0.620239582613447  -0.0811418516199396   -0.780204370710127     0
    0.606825149271814   -0.237086325350576   -0.758652300163257     0
    0.620239582613447   0.0811418516199396   -0.780204370710127     0
    0.519258489728183    0.156434465040231   -0.840177885327139     0
    0.259891913007754   -0.433888564552695   -0.862668480416186     0
    0.131655371352065   -0.358228793486579   -0.924304600611346     0
    0.131200378813013   -0.484441642060668   -0.864929335863275     0
    0.262865556059567   -0.162459848116453   -0.951056516295154     0
    0.133071104140591  -0.0822424652793623   -0.987688340595138     0
    0.132792476827902   -0.220117027473292   -0.966392597402439     0
    0.383613732685048    -0.37503856747821    -0.84391147462239     0
    0.264082750659066   -0.301258879093232   -0.916244175191216     0
    0.386187385587592   -0.238676930319593   -0.891006524188368     0
    0.131655371352065    0.358228793486579   -0.924304600611346     0
    0.262865556059567    0.162459848116453   -0.951056516295154     0
    0.386187385587592    0.238676930319593   -0.891006524188368     0
    0.264082750659066    0.301258879093232   -0.916244175191216     0
    0.132792476827902    0.220117027473292   -0.966392597402439     0
    0.133071104140591   0.0822424652793623   -0.987688340595138     0
    0.399607051701851  -0.0823235800319602   -0.912982492932299     0
    0.266404701134567                    0   -0.963861263467623     0
    0.399607051701851   0.0823235800319602   -0.912982492932299     0
   -0.160622035640023   -0.693780477560449   -0.702046444776163     0
  -0.0810862934433035   -0.615642020873681   -0.783843042419971     0
    -0.21302286564913   -0.571251659135709   -0.792649229259281     0
   -0.309016994374947   -0.809016994374947                 -0.5     0
    -0.42532540417602   -0.587785252292473   -0.688190960235587     0
   -0.371748034460185   -0.707106781186547   -0.601500955007546     0
   -0.296004592577769   -0.647411893882224   -0.702309846743374     0
   -0.237086325350576   -0.758652300163257   -0.606825149271814     0
   -0.346153014788992   -0.516121620051061   -0.783451698363313     0
   -0.468429850866954   -0.453990499739547   -0.757935420047777     0
   -0.433888564552695   -0.862668480416186   -0.259891913007754     0
   -0.571251659135709   -0.792649229259281    -0.21302286564913     0
   -0.484441642060668   -0.864929335863275   -0.131200378813013     0
   -0.587785252292473   -0.688190960235587    -0.42532540417602     0
   -0.707106781186547   -0.601500955007546   -0.371748034460185     0
   -0.647411893882224   -0.702309846743374   -0.296004592577769     0
    -0.37503856747821    -0.84391147462239   -0.383613732685048     0
   -0.516121620051061   -0.783451698363313   -0.346153014788992     0
   -0.453990499739547   -0.757935420047777   -0.468429850866954     0
   -0.792649229259281    -0.21302286564913   -0.571251659135709     0
   -0.688190960235587    -0.42532540417602   -0.587785252292473     0
   -0.601500955007546   -0.371748034460185   -0.707106781186547     0
   -0.702309846743374   -0.296004592577769   -0.647411893882224     0
   -0.783451698363313   -0.346153014788992   -0.516121620051061     0
   -0.757935420047777   -0.468429850866954   -0.453990499739547     0
   -0.513375441230448   -0.646577791797732   -0.564254211765772     0
   -0.646577791797732   -0.564254211765772   -0.513375441230448     0
   -0.564254211765772   -0.513375441230448   -0.646577791797732     0
    0.525731112119134    -0.85065080835204                    0     0
    0.433888564552695   -0.862668480416186    0.259891913007754     0
    0.273266528912672   -0.961938357783917                    0     0
    0.484441642060668   -0.864929335863275    0.131200378813013     0
    0.358228793486579   -0.924304600611346    0.131655371352065     0
    0.403355348617364   -0.915043421232984                    0     0
    0.309016994374947   -0.809016994374947                  0.5     0
    0.162459848116453   -0.951056516295154    0.262865556059567     0
    0.238676930319593   -0.891006524188368    0.386187385587592     0
    0.301258879093232   -0.916244175191216    0.264082750659066     0
     0.37503856747821    -0.84391147462239    0.383613732685048     0
                    0                   -1                    0     0
    0.137952242127634   -0.990438881956862                    0     0
    0.220117027473292   -0.966392597402439    0.132792476827902     0
   0.0822424652793623   -0.987688340595138    0.133071104140591     0
    0.160622035640023   -0.693780477560449    0.702046444776163     0
                    0   -0.702907030487773    0.711281734962216     0
   0.0810862934433035   -0.615642020873681    0.783843042419971     0
                    0    -0.85065080835204    0.525731112119134     0
   -0.156434465040231   -0.840177885327139    0.519258489728183     0
  -0.0811418516199396   -0.780204370710127    0.620239582613447     0
    0.237086325350576   -0.758652300163257    0.606825149271814     0
   0.0811418516199396   -0.780204370710127    0.620239582613447     0
    0.156434465040231   -0.840177885327139    0.519258489728183     0
   -0.273266528912672   -0.961938357783917                    0     0
   -0.403355348617364   -0.915043421232984                    0     0
   -0.358228793486579   -0.924304600611346    0.131655371352065     0
   -0.162459848116453   -0.951056516295154    0.262865556059567     0
  -0.0822424652793623   -0.987688340595138    0.133071104140591     0
   -0.220117027473292   -0.966392597402439    0.132792476827902     0
   -0.137952242127634   -0.990438881956862                    0     0
   -0.301258879093232   -0.916244175191216    0.264082750659066     0
   -0.238676930319593   -0.891006524188368    0.386187385587592     0
   0.0823235800319602   -0.912982492932299    0.399607051701851     0
  -0.0823235800319602   -0.912982492932299    0.399607051701851     0
                    0   -0.963861263467623    0.266404701134567     0
    0.693780477560449   -0.702046444776163    0.160622035640023     0
    0.615642020873681   -0.783843042419971   0.0810862934433035     0
    0.571251659135709   -0.792649229259281     0.21302286564913     0
    0.809016994374947                 -0.5    0.309016994374947     0
    0.587785252292473   -0.688190960235587     0.42532540417602     0
    0.707106781186547   -0.601500955007546    0.371748034460185     0
    0.647411893882224   -0.702309846743374    0.296004592577769     0
    0.758652300163257   -0.606825149271814    0.237086325350576     0
    0.516121620051061   -0.783451698363313    0.346153014788992     0
    0.453990499739547   -0.757935420047777    0.468429850866954     0
    0.862668480416186   -0.259891913007754    0.433888564552695     0
    0.792649229259281    -0.21302286564913    0.571251659135709     0
    0.864929335863275   -0.131200378813013    0.484441642060668     0
    0.688190960235587    -0.42532540417602    0.587785252292473     0
    0.601500955007546   -0.371748034460185    0.707106781186547     0
    0.702309846743374   -0.296004592577769    0.647411893882224     0
     0.84391147462239   -0.383613732685048     0.37503856747821     0
    0.783451698363313   -0.346153014788992    0.516121620051061     0
    0.757935420047777   -0.468429850866954    0.453990499739547     0
     0.21302286564913   -0.571251659135709    0.792649229259281     0
     0.42532540417602   -0.587785252292473    0.688190960235587     0
    0.371748034460185   -0.707106781186547    0.601500955007546     0
    0.296004592577769   -0.647411893882224    0.702309846743374     0
    0.346153014788992   -0.516121620051061    0.783451698363313     0
    0.468429850866954   -0.453990499739547    0.757935420047777     0
    0.646577791797732   -0.564254211765772    0.513375441230448     0
    0.564254211765772   -0.513375441230448    0.646577791797732     0
    0.513375441230448   -0.646577791797732    0.564254211765772     0
    0.693780477560449   -0.702046444776163   -0.160622035640023     0
    0.615642020873681   -0.783843042419971  -0.0810862934433035     0
    0.702907030487773   -0.711281734962216                    0     0
    0.809016994374947                 -0.5   -0.309016994374947     0
     0.85065080835204   -0.525731112119134                    0     0
    0.840177885327139   -0.519258489728183   -0.156434465040231     0
    0.780204370710127   -0.620239582613447  -0.0811418516199396     0
    0.758652300163257   -0.606825149271814   -0.237086325350576     0
    0.780204370710127   -0.620239582613447   0.0811418516199396     0
    0.840177885327139   -0.519258489728183    0.156434465040231     0
    0.862668480416186   -0.259891913007754   -0.433888564552695     0
    0.924304600611346   -0.131655371352065   -0.358228793486579     0
    0.864929335863275   -0.131200378813013   -0.484441642060668     0
    0.951056516295154   -0.262865556059567   -0.162459848116453     0
    0.987688340595138   -0.133071104140591  -0.0822424652793623     0
    0.966392597402439   -0.132792476827902   -0.220117027473292     0
     0.84391147462239   -0.383613732685048    -0.37503856747821     0
    0.916244175191216   -0.264082750659066   -0.301258879093232     0
    0.891006524188368   -0.386187385587592   -0.238676930319593     0
    0.924304600611346   -0.131655371352065    0.358228793486579     0
    0.951056516295154   -0.262865556059567    0.162459848116453     0
    0.891006524188368   -0.386187385587592    0.238676930319593     0
    0.916244175191216   -0.264082750659066    0.301258879093232     0
    0.966392597402439   -0.132792476827902    0.220117027473292     0
    0.987688340595138   -0.133071104140591   0.0822424652793623     0
    0.912982492932299   -0.399607051701851  -0.0823235800319602     0
    0.963861263467623   -0.266404701134567                    0     0
    0.912982492932299   -0.399607051701851   0.0823235800319602     0
    0.433888564552695   -0.862668480416186   -0.259891913007754     0
    0.484441642060668   -0.864929335863275   -0.131200378813013     0
    0.571251659135709   -0.792649229259281    -0.21302286564913     0
    0.309016994374947   -0.809016994374947                 -0.5     0
    0.587785252292473   -0.688190960235587    -0.42532540417602     0
    0.453990499739547   -0.757935420047777   -0.468429850866954     0
    0.516121620051061   -0.783451698363313   -0.346153014788992     0
     0.37503856747821    -0.84391147462239   -0.383613732685048     0
    0.647411893882224   -0.702309846743374   -0.296004592577769     0
    0.707106781186547   -0.601500955007546   -0.371748034460185     0
    0.160622035640023   -0.693780477560449   -0.702046444776163     0
     0.21302286564913   -0.571251659135709   -0.792649229259281     0
   0.0810862934433035   -0.615642020873681   -0.783843042419971     0
     0.42532540417602   -0.587785252292473   -0.688190960235587     0
    0.468429850866954   -0.453990499739547   -0.757935420047777     0
    0.346153014788992   -0.516121620051061   -0.783451698363313     0
    0.237086325350576   -0.758652300163257   -0.606825149271814     0
    0.296004592577769   -0.647411893882224   -0.702309846743374     0
    0.371748034460185   -0.707106781186547   -0.601500955007546     0
    0.792649229259281    -0.21302286564913   -0.571251659135709     0
    0.688190960235587    -0.42532540417602   -0.587785252292473     0
    0.757935420047777   -0.468429850866954   -0.453990499739547     0
    0.783451698363313   -0.346153014788992   -0.516121620051061     0
    0.702309846743374   -0.296004592577769   -0.647411893882224     0
    0.601500955007546   -0.371748034460185   -0.707106781186547     0
    0.513375441230448   -0.646577791797732   -0.564254211765772     0
    0.564254211765772   -0.513375441230448   -0.646577791797732     0
    0.646577791797732   -0.564254211765772   -0.513375441230448     0
    0.358228793486579   -0.924304600611346   -0.131655371352065     0
    0.162459848116453   -0.951056516295154   -0.262865556059567     0
   0.0822424652793623   -0.987688340595138   -0.133071104140591     0
    0.220117027473292   -0.966392597402439   -0.132792476827902     0
    0.301258879093232   -0.916244175191216   -0.264082750659066     0
    0.238676930319593   -0.891006524188368   -0.386187385587592     0
   -0.358228793486579   -0.924304600611346   -0.131655371352065     0
   -0.162459848116453   -0.951056516295154   -0.262865556059567     0
   -0.238676930319593   -0.891006524188368   -0.386187385587592     0
   -0.301258879093232   -0.916244175191216   -0.264082750659066     0
   -0.220117027473292   -0.966392597402439   -0.132792476827902     0
  -0.0822424652793623   -0.987688340595138   -0.133071104140591     0
                    0   -0.702907030487773   -0.711281734962216     0
                    0    -0.85065080835204   -0.525731112119134     0
    0.156434465040231   -0.840177885327139   -0.519258489728183     0
   0.0811418516199396   -0.780204370710127   -0.620239582613447     0
  -0.0811418516199396   -0.780204370710127   -0.620239582613447     0
   -0.156434465040231   -0.840177885327139   -0.519258489728183     0
                    0   -0.963861263467623   -0.266404701134567     0
  -0.0823235800319602   -0.912982492932299   -0.399607051701851     0
   0.0823235800319602   -0.912982492932299   -0.399607051701851     0
Triangles
 1280
     1     4     6     0
     2     5     4     0
     3     6     5     0
     4     5     6     0
     7     9    11     0
     8    10     9     0
     2    11    10     0
     9    10    11     0
    12    13    15     0
     3    14    13     0
     8    15    14     0
    13    14    15     0
     2    10     5     0
     8    14    10     0
     3     5    14     0
    10    14     5     0
    16    19    21     0
    17    20    19     0
    18    21    20     0
    19    20    21     0
    22    24    26     0
    23    25    24     0
    17    26    25     0
    24    25    26     0
     7    27    29     0
    18    28    27     0
    23    29    28     0
    27    28    29     0
    17    25    20     0
    23    28    25     0
    18    20    28     0
    25    28    20     0
    30    33    35     0
    31    34    33     0
    32    35    34     0
    33    34    35     0
    12    37    39     0
    36    38    37     0
    31    39    38     0
    37    38    39     0
    22    40    42     0
    32    41    40     0
    36    42    41     0
    40    41    42     0
    31    38    34     0
    36    41    38     0
    32    34    41     0
    38    41    34     0
     7    29     9     0
    23    43    29     0
     8     9    43     0
    29    43     9     0
    22    42    24     0
    36    44    42     0
    23    24    44     0
    42    44    24     0
    12    15    37     0
     8    45    15     0
    36    37    45     0
    15    45    37     0
    23    44    43     0
    36    45    44     0
     8    43    45     0
    44    45    43     0
     1     6    48     0
     3    47     6     0
    46    48    47     0
     6    47    48     0
    12    50    13     0
    49    51    50     0
     3    13    51     0
    50    51    13     0
    52    53    55     0
    46    54    53     0
    49    55    54     0
    53    54    55     0
     3    51    47     0
    49    54    51     0
    46    47    54     0
    51    54    47     0
    30    57    33     0
    56    58    57     0
    31    33    58     0
    57    58    33     0
    59    61    63     0
    60    62    61     0
    56    63    62     0
    61    62    63     0
    12    39    65     0
    31    64    39     0
    60    65    64     0
    39    64    65     0
    56    62    58     0
    60    64    62     0
    31    58    64     0
    62    64    58     0
    66    69    71     0
    67    70    69     0
    68    71    70     0
    69    70    71     0
    52    73    75     0
    72    74    73     0
    67    75    74     0
    73    74    75     0
    59    76    78     0
    68    77    76     0
    72    78    77     0
    76    77    78     0
    67    74    70     0
    72    77    74     0
    68    70    77     0
    74    77    70     0
    12    65    50     0
    60    79    65     0
    49    50    79     0
    65    79    50     0
    59    78    61     0
    72    80    78     0
    60    61    80     0
    78    80    61     0
    52    55    73     0
    49    81    55     0
    72    73    81     0
    55    81    73     0
    60    80    79     0
    72    81    80     0
    49    79    81     0
    80    81    79     0
     1    48    84     0
    46    83    48     0
    82    84    83     0
    48    83    84     0
    52    86    53     0
    85    87    86     0
    46    53    87     0
    86    87    53     0
    88    89    91     0
    82    90    89     0
    85    91    90     0
    89    90    91     0
    46    87    83     0
    85    90    87     0
    82    83    90     0
    87    90    83     0
    66    93    69     0
    92    94    93     0
    67    69    94     0
    93    94    69     0
    95    97    99     0
    96    98    97     0
    92    99    98     0
    97    98    99     0
    52    75   101     0
    67   100    75     0
    96   101   100     0
    75   100   101     0
    92    98    94     0
    96   100    98     0
    67    94   100     0
    98   100    94     0
   102   105   107     0
   103   106   105     0
   104   107   106     0
   105   106   107     0
    88   109   111     0
   108   110   109     0
   103   111   110     0
   109   110   111     0
    95   112   114     0
   104   113   112     0
   108   114   113     0
   112   113   114     0
   103   110   106     0
   108   113   110     0
   104   106   113     0
   110   113   106     0
    52   101    86     0
    96   115   101     0
    85    86   115     0
   101   115    86     0
    95   114    97     0
   108   116   114     0
    96    97   116     0
   114   116    97     0
    88    91   109     0
    85   117    91     0
   108   109   117     0
    91   117   109     0
    96   116   115     0
   108   117   116     0
    85   115   117     0
   116   117   115     0
     1    84   120     0
    82   119    84     0
   118   120   119     0
    84   119   120     0
    88   122    89     0
   121   123   122     0
    82    89   123     0
   122   123    89     0
   124   125   127     0
   118   126   125     0
   121   127   126     0
   125   126   127     0
    82   123   119     0
   121   126   123     0
   118   119   126     0
   123   126   119     0
   102   129   105     0
   128   130   129     0
   103   105   130     0
   129   130   105     0
   131   133   135     0
   132   134   133     0
   128   135   134     0
   133   134   135     0
    88   111   137     0
   103   136   111     0
   132   137   136     0
   111   136   137     0
   128   134   130     0
   132   136   134     0
   103   130   136     0
   134   136   130     0
   138   141   143     0
   139   142   141     0
   140   143   142     0
   141   142   143     0
   124   145   147     0
   144   146   145     0
   139   147   146     0
   145   146   147     0
   131   148   150     0
   140   149   148     0
   144   150   149     0
   148   149   150     0
   139   146   142     0
   144   149   146     0
   140   142   149     0
   146   149   142     0
    88   137   122     0
   132   151   137     0
   121   122   151     0
   137   151   122     0
   131   150   133     0
   144   152   150     0
   132   133   152     0
   150   152   133     0
   124   127   145     0
   121   153   127     0
   144   145   153     0
   127   153   145     0
   132   152   151     0
   144   153   152     0
   121   151   153     0
   152   153   151     0
     1   120     4     0
   118   154   120     0
     2     4   154     0
   120   154     4     0
   124   156   125     0
   155   157   156     0
   118   125   157     0
   156   157   125     0
     7    11   159     0
     2   158    11     0
   155   159   158     0
    11   158   159     0
   118   157   154     0
   155   158   157     0
     2   154   158     0
   157   158   154     0
   138   161   141     0
   160   162   161     0
   139   141   162     0
   161   162   141     0
   163   165   167     0
   164   166   165     0
   160   167   166     0
   165   166   167     0
   124   147   169     0
   139   168   147     0
   164   169   168     0
   147   168   169     0
   160   166   162     0
   164   168   166     0
   139   162   168     0
   166   168   162     0
    16    21   172     0
    18   171    21     0
   170   172   171     0
    21   171   172     0
     7   174    27     0
   173   175   174     0
    18    27   175     0
   174   175    27     0
   163   176   178     0
   170   177   176     0
   173   178   177     0
   176   177   178     0
    18   175   171     0
   173   177   175     0
   170   171   177     0
   175   177   171     0
   124   169   156     0
   164   179   169     0
   155   156   179     0
   169   179   156     0
   163   178   165     0
   173   180   178     0
   164   165   180     0
   178   180   165     0
     7   159   174     0
   155   181   159     0
   173   174   181     0
   159   181   174     0
   164   180   179     0
   173   181   180     0
   155   179   181     0
   180   181   179     0
    30    35   184     0
    32   183    35     0
   182   184   183     0
    35   183   184     0
    22   186    40     0
   185   187   186     0
    32    40   187     0
   186   187    40     0
   188   189   191     0
   182   190   189     0
   185   191   190     0
   189   190   191     0
    32   187   183     0
   185   190   187     0
   182   183   190     0
   187   190   183     0
    16   193    19     0
   192   194   193     0
    17    19   194     0
   193   194    19     0
   195   197   199     0
   196   198   197     0
   192   199   198     0
   197   198   199     0
    22    26   201     0
    17   200    26     0
   196   201   200     0
    26   200   201     0
   192   198   194     0
   196   200   198     0
    17   194   200     0
   198   200   194     0
   202   205   207     0
   203   206   205     0
   204   207   206     0
   205   206   207     0
   188   209   211     0
   208   210   209     0
   203   211   210     0
   209   210   211     0
   195   212   214     0
   204   213   212     0
   208   214   213     0
   212   213   214     0
   203   210   206     0
   208   213   210     0
   204   206   213     0
   210   213   206     0
    22   201   186     0
   196   215   201     0
   185   186   215     0
   201   215   186     0
   195   214   197     0
   208   216   214     0
   196   197   216     0
   214   216   197     0
   188   191   209     0
   185   217   191     0
   208   209   217     0
   191   217   209     0
   196   216   215     0
   208   217   216     0
   185   215   217     0
   216   217   215     0
    66    71   220     0
    68   219    71     0
   218   220   219     0
    71   219   220     0
    59   222    76     0
   221   223   222     0
    68    76   223     0
   222   223    76     0
   224   225   227     0
   218   226   225     0
   221   227   226     0
   225   226   227     0
    68   223   219     0
   221   226   223     0
   218   219   226     0
   223   226   219     0
    30   229    57     0
   228   230   229     0
    56    57   230     0
   229   230    57     0
   231   233   235     0
   232   234   233     0
   228   235   234     0
   233   234   235     0
    59    63   237     0
    56   236    63     0
   232   237   236     0
    63   236   237     0
   228   234   230     0
   232   236   234     0
    56   230   236     0
   234   236   230     0
   238   241   243     0
   239   242   241     0
   240   243   242     0
   241   242   243     0
   224   245   247     0
   244   246   245     0
   239   247   246     0
   245   246   247     0
   231   248   250     0
   240   249   248     0
   244   250   249     0
   248   249   250     0
   239   246   242     0
   244   249   246     0
   240   242   249     0
   246   249   242     0
    59   237   222     0
   232   251   237     0
   221   222   251     0
   237   251   222     0
   231   250   233     0
   244   252   250     0
   232   233   252     0
   250   252   233     0
   224   227   245     0
   221   253   227     0
   244   245   253     0
   227   253   245     0
   232   252   251     0
   244   253   252     0
   221   251   253     0
   252   253   251     0
   102   107   256     0
   104   255   107     0
   254   256   255     0
   107   255   256     0
    95   258   112     0
   257   259   258     0
   104   112   259     0
   258   259   112     0
   260   261   263     0
   254   262   261     0
   257   263   262     0
   261   262   263     0
   104   259   255     0
   257   262   259     0
   254   255   262     0
   259   262   255     0
    66   265    93     0
   264   266   265     0
    92    93   266     0
   265   266    93     0
   267   269   271     0
   268   270   269     0
   264   271   270     0
   269   270   271     0
    95    99   273     0
    92   272    99     0
   268   273   272     0
    99   272   273     0
   264   270   266     0
   268   272   270     0
    92   266   272     0
   270   272   266     0
   274   277   279     0
   275   278   277     0
   276   279   278     0
   277   278   279     0
   260   281   283     0
   280   282   281     0
   275   283   282     0
   281   282   283     0
   267   284   286     0
   276   285   284     0
   280   286   285     0
   284   285   286     0
   275   282   278     0
   280   285   282     0
   276   278   285     0
   282   285   278     0
    95   273   258     0
   268   287   273     0
   257   258   287     0
   273   287   258     0
   267   286   269     0
   280   288   286     0
   268   269   288     0
   286   288   269     0
   260   263   281     0
   257   289   263     0
   280   281   289     0
   263   289   281     0
   268   288   287     0
   280   289   288     0
   257   287   289     0
   288   289   287     0
   138   143   292     0
   140   291   143     0
   290   292   291     0
   143   291   292     0
   131   294   148     0
   293   295   294     0
   140   148   295     0
   294   295   148     0
   296   297   299     0
   290   298   297     0
   293   299   298     0
   297   298   299     0
   140   295   291     0
   293   298   295     0
   290   291   298     0
   295   298   291     0
   102   301   129     0
   300   302   301     0
   128   129   302     0
   301   302   129     0
   303   305   307     0
   304   306   305     0
   300   307   306     0
   305   306   307     0
   131   135   309     0
   128   308   135     0
   304   309   308     0
   135   308   309     0
   300   306   302     0
   304   308   306     0
   128   302   308     0
   306   308   302     0
   310   313   315     0
   311   314   313     0
   312   315   314     0
   313   314   315     0
   296   317   319     0
   316   318   317     0
   311   319   318     0
   317   318   319     0
   303   320   322     0
   312   321   320     0
   316   322   321     0
   320   321   322     0
   311   318   314     0
   316   321   318     0
   312   314   321     0
   318   321   314     0
   131   309   294     0
   304   323   309     0
   293   294   323     0
   309   323   294     0
   303   322   305     0
   316   324   322     0
   304   305   324     0
   322   324   305     0
   296   299   317     0
   293   325   299     0
   316   317   325     0
   299   325   317     0
   304   324   323     0
   316   325   324     0
   293   323   325     0
   324   325   323     0
    16   172   328     0
   170   327   172     0
   326   328   327     0
   172   327   328     0
   163   330   176     0
   329   331   330     0
   170   176   331     0
   330   331   176     0
   332   333   335     0
   326   334   333     0
   329   335   334     0
   333   334   335     0
   170   331   327     0
   329   334   331     0
   326   327   334     0
   331   334   327     0
   138   337   161     0
   336   338   337     0
   160   161   338     0
   337   338   161     0
   339   341   343     0
   340   342   341     0
   336   343   342     0
   341   342   343     0
   163   167   345     0
   160   344   167     0
   340   345   344     0
   167   344   345     0
   336   342   338     0
   340   344   342     0
   160   338   344     0
   342   344   338     0
   346   349   351     0
   347   350   349     0
   348   351   350     0
   349   350   351     0
   332   353   355     0
   352   354   353     0
   347   355   354     0
   353   354   355     0
   339   356   358     0
   348   357   356     0
   352   358   357     0
   356   357   358     0
   347   354   350     0
   352   357   354     0
   348   350   357     0
   354   357   350     0
   163   345   330     0
   340   359   345     0
   329   330   359     0
   345   359   330     0
   339   358   341     0
   352   360   358     0
   340   341   360     0
   358   360   341     0
   332   335   353     0
   329   361   335     0
   352   353   361     0
   335   361   353     0
   340   360   359     0
   352   361   360     0
   329   359   361     0
   360   361   359     0
   346   363   349     0
   362   364   363     0
   347   349   364     0
   363   364   349     0
   365   367   369     0
   366   368   367     0
   362   369   368     0
   367   368   369     0
   332   355   371     0
   347   370   355     0
   366   371   370     0
   355   370   371     0
   362   368   364     0
   366   370   368     0
   347   364   370     0
   368   370   364     0
   202   207   374     0
   204   373   207     0
   372   374   373     0
   207   373   374     0
   195   376   212     0
   375   377   376     0
   204   212   377     0
   376   377   212     0
   365   378   380     0
   372   379   378     0
   375   380   379     0
   378   379   380     0
   204   377   373     0
   375   379   377     0
   372   373   379     0
   377   379   373     0
    16   328   193     0
   326   381   328     0
   192   193   381     0
   328   381   193     0
   332   383   333     0
   382   384   383     0
   326   333   384     0
   383   384   333     0
   195   199   386     0
   192   385   199     0
   382   386   385     0
   199   385   386     0
   326   384   381     0
   382   385   384     0
   192   381   385     0
   384   385   381     0
   365   380   367     0
   375   387   380     0
   366   367   387     0
   380   387   367     0
   195   386   376     0
   382   388   386     0
   375   376   388     0
   386   388   376     0
   332   371   383     0
   366   389   371     0
   382   383   389     0
   371   389   383     0
   375   388   387     0
   382   389   388     0
   366   387   389     0
   388   389   387     0
   202   391   205     0
   390   392   391     0
   203   205   392     0
   391   392   205     0
   393   395   397     0
   394   396   395     0
   390   397   396     0
   395   396   397     0
   188   211   399     0
   203   398   211     0
   394   399   398     0
   211   398   399     0
   390   396   392     0
   394   398   396     0
   203   392   398     0
   396   398   392     0
   238   243   402     0
   240   401   243     0
   400   402   401     0
   243   401   402     0
   231   404   248     0
   403   405   404     0
   240   248   405     0
   404   405   248     0
   393   406   408     0
   400   407   406     0
   403   408   407     0
   406   407   408     0
   240   405   401     0
   403   407   405     0
   400   401   407     0
   405   407   401     0
    30   184   229     0
   182   409   184     0
   228   229   409     0
   184   409   229     0
   188   411   189     0
   410   412   411     0
   182   189   412     0
   411   412   189     0
   231   235   414     0
   228   413   235     0
   410   414   413     0
   235   413   414     0
   182   412   409     0
   410   413   412     0
   228   409   413     0
   412   413   409     0
   393   408   395     0
   403   415   408     0
   394   395   415     0
   408   415   395     0
   231   414   404     0
   410   416   414     0
   403   404   416     0
   414   416   404     0
   188   399   411     0
   394   417   399     0
   410   411   417     0
   399   417   411     0
   403   416   415     0
   410   417   416     0
   394   415   417     0
   416   417   415     0
   238   419   241     0
   418   420   419     0
   239   241   420     0
   419   420   241     0
   421   423   425     0
   422   424   423     0
   418   425   424     0
   423   424   425     0
   224   247   427     0
   239   426   247     0
   422   427   426     0
   247   426   427     0
   418   424   420     0
   422   426   424     0
   239   420   426     0
   424   426   420     0
   274   279   430     0
   276   429   279     0
   428   430   429     0
   279   429   430     0
   267   432   284     0
   431   433   432     0
   276   284   433     0
   432   433   284     0
   421   434   436     0
   428   435   434     0
   431   436   435     0
   434   435   436     0
   276   433   429     0
   431   435   433     0
   428   429   435     0
   433   435   429     0
    66   220   265     0
   218   437   220     0
   264   265   437     0
   220   437   265     0
   224   439   225     0
   438   440   439     0
   218   225   440     0
   439   440   225     0
   267   271   442     0
   264   441   271     0
   438   442   441     0
   271   441   442     0
   218   440   437     0
   438   441   440     0
   264   437   441     0
   440   441   437     0
   421   436   423     0
   431   443   436     0
   422   423   443     0
   436   443   423     0
   267   442   432     0
   438   444   442     0
   431   432   444     0
   442   444   432     0
   224   427   439     0
   422   445   427     0
   438   439   445     0
   427   445   439     0
   431   444   443     0
   438   445   444     0
   422   443   445     0
   444   445   443     0
   274   447   277     0
   446   448   447     0
   275   277   448     0
   447   448   277     0
   449   451   453     0
   450   452   451     0
   446   453   452     0
   451   452   453     0
   260   283   455     0
   275   454   283     0
   450   455   454     0
   283   454   455     0
   446   452   448     0
   450   454   452     0
   275   448   454     0
   452   454   448     0
   310   315   458     0
   312   457   315     0
   456   458   457     0
   315   457   458     0
   303   460   320     0
   459   461   460     0
   312   320   461     0
   460   461   320     0
   449   462   464     0
   456   463   462     0
   459   464   463     0
   462   463   464     0
   312   461   457     0
   459   463   461     0
   456   457   463     0
   461   463   457     0
   102   256   301     0
   254   465   256     0
   300   301   465     0
   256   465   301     0
   260   467   261     0
   466   468   467     0
   254   261   468     0
   467   468   261     0
   303   307   470     0
   300   469   307     0
   466   470   469     0
   307   469   470     0
   254   468   465     0
   466   469   468     0
   300   465   469     0
   468   469   465     0
   449   464   451     0
   459   471   464     0
   450   451   471     0
   464   471   451     0
   303   470   460     0
   466   472   470     0
   459   460   472     0
   470   472   460     0
   260   455   467     0
   450   473   455     0
   466   467   473     0
   455   473   467     0
   459   472   471     0
   466   473   472     0
   450   471   473     0
   472   473   471     0
   310   475   313     0
   474   476   475     0
   311   313   476     0
   475   476   313     0
   477   479   481     0
   478   480   479     0
   474   481   480     0
   479   480   481     0
   296   319   483     0
   311   482   319     0
   478   483   482     0
   319   482   483     0
   474   480   476     0
   478   482   480     0
   311   476   482     0
   480   482   476     0
   346   351   486     0
   348   485   351     0
   484   486   485     0
   351   485   486     0
   339   488   356     0
   487   489   488     0
   348   356   489     0
   488   489   356     0
   477   490   492     0
   484   491   490     0
   487   492   491     0
   490   491   492     0
   348   489   485     0
   487   491   489     0
   484   485   491     0
   489   491   485     0
   138   292   337     0
   290   493   292     0
   336   337   493     0
   292   493   337     0
   296   495   297     0
   494   496   495     0
   290   297   496     0
   495   496   297     0
   339   343   498     0
   336   497   343     0
   494   498   497     0
   343   497   498     0
   290   496   493     0
   494   497   496     0
   336   493   497     0
   496   497   493     0
   477   492   479     0
   487   499   492     0
   478   479   499     0
   492   499   479     0
   339   498   488     0
   494   500   498     0
   487   488   500     0
   498   500   488     0
   296   483   495     0
   478   501   483     0
   494   495   501     0
   483   501   495     0
   487   500   499     0
   494   501   500     0
   478   499   501     0
   500   501   499     0
   502   505   507     0
   503   506   505     0
   504   507   506     0
   505   506   507     0
   508   510   512     0
   509   511   510     0
   503   512   511     0
   510   511   512     0
   513   514   516     0
   504   515   514     0
   509   516   515     0
   514   515   516     0
   503   511   506     0
   509   515   511     0
   504   506   515     0
   511   515   506     0
   202   374   519     0
   372   518   374     0
   517   519   518     0
   374   518   519     0
   365   521   378     0
   520   522   521     0
   372   378   522     0
   521   522   378     0
   508   523   525     0
   517   524   523     0
   520   525   524     0
   523   524   525     0
   372   522   518     0
   520   524   522     0
   517   518   524     0
   522   524   518     0
   346   527   363     0
   526   528   527     0
   362   363   528     0
   527   528   363     0
   513   530   532     0
   529   531   530     0
   526   532   531     0
   530   531   532     0
   365   369   534     0
   362   533   369     0
   529   534   533     0
   369   533   534     0
   526   531   528     0
   529   533   531     0
   362   528   533     0
   531   533   528     0
   508   525   510     0
   520   535   525     0
   509   510   535     0
   525   535   510     0
   365   534   521     0
   529   536   534     0
   520   521   536     0
   534   536   521     0
   513   516   530     0
   509   537   516     0
   529   530   537     0
   516   537   530     0
   520   536   535     0
   529   537   536     0
   509   535   537     0
   536   537   535     0
   502   539   505     0
   538   540   539     0
   503   505   540     0
   539   540   505     0
   541   543   545     0
   542   544   543     0
   538   545   544     0
   543   544   545     0
   508   512   547     0
   503   546   512     0
   542   547   546     0
   512   546   547     0
   538   544   540     0
   542   546   544     0
   503   540   546     0
   544   546   540     0
   238   402   550     0
   400   549   402     0
   548   550   549     0
   402   549   550     0
   393   552   406     0
   551   553   552     0
   400   406   553     0
   552   553   406     0
   541   554   556     0
   548   555   554     0
   551   556   555     0
   554   555   556     0
   400   553   549     0
   551   555   553     0
   548   549   555     0
   553   555   549     0
   202   519   391     0
   517   557   519     0
   390   391   557     0
   519   557   391     0
   508   559   523     0
   558   560   559     0
   517   523   560     0
   559   560   523     0
   393   397   562     0
   390   561   397     0
   558   562   561     0
   397   561   562     0
   517   560   557     0
   558   561   560     0
   390   557   561     0
   560   561   557     0
   541   556   543     0
   551   563   556     0
   542   543   563     0
   556   563   543     0
   393   562   552     0
   558   564   562     0
   551   552   564     0
   562   564   552     0
   508   547   559     0
   542   565   547     0
   558   559   565     0
   547   565   559     0
   551   564   563     0
   558   565   564     0
   542   563   565     0
   564   565   563     0
   502   567   539     0
   566   568   567     0
   538   539   568     0
   567   568   539     0
   569   571   573     0
   570   572   571     0
   566   573   572     0
   571   572   573     0
   541   545   575     0
   538   574   545     0
   570   575   574     0
   545   574   575     0
   566   572   568     0
   570   574   572     0
   538   568   574     0
   572   574   568     0
   274   430   578     0
   428   577   430     0
   576   578   577     0
   430   577   578     0
   421   580   434     0
   579   581   580     0
   428   434   581     0
   580   581   434     0
   569   582   584     0
   576   583   582     0
   579   584   583     0
   582   583   584     0
   428   581   577     0
   579   583   581     0
   576   577   583     0
   581   583   577     0
   238   550   419     0
   548   585   550     0
   418   419   585     0
   550   585   419     0
   541   587   554     0
   586   588   587     0
   548   554   588     0
   587   588   554     0
   421   425   590     0
   418   589   425     0
   586   590   589     0
   425   589   590     0
   548   588   585     0
   586   589   588     0
   418   585   589     0
   588   589   585     0
   569   584   571     0
   579   591   584     0
   570   571   591     0
   584   591   571     0
   421   590   580     0
   586   592   590     0
   579   580   592     0
   590   592   580     0
   541   575   587     0
   570   593   575     0
   586   587   593     0
   575   593   587     0
   579   592   591     0
   586   593   592     0
   570   591   593     0
   592   593   591     0
   502   595   567     0
   594   596   595     0
   566   567   596     0
   595   596   567     0
   597   599   601     0
   598   600   599     0
   594   601   600     0
   599   600   601     0
   569   573   603     0
   566   602   573     0
   598   603   602     0
   573   602   603     0
   594   600   596     0
   598   602   600     0
   566   596   602     0
   600   602   596     0
   310   458   606     0
   456   605   458     0
   604   606   605     0
   458   605   606     0
   449   608   462     0
   607   609   608     0
   456   462   609     0
   608   609   462     0
   597   610   612     0
   604   611   610     0
   607   612   611     0
   610   611   612     0
   456   609   605     0
   607   611   609     0
   604   605   611     0
   609   611   605     0
   274   578   447     0
   576   613   578     0
   446   447   613     0
   578   613   447     0
   569   615   582     0
   614   616   615     0
   576   582   616     0
   615   616   582     0
   449   453   618     0
   446   617   453     0
   614   618   617     0
   453   617   618     0
   576   616   613     0
   614   617   616     0
   446   613   617     0
   616   617   613     0
   597   612   599     0
   607   619   612     0
   598   599   619     0
   612   619   599     0
   449   618   608     0
   614   620   618     0
   607   608   620     0
   618   620   608     0
   569   603   615     0
   598   621   603     0
   614   615   621     0
   603   621   615     0
   607   620   619     0
   614   621   620     0
   598   619   621     0
   620   621   619     0
   502   507   595     0
   504   622   507     0
   594   595   622     0
   507   622   595     0
   513   624   514     0
   623   625   624     0
   504   514   625     0
   624   625   514     0
   597   601   627     0
   594   626   601     0
   623   627   626     0
   601   626   627     0
   504   625   622     0
   623   626   625     0
   594   622   626     0
   625   626   622     0
   346   486   527     0
   484   628   486     0
   526   527   628     0
   486   628   527     0
   477   630   490     0
   629   631   630     0
   484   490   631     0
   630   631   490     0
   513   532   633     0
   526   632   532     0
   629   633   632     0
   532   632   633     0
   484   631   628     0
   629   632   631     0
   526   628   632     0
   631   632   628     0
   310   606   475     0
   604   634   606     0
   474   475   634     0
   606   634   475     0
   597   636   610     0
   635   637   636     0
   604   610   637     0
   636   637   610     0
   477   481   639     0
   474   638   481     0
   635   639   638     0
   481   638   639     0
   604   637   634     0
   635   638   637     0
   474   634   638     0
   637   638   634     0
   513   633   624     0
   629   640   633     0
   623   624   640     0
   633   640   624     0
   477   639   630     0
   635   641   639     0
   629   630   641     0
   639   641   630     0
   597   627   636     0
   623   642   627     0
   635   636   642     0
   627   642   636     0
   629   641   640     0
   635   642   641     0
   623   640   642     0
   641   642   640     0
End