MeshVersion
 1
Dimension
 3
Vertices
 10
    0.577350269189626    0.577350269189626    0.577350269189626     0
    0.577350269189626   -0.577350269189626   -0.577350269189626     0
   -0.577350269189626    0.577350269189626   -0.577350269189626     0
                    1                    0                    0     0
                    0                    0                   -1     0
                    0                    1                    0     0
   -0.577350269189626   -0.577350269189626    0.577350269189626     0
                    0                   -1                    0     0
                    0                    0                    1     0
                   -1                    0                    0     0
Triangles
 16
     1     4     6     0
     2     5     4     0
     3     6     5     0
     4     5     6     0
     7     8     9     0
     2     4     8     0
     1     9     4     0
     8     4     9     0
     1     6     9     0
     3    10     6     0
     7     9    10     0
     6    10     9     0
     7    10     8     0
     3     5    10     0
     2     8     5     0
    10     5     8     0
End