MeshVersion
 1
Dimension
 3
Vertices
 514
    0.577350269189626    0.577350269189626    0.577350269189626     0
      0.7541171991928    0.464385211802447    0.464385211802447     0
    0.464385211802447      0.7541171991928    0.464385211802447     0
     0.67050872994721    0.524603680441045    0.524603680441045     0
    0.622454150039809    0.622454150039809    0.474448798287485     0
    0.524603680441045     0.67050872994721    0.524603680441045     0
    0.888073833977115    0.325057583671868    0.325057583671868     0
    0.661224832946645    0.661224832946645    0.354349320006915     0
    0.791172117459609    0.503659600713804    0.346949113218769     0
    0.712992212642278    0.567036926872641    0.412445424601001     0
    0.826984849520331    0.397552549145289    0.397552549145289     0
    0.325057583671868    0.888073833977115    0.325057583671868     0
    0.397552549145289    0.826984849520331    0.397552549145289     0
    0.567036926872641    0.712992212642278    0.412445424601001     0
    0.503659600713804    0.791172117459609    0.346949113218769     0
                    1                    0                    0     0
    0.923879532511287     0.38268343236509                    0     0
    0.971615622038138    0.167276840912665    0.167276840912665     0
     0.98078528040323    0.195090322016128                    0     0
    0.956962061813465    0.277653633546999   0.0844515957686419     0
    0.992878547970027   0.0842383196085103   0.0842383196085103     0
    0.707106781186547    0.707106781186547                    0     0
    0.827549182492217    0.535467124046354    0.168633655069179     0
    0.774368393865042    0.626987404360828   0.0850904539636909     0
    0.882475722791229    0.462619785184198   0.0849678353274017     0
    0.831469612302545    0.555570233019602                    0     0
    0.936514068018415    0.247932854220251    0.247932854220251     0
     0.91769294921245    0.358445863392062    0.171336551800469     0
    0.865682127580317    0.434210110648896    0.249110485123147     0
                    0                    1                    0     0
    0.167276840912665    0.971615622038138    0.167276840912665     0
     0.38268343236509    0.923879532511287                    0     0
   0.0842383196085103    0.992878547970027   0.0842383196085103     0
    0.277653633546999    0.956962061813465   0.0844515957686419     0
    0.195090322016128     0.98078528040323                    0     0
    0.535467124046354    0.827549182492217    0.168633655069179     0
    0.434210110648896    0.865682127580317    0.249110485123147     0
    0.358445863392062     0.91769294921245    0.171336551800469     0
    0.247932854220251    0.936514068018415    0.247932854220251     0
    0.555570233019602    0.831469612302545                    0     0
    0.462619785184198    0.882475722791229   0.0849678353274017     0
    0.626987404360828    0.774368393865042   0.0850904539636909     0
    0.751749719301915    0.604264202243722    0.264077892706396     0
     0.69652552769574     0.69652552769574    0.172349582350353     0
    0.604264202243722    0.751749719301915    0.264077892706396     0
    0.577350269189626   -0.577350269189626   -0.577350269189626     0
    0.464385211802447   -0.464385211802447     -0.7541171991928     0
      0.7541171991928   -0.464385211802447   -0.464385211802447     0
    0.524603680441045   -0.524603680441045    -0.67050872994721     0
    0.622454150039809   -0.474448798287485   -0.622454150039809     0
     0.67050872994721   -0.524603680441045   -0.524603680441045     0
    0.325057583671868   -0.325057583671868   -0.888073833977115     0
    0.661224832946645   -0.354349320006915   -0.661224832946645     0
    0.503659600713804   -0.346949113218769   -0.791172117459609     0
    0.567036926872641   -0.412445424601001   -0.712992212642278     0
    0.397552549145289   -0.397552549145289   -0.826984849520331     0
    0.888073833977115   -0.325057583671868   -0.325057583671868     0
    0.826984849520331   -0.397552549145289   -0.397552549145289     0
    0.712992212642278   -0.412445424601001   -0.567036926872641     0
    0.791172117459609   -0.346949113218769   -0.503659600713804     0
                    0                    0                   -1     0
     0.38268343236509                    0   -0.923879532511287     0
    0.167276840912665   -0.167276840912665   -0.971615622038138     0
    0.195090322016128                    0    -0.98078528040323     0
    0.277653633546999  -0.0844515957686419   -0.956962061813465     0
   0.0842383196085103  -0.0842383196085103   -0.992878547970027     0
    0.707106781186547                    0   -0.707106781186547     0
    0.535467124046354   -0.168633655069179   -0.827549182492217     0
    0.626987404360828  -0.0850904539636909   -0.774368393865042     0
    0.462619785184198  -0.0849678353274017   -0.882475722791229     0
    0.555570233019602                    0   -0.831469612302545     0
    0.247932854220251   -0.247932854220251   -0.936514068018415     0
    0.358445863392062   -0.171336551800469    -0.91769294921245     0
    0.434210110648896   -0.249110485123147   -0.865682127580317     0
    0.971615622038138   -0.167276840912665   -0.167276840912665     0
    0.923879532511287                    0    -0.38268343236509     0
    0.992878547970027  -0.0842383196085103  -0.0842383196085103     0
    0.956962061813465  -0.0844515957686419   -0.277653633546999     0
     0.98078528040323                    0   -0.195090322016128     0
    0.827549182492217   -0.168633655069179   -0.535467124046354     0
    0.865682127580317   -0.249110485123147   -0.434210110648896     0
     0.91769294921245   -0.171336551800469   -0.358445863392062     0
    0.936514068018415   -0.247932854220251   -0.247932854220251     0
    0.831469612302545                    0   -0.555570233019602     0
    0.882475722791229  -0.0849678353274017   -0.462619785184198     0
    0.774368393865042  -0.0850904539636909   -0.626987404360828     0
    0.604264202243722   -0.264077892706396   -0.751749719301915     0
     0.69652552769574   -0.172349582350353    -0.69652552769574     0
    0.751749719301915   -0.264077892706396   -0.604264202243722     0
   -0.577350269189626    0.577350269189626   -0.577350269189626     0
   -0.464385211802447      0.7541171991928   -0.464385211802447     0
   -0.464385211802447    0.464385211802447     -0.7541171991928     0
   -0.524603680441045     0.67050872994721   -0.524603680441045     0
   -0.474448798287485    0.622454150039809   -0.622454150039809     0
   -0.524603680441045    0.524603680441045    -0.67050872994721     0
   -0.325057583671868    0.888073833977115   -0.325057583671868     0
   -0.354349320006915    0.661224832946645   -0.661224832946645     0
   -0.346949113218769    0.791172117459609   -0.503659600713804     0
   -0.412445424601001    0.712992212642278   -0.567036926872641     0
   -0.397552549145289    0.826984849520331   -0.397552549145289     0
   -0.325057583671868    0.325057583671868   -0.888073833977115     0
   -0.397552549145289    0.397552549145289   -0.826984849520331     0
   -0.412445424601001    0.567036926872641   -0.712992212642278     0
   -0.346949113218769    0.503659600713804   -0.791172117459609     0
                    0    0.923879532511287    -0.38268343236509     0
   -0.167276840912665    0.971615622038138   -0.167276840912665     0
                    0     0.98078528040323   -0.195090322016128     0
  -0.0844515957686419    0.956962061813465   -0.277653633546999     0
  -0.0842383196085103    0.992878547970027  -0.0842383196085103     0
                    0    0.707106781186547   -0.707106781186547     0
   -0.168633655069179    0.827549182492217   -0.535467124046354     0
  -0.0850904539636909    0.774368393865042   -0.626987404360828     0
  -0.0849678353274017    0.882475722791229   -0.462619785184198     0
                    0    0.831469612302545   -0.555570233019602     0
   -0.247932854220251    0.936514068018415   -0.247932854220251     0
   -0.171336551800469     0.91769294921245   -0.358445863392062     0
   -0.249110485123147    0.865682127580317   -0.434210110648896     0
   -0.167276840912665    0.167276840912665   -0.971615622038138     0
                    0     0.38268343236509   -0.923879532511287     0
  -0.0842383196085103   0.0842383196085103   -0.992878547970027     0
  -0.0844515957686419    0.277653633546999   -0.956962061813465     0
                    0    0.195090322016128    -0.98078528040323     0
   -0.168633655069179    0.535467124046354   -0.827549182492217     0
   -0.249110485123147    0.434210110648896   -0.865682127580317     0
   -0.171336551800469    0.358445863392062    -0.91769294921245     0
   -0.247932854220251    0.247932854220251   -0.936514068018415     0
                    0    0.555570233019602   -0.831469612302545     0
  -0.0849678353274017    0.462619785184198   -0.882475722791229     0
  -0.0850904539636909    0.626987404360828   -0.774368393865042     0
   -0.264077892706396    0.751749719301915   -0.604264202243722     0
   -0.172349582350353     0.69652552769574    -0.69652552769574     0
   -0.264077892706396    0.604264202243722   -0.751749719301915     0
    0.959682982260667    0.198756853415513   -0.198756853415513     0
    0.816496580927726    0.408248290463863   -0.408248290463863     0
    0.788675134594813    0.211324865405187   -0.577350269189626     0
    0.890320034496634    0.208846598871523   -0.404615044596354     0
    0.890320034496634    0.404615044596354   -0.208846598871523     0
    0.788675134594813    0.577350269189626   -0.211324865405187     0
    0.198756853415513    0.198756853415513   -0.959682982260667     0
    0.408248290463863    0.408248290463863   -0.816496580927726     0
    0.211324865405187    0.577350269189626   -0.788675134594813     0
    0.208846598871523    0.404615044596354   -0.890320034496634     0
    0.404615044596354    0.208846598871523   -0.890320034496634     0
    0.577350269189626    0.211324865405187   -0.788675134594813     0
    0.198756853415513    0.959682982260667   -0.198756853415513     0
    0.408248290463863    0.816496580927726   -0.408248290463863     0
    0.577350269189626    0.788675134594813   -0.211324865405187     0
    0.404615044596354    0.890320034496634   -0.208846598871523     0
    0.208846598871523    0.890320034496634   -0.404615044596354     0
    0.211324865405187    0.788675134594813   -0.577350269189626     0
    0.639602149066831    0.426401432711221   -0.639602149066831     0
    0.426401432711221    0.639602149066831   -0.639602149066831     0
    0.639602149066831    0.639602149066831   -0.426401432711221     0
   -0.577350269189626   -0.577350269189626    0.577350269189626     0
   -0.464385211802447     -0.7541171991928    0.464385211802447     0
   -0.464385211802447   -0.464385211802447      0.7541171991928     0
   -0.524603680441045    -0.67050872994721    0.524603680441045     0
   -0.474448798287485   -0.622454150039809    0.622454150039809     0
   -0.524603680441045   -0.524603680441045     0.67050872994721     0
   -0.325057583671868   -0.888073833977115    0.325057583671868     0
   -0.354349320006915   -0.661224832946645    0.661224832946645     0
   -0.346949113218769   -0.791172117459609    0.503659600713804     0
   -0.412445424601001   -0.712992212642278    0.567036926872641     0
   -0.397552549145289   -0.826984849520331    0.397552549145289     0
   -0.325057583671868   -0.325057583671868    0.888073833977115     0
   -0.397552549145289   -0.397552549145289    0.826984849520331     0
   -0.412445424601001   -0.567036926872641    0.712992212642278     0
   -0.346949113218769   -0.503659600713804    0.791172117459609     0
                    0                   -1                    0     0
                    0   -0.923879532511287     0.38268343236509     0
   -0.167276840912665   -0.971615622038138    0.167276840912665     0
                    0    -0.98078528040323    0.195090322016128     0
  -0.0844515957686419   -0.956962061813465    0.277653633546999     0
  -0.0842383196085103   -0.992878547970027   0.0842383196085103     0
                    0   -0.707106781186547    0.707106781186547     0
   -0.168633655069179   -0.827549182492217    0.535467124046354     0
  -0.0850904539636909   -0.774368393865042    0.626987404360828     0
  -0.0849678353274017   -0.882475722791229    0.462619785184198     0
                    0   -0.831469612302545    0.555570233019602     0
   -0.247932854220251   -0.936514068018415    0.247932854220251     0
   -0.171336551800469    -0.91769294921245    0.358445863392062     0
   -0.249110485123147   -0.865682127580317    0.434210110648896     0
                    0                    0                    1     0
   -0.167276840912665   -0.167276840912665    0.971615622038138     0
                    0    -0.38268343236509    0.923879532511287     0
  -0.0842383196085103  -0.0842383196085103    0.992878547970027     0
  -0.0844515957686419   -0.277653633546999    0.956962061813465     0
                    0   -0.195090322016128     0.98078528040323     0
   -0.168633655069179   -0.535467124046354    0.827549182492217     0
   -0.249110485123147   -0.434210110648896    0.865682127580317     0
   -0.171336551800469   -0.358445863392062     0.91769294921245     0
   -0.247932854220251   -0.247932854220251    0.936514068018415     0
                    0   -0.555570233019602    0.831469612302545     0
  -0.0849678353274017   -0.462619785184198    0.882475722791229     0
  -0.0850904539636909   -0.626987404360828    0.774368393865042     0
   -0.264077892706396   -0.751749719301915    0.604264202243722     0
   -0.172349582350353    -0.69652552769574     0.69652552769574     0
   -0.264077892706396   -0.604264202243722    0.751749719301915     0
    0.464385211802447     -0.7541171991928   -0.464385211802447     0
    0.622454150039809   -0.622454150039809   -0.474448798287485     0
    0.524603680441045    -0.67050872994721   -0.524603680441045     0
    0.661224832946645   -0.661224832946645   -0.354349320006915     0
    0.791172117459609   -0.503659600713804   -0.346949113218769     0
    0.712992212642278   -0.567036926872641   -0.412445424601001     0
    0.325057583671868   -0.888073833977115   -0.325057583671868     0
    0.397552549145289   -0.826984849520331   -0.397552549145289     0
    0.567036926872641   -0.712992212642278   -0.412445424601001     0
    0.503659600713804   -0.791172117459609   -0.346949113218769     0
    0.923879532511287    -0.38268343236509                    0     0
     0.98078528040323   -0.195090322016128                    0     0
    0.956962061813465   -0.277653633546999  -0.0844515957686419     0
    0.707106781186547   -0.707106781186547                    0     0
    0.827549182492217   -0.535467124046354   -0.168633655069179     0
    0.774368393865042   -0.626987404360828  -0.0850904539636909     0
    0.882475722791229   -0.462619785184198  -0.0849678353274017     0
    0.831469612302545   -0.555570233019602                    0     0
     0.91769294921245   -0.358445863392062   -0.171336551800469     0
    0.865682127580317   -0.434210110648896   -0.249110485123147     0
    0.167276840912665   -0.971615622038138   -0.167276840912665     0
     0.38268343236509   -0.923879532511287                    0     0
   0.0842383196085103   -0.992878547970027  -0.0842383196085103     0
    0.277653633546999   -0.956962061813465  -0.0844515957686419     0
    0.195090322016128    -0.98078528040323                    0     0
    0.535467124046354   -0.827549182492217   -0.168633655069179     0
    0.434210110648896   -0.865682127580317   -0.249110485123147     0
    0.358445863392062    -0.91769294921245   -0.171336551800469     0
    0.247932854220251   -0.936514068018415   -0.247932854220251     0
    0.555570233019602   -0.831469612302545                    0     0
    0.462619785184198   -0.882475722791229  -0.0849678353274017     0
    0.626987404360828   -0.774368393865042  -0.0850904539636909     0
    0.751749719301915   -0.604264202243722   -0.264077892706396     0
     0.69652552769574    -0.69652552769574   -0.172349582350353     0
    0.604264202243722   -0.751749719301915   -0.264077892706396     0
    0.464385211802447    0.464385211802447      0.7541171991928     0
    0.524603680441045    0.524603680441045     0.67050872994721     0
    0.622454150039809    0.474448798287485    0.622454150039809     0
    0.325057583671868    0.325057583671868    0.888073833977115     0
    0.661224832946645    0.354349320006915    0.661224832946645     0
    0.503659600713804    0.346949113218769    0.791172117459609     0
    0.567036926872641    0.412445424601001    0.712992212642278     0
    0.397552549145289    0.397552549145289    0.826984849520331     0
    0.712992212642278    0.412445424601001    0.567036926872641     0
    0.791172117459609    0.346949113218769    0.503659600713804     0
     0.38268343236509                    0    0.923879532511287     0
    0.167276840912665    0.167276840912665    0.971615622038138     0
    0.195090322016128                    0     0.98078528040323     0
    0.277653633546999   0.0844515957686419    0.956962061813465     0
   0.0842383196085103   0.0842383196085103    0.992878547970027     0
    0.707106781186547                    0    0.707106781186547     0
    0.535467124046354    0.168633655069179    0.827549182492217     0
    0.626987404360828   0.0850904539636909    0.774368393865042     0
    0.462619785184198   0.0849678353274017    0.882475722791229     0
    0.555570233019602                    0    0.831469612302545     0
    0.247932854220251    0.247932854220251    0.936514068018415     0
    0.358445863392062    0.171336551800469     0.91769294921245     0
    0.434210110648896    0.249110485123147    0.865682127580317     0
    0.923879532511287                    0     0.38268343236509     0
    0.956962061813465   0.0844515957686419    0.277653633546999     0
     0.98078528040323                    0    0.195090322016128     0
    0.827549182492217    0.168633655069179    0.535467124046354     0
    0.865682127580317    0.249110485123147    0.434210110648896     0
     0.91769294921245    0.171336551800469    0.358445863392062     0
    0.831469612302545                    0    0.555570233019602     0
    0.882475722791229   0.0849678353274017    0.462619785184198     0
    0.774368393865042   0.0850904539636909    0.626987404360828     0
    0.604264202243722    0.264077892706396    0.751749719301915     0
     0.69652552769574    0.172349582350353     0.69652552769574     0
    0.751749719301915    0.264077892706396    0.604264202243722     0
    0.198756853415513   -0.959682982260667    0.198756853415513     0
    0.408248290463863   -0.816496580927726    0.408248290463863     0
    0.577350269189626   -0.788675134594813    0.211324865405187     0
    0.404615044596354   -0.890320034496634    0.208846598871523     0
    0.208846598871523   -0.890320034496634    0.404615044596354     0
    0.211324865405187   -0.788675134594813    0.577350269189626     0
    0.959682982260667   -0.198756853415513    0.198756853415513     0
    0.816496580927726   -0.408248290463863    0.408248290463863     0
    0.788675134594813   -0.211324865405187    0.577350269189626     0
    0.890320034496634   -0.208846598871523    0.404615044596354     0
    0.890320034496634   -0.404615044596354    0.208846598871523     0
    0.788675134594813   -0.577350269189626    0.211324865405187     0
    0.198756853415513   -0.198756853415513    0.959682982260667     0
    0.408248290463863   -0.408248290463863    0.816496580927726     0
    0.211324865405187   -0.577350269189626    0.788675134594813     0
    0.208846598871523   -0.404615044596354    0.890320034496634     0
    0.404615044596354   -0.208846598871523    0.890320034496634     0
    0.577350269189626   -0.211324865405187    0.788675134594813     0
    0.639602149066831   -0.639602149066831    0.426401432711221     0
    0.639602149066831   -0.426401432711221    0.639602149066831     0
    0.426401432711221   -0.639602149066831    0.639602149066831     0
    0.474448798287485    0.622454150039809    0.622454150039809     0
    0.354349320006915    0.661224832946645    0.661224832946645     0
    0.346949113218769    0.791172117459609    0.503659600713804     0
    0.412445424601001    0.712992212642278    0.567036926872641     0
    0.412445424601001    0.567036926872641    0.712992212642278     0
    0.346949113218769    0.503659600713804    0.791172117459609     0
                    0    0.923879532511287     0.38268343236509     0
                    0     0.98078528040323    0.195090322016128     0
   0.0844515957686419    0.956962061813465    0.277653633546999     0
                    0    0.707106781186547    0.707106781186547     0
    0.168633655069179    0.827549182492217    0.535467124046354     0
   0.0850904539636909    0.774368393865042    0.626987404360828     0
   0.0849678353274017    0.882475722791229    0.462619785184198     0
                    0    0.831469612302545    0.555570233019602     0
    0.171336551800469     0.91769294921245    0.358445863392062     0
    0.249110485123147    0.865682127580317    0.434210110648896     0
                    0     0.38268343236509    0.923879532511287     0
   0.0844515957686419    0.277653633546999    0.956962061813465     0
                    0    0.195090322016128     0.98078528040323     0
    0.168633655069179    0.535467124046354    0.827549182492217     0
    0.249110485123147    0.434210110648896    0.865682127580317     0
    0.171336551800469    0.358445863392062     0.91769294921245     0
                    0    0.555570233019602    0.831469612302545     0
   0.0849678353274017    0.462619785184198    0.882475722791229     0
   0.0850904539636909    0.626987404360828    0.774368393865042     0
    0.264077892706396    0.751749719301915    0.604264202243722     0
    0.172349582350353     0.69652552769574     0.69652552769574     0
    0.264077892706396    0.604264202243722    0.751749719301915     0
     -0.7541171991928    0.464385211802447   -0.464385211802447     0
    -0.67050872994721    0.524603680441045   -0.524603680441045     0
   -0.622454150039809    0.622454150039809   -0.474448798287485     0
   -0.888073833977115    0.325057583671868   -0.325057583671868     0
   -0.661224832946645    0.661224832946645   -0.354349320006915     0
   -0.791172117459609    0.503659600713804   -0.346949113218769     0
   -0.712992212642278    0.567036926872641   -0.412445424601001     0
   -0.826984849520331    0.397552549145289   -0.397552549145289     0
   -0.567036926872641    0.712992212642278   -0.412445424601001     0
   -0.503659600713804    0.791172117459609   -0.346949113218769     0
                   -1                    0                    0     0
   -0.923879532511287     0.38268343236509                    0     0
   -0.971615622038138    0.167276840912665   -0.167276840912665     0
    -0.98078528040323    0.195090322016128                    0     0
   -0.956962061813465    0.277653633546999  -0.0844515957686419     0
   -0.992878547970027   0.0842383196085103  -0.0842383196085103     0
   -0.707106781186547    0.707106781186547                    0     0
   -0.827549182492217    0.535467124046354   -0.168633655069179     0
   -0.774368393865042    0.626987404360828  -0.0850904539636909     0
   -0.882475722791229    0.462619785184198  -0.0849678353274017     0
   -0.831469612302545    0.555570233019602                    0     0
   -0.936514068018415    0.247932854220251   -0.247932854220251     0
    -0.91769294921245    0.358445863392062   -0.171336551800469     0
   -0.865682127580317    0.434210110648896   -0.249110485123147     0
    -0.38268343236509    0.923879532511287                    0     0
   -0.277653633546999    0.956962061813465  -0.0844515957686419     0
   -0.195090322016128     0.98078528040323                    0     0
   -0.535467124046354    0.827549182492217   -0.168633655069179     0
   -0.434210110648896    0.865682127580317   -0.249110485123147     0
   -0.358445863392062     0.91769294921245   -0.171336551800469     0
   -0.555570233019602    0.831469612302545                    0     0
   -0.462619785184198    0.882475722791229  -0.0849678353274017     0
   -0.626987404360828    0.774368393865042  -0.0850904539636909     0
   -0.751749719301915    0.604264202243722   -0.264077892706396     0
    -0.69652552769574     0.69652552769574   -0.172349582350353     0
   -0.604264202243722    0.751749719301915   -0.264077892706396     0
     -0.7541171991928   -0.464385211802447    0.464385211802447     0
   -0.622454150039809   -0.474448798287485    0.622454150039809     0
    -0.67050872994721   -0.524603680441045    0.524603680441045     0
   -0.661224832946645   -0.354349320006915    0.661224832946645     0
   -0.503659600713804   -0.346949113218769    0.791172117459609     0
   -0.567036926872641   -0.412445424601001    0.712992212642278     0
   -0.888073833977115   -0.325057583671868    0.325057583671868     0
   -0.826984849520331   -0.397552549145289    0.397552549145289     0
   -0.712992212642278   -0.412445424601001    0.567036926872641     0
   -0.791172117459609   -0.346949113218769    0.503659600713804     0
    -0.38268343236509                    0    0.923879532511287     0
   -0.195090322016128                    0     0.98078528040323     0
   -0.277653633546999  -0.0844515957686419    0.956962061813465     0
   -0.707106781186547                    0    0.707106781186547     0
   -0.535467124046354   -0.168633655069179    0.827549182492217     0
   -0.626987404360828  -0.0850904539636909    0.774368393865042     0
   -0.462619785184198  -0.0849678353274017    0.882475722791229     0
   -0.555570233019602                    0    0.831469612302545     0
   -0.358445863392062   -0.171336551800469     0.91769294921245     0
   -0.434210110648896   -0.249110485123147    0.865682127580317     0
   -0.971615622038138   -0.167276840912665    0.167276840912665     0
   -0.923879532511287                    0     0.38268343236509     0
   -0.992878547970027  -0.0842383196085103   0.0842383196085103     0
   -0.956962061813465  -0.0844515957686419    0.277653633546999     0
    -0.98078528040323                    0    0.195090322016128     0
   -0.827549182492217   -0.168633655069179    0.535467124046354     0
   -0.865682127580317   -0.249110485123147    0.434210110648896     0
    -0.91769294921245   -0.171336551800469    0.358445863392062     0
   -0.936514068018415   -0.247932854220251    0.247932854220251     0
   -0.831469612302545                    0    0.555570233019602     0
   -0.882475722791229  -0.0849678353274017    0.462619785184198     0
   -0.774368393865042  -0.0850904539636909    0.626987404360828     0
   -0.604264202243722   -0.264077892706396    0.751749719301915     0
    -0.69652552769574   -0.172349582350353     0.69652552769574     0
   -0.751749719301915   -0.264077892706396    0.604264202243722     0
   -0.198756853415513    0.959682982260667    0.198756853415513     0
   -0.408248290463863    0.816496580927726    0.408248290463863     0
   -0.577350269189626    0.788675134594813    0.211324865405187     0
   -0.404615044596354    0.890320034496634    0.208846598871523     0
   -0.208846598871523    0.890320034496634    0.404615044596354     0
   -0.211324865405187    0.788675134594813    0.577350269189626     0
   -0.959682982260667    0.198756853415513    0.198756853415513     0
   -0.816496580927726    0.408248290463863    0.408248290463863     0
   -0.788675134594813    0.211324865405187    0.577350269189626     0
   -0.890320034496634    0.208846598871523    0.404615044596354     0
   -0.890320034496634    0.404615044596354    0.208846598871523     0
   -0.788675134594813    0.577350269189626    0.211324865405187     0
   -0.198756853415513    0.198756853415513    0.959682982260667     0
   -0.408248290463863    0.408248290463863    0.816496580927726     0
   -0.211324865405187    0.577350269189626    0.788675134594813     0
   -0.208846598871523    0.404615044596354    0.890320034496634     0
   -0.404615044596354    0.208846598871523    0.890320034496634     0
   -0.577350269189626    0.211324865405187    0.788675134594813     0
   -0.639602149066831    0.639602149066831    0.426401432711221     0
   -0.639602149066831    0.426401432711221    0.639602149066831     0
   -0.426401432711221    0.639602149066831    0.639602149066831     0
   -0.622454150039809   -0.622454150039809    0.474448798287485     0
   -0.661224832946645   -0.661224832946645    0.354349320006915     0
   -0.791172117459609   -0.503659600713804    0.346949113218769     0
   -0.712992212642278   -0.567036926872641    0.412445424601001     0
   -0.567036926872641   -0.712992212642278    0.412445424601001     0
   -0.503659600713804   -0.791172117459609    0.346949113218769     0
   -0.923879532511287    -0.38268343236509                    0     0
    -0.98078528040323   -0.195090322016128                    0     0
   -0.956962061813465   -0.277653633546999   0.0844515957686419     0
   -0.707106781186547   -0.707106781186547                    0     0
   -0.827549182492217   -0.535467124046354    0.168633655069179     0
   -0.774368393865042   -0.626987404360828   0.0850904539636909     0
   -0.882475722791229   -0.462619785184198   0.0849678353274017     0
   -0.831469612302545   -0.555570233019602                    0     0
    -0.91769294921245   -0.358445863392062    0.171336551800469     0
   -0.865682127580317   -0.434210110648896    0.249110485123147     0
    -0.38268343236509   -0.923879532511287                    0     0
   -0.277653633546999   -0.956962061813465   0.0844515957686419     0
   -0.195090322016128    -0.98078528040323                    0     0
   -0.535467124046354   -0.827549182492217    0.168633655069179     0
   -0.434210110648896   -0.865682127580317    0.249110485123147     0
   -0.358445863392062    -0.91769294921245    0.171336551800469     0
   -0.555570233019602   -0.831469612302545                    0     0
   -0.462619785184198   -0.882475722791229   0.0849678353274017     0
   -0.626987404360828   -0.774368393865042   0.0850904539636909     0
   -0.751749719301915   -0.604264202243722    0.264077892706396     0
    -0.69652552769574    -0.69652552769574    0.172349582350353     0
   -0.604264202243722   -0.751749719301915    0.264077892706396     0
   -0.622454150039809    0.474448798287485   -0.622454150039809     0
   -0.661224832946645    0.354349320006915   -0.661224832946645     0
   -0.503659600713804    0.346949113218769   -0.791172117459609     0
   -0.567036926872641    0.412445424601001   -0.712992212642278     0
   -0.712992212642278    0.412445424601001   -0.567036926872641     0
   -0.791172117459609    0.346949113218769   -0.503659600713804     0
    -0.38268343236509                    0   -0.923879532511287     0
   -0.195090322016128                    0    -0.98078528040323     0
   -0.277653633546999   0.0844515957686419   -0.956962061813465     0
   -0.707106781186547                    0   -0.707106781186547     0
   -0.535467124046354    0.168633655069179   -0.827549182492217     0
   -0.626987404360828   0.0850904539636909   -0.774368393865042     0
   -0.462619785184198   0.0849678353274017   -0.882475722791229     0
   -0.555570233019602                    0   -0.831469612302545     0
   -0.358445863392062    0.171336551800469    -0.91769294921245     0
   -0.434210110648896    0.249110485123147   -0.865682127580317     0
   -0.923879532511287                    0    -0.38268343236509     0
   -0.956962061813465   0.0844515957686419   -0.277653633546999     0
    -0.98078528040323                    0   -0.195090322016128     0
   -0.827549182492217    0.168633655069179   -0.535467124046354     0
   -0.865682127580317    0.249110485123147   -0.434210110648896     0
    -0.91769294921245    0.171336551800469   -0.358445863392062     0
   -0.831469612302545                    0   -0.555570233019602     0
   -0.882475722791229   0.0849678353274017   -0.462619785184198     0
   -0.774368393865042   0.0850904539636909   -0.626987404360828     0
   -0.604264202243722    0.264077892706396   -0.751749719301915     0
    -0.69652552769574    0.172349582350353    -0.69652552769574     0
   -0.751749719301915    0.264077892706396   -0.604264202243722     0
    0.474448798287485   -0.622454150039809   -0.622454150039809     0
    0.354349320006915   -0.661224832946645   -0.661224832946645     0
    0.346949113218769   -0.791172117459609   -0.503659600713804     0
    0.412445424601001   -0.712992212642278   -0.567036926872641     0
    0.412445424601001   -0.567036926872641   -0.712992212642278     0
    0.346949113218769   -0.503659600713804   -0.791172117459609     0
                    0   -0.923879532511287    -0.38268343236509     0
                    0    -0.98078528040323   -0.195090322016128     0
   0.0844515957686419   -0.956962061813465   -0.277653633546999     0
                    0   -0.707106781186547   -0.707106781186547     0
    0.168633655069179   -0.827549182492217   -0.535467124046354     0
   0.0850904539636909   -0.774368393865042   -0.626987404360828     0
   0.0849678353274017   -0.882475722791229   -0.462619785184198     0
                    0   -0.831469612302545   -0.555570233019602     0
    0.171336551800469    -0.91769294921245   -0.358445863392062     0
    0.249110485123147   -0.865682127580317   -0.434210110648896     0
                    0    -0.38268343236509   -0.923879532511287     0
   0.0844515957686419   -0.277653633546999   -0.956962061813465     0
                    0   -0.195090322016128    -0.98078528040323     0
    0.168633655069179   -0.535467124046354   -0.827549182492217     0
    0.249110485123147   -0.434210110648896   -0.865682127580317     0
    0.171336551800469   -0.358445863392062    -0.91769294921245     0
                    0   -0.555570233019602   -0.831469612302545     0
   0.0849678353274017   -0.462619785184198   -0.882475722791229     0
   0.0850904539636909   -0.626987404360828   -0.774368393865042     0
    0.264077892706396   -0.751749719301915   -0.604264202243722     0
    0.172349582350353    -0.69652552769574    -0.69652552769574     0
    0.264077892706396   -0.604264202243722   -0.751749719301915     0
   -0.959682982260667   -0.198756853415513   -0.198756853415513     0
   -0.816496580927726   -0.408248290463863   -0.408248290463863     0
   -0.788675134594813   -0.211324865405187   -0.577350269189626     0
   -0.890320034496634   -0.208846598871523   -0.404615044596354     0
   -0.890320034496634   -0.404615044596354   -0.208846598871523     0
   -0.788675134594813   -0.577350269189626   -0.211324865405187     0
   -0.198756853415513   -0.198756853415513   -0.959682982260667     0
   -0.408248290463863   -0.408248290463863   -0.816496580927726     0
   -0.211324865405187   -0.577350269189626   -0.788675134594813     0
   -0.208846598871523   -0.404615044596354   -0.890320034496634     0
   -0.404615044596354   -0.208846598871523   -0.890320034496634     0
   -0.577350269189626   -0.211324865405187   -0.788675134594813     0
   -0.198756853415513   -0.959682982260667   -0.198756853415513     0
   -0.408248290463863   -0.816496580927726   -0.408248290463863     0
   -0.577350269189626   -0.788675134594813   -0.211324865405187     0
   -0.404615044596354   -0.890320034496634   -0.208846598871523     0
   -0.208846598871523   -0.890320034496634   -0.404615044596354     0
   -0.211324865405187   -0.788675134594813   -0.577350269189626     0
   -0.639602149066831   -0.426401432711221   -0.639602149066831     0
   -0.426401432711221   -0.639602149066831   -0.639602149066831     0
   -0.639602149066831   -0.639602149066831   -0.426401432711221     0
Triangles
 1024
     1     4     6     0
     2     5     4     0
     3     6     5     0
     4     5     6     0
     7     9    11     0
     8    10     9     0
     2    11    10     0
     9    10    11     0
    12    13    15     0
     3    14    13     0
     8    15    14     0
    13    14    15     0
     2    10     5     0
     8    14    10     0
     3     5    14     0
    10    14     5     0
    16    19    21     0
    17    20    19     0
    18    21    20     0
    19    20    21     0
    22    24    26     0
    23    25    24     0
    17    26    25     0
    24    25    26     0
     7    27    29     0
    18    28    27     0
    23    29    28     0
    27    28    29     0
    17    25    20     0
    23    28    25     0
    18    20    28     0
    25    28    20     0
    30    33    35     0
    31    34    33     0
    32    35    34     0
    33    34    35     0
    12    37    39     0
    36    38    37     0
    31    39    38     0
    37    38    39     0
    22    40    42     0
    32    41    40     0
    36    42    41     0
    40    41    42     0
    31    38    34     0
    36    41    38     0
    32    34    41     0
    38    41    34     0
     7    29     9     0
    23    43    29     0
     8     9    43     0
    29    43     9     0
    22    42    24     0
    36    44    42     0
    23    24    44     0
    42    44    24     0
    12    15    37     0
     8    45    15     0
    36    37    45     0
    15    45    37     0
    23    44    43     0
    36    45    44     0
     8    43    45     0
    44    45    43     0
    46    49    51     0
    47    50    49     0
    48    51    50     0
    49    50    51     0
    52    54    56     0
    53    55    54     0
    47    56    55     0
    54    55    56     0
    57    58    60     0
    48    59    58     0
    53    60    59     0
    58    59    60     0
    47    55    50     0
    53    59    55     0
    48    50    59     0
    55    59    50     0
    61    64    66     0
    62    65    64     0
    63    66    65     0
    64    65    66     0
    67    69    71     0
    68    70    69     0
    62    71    70     0
    69    70    71     0
    52    72    74     0
    63    73    72     0
    68    74    73     0
    72    73    74     0
    62    70    65     0
    68    73    70     0
    63    65    73     0
    70    73    65     0
    16    77    79     0
    75    78    77     0
    76    79    78     0
    77    78    79     0
    57    81    83     0
    80    82    81     0
    75    83    82     0
    81    82    83     0
    67    84    86     0
    76    85    84     0
    80    86    85     0
    84    85    86     0
    75    82    78     0
    80    85    82     0
    76    78    85     0
    82    85    78     0
    52    74    54     0
    68    87    74     0
    53    54    87     0
    74    87    54     0
    67    86    69     0
    80    88    86     0
    68    69    88     0
    86    88    69     0
    57    60    81     0
    53    89    60     0
    80    81    89     0
    60    89    81     0
    68    88    87     0
    80    89    88     0
    53    87    89     0
    88    89    87     0
    90    93    95     0
    91    94    93     0
    92    95    94     0
    93    94    95     0
    96    98   100     0
    97    99    98     0
    91   100    99     0
    98    99   100     0
   101   102   104     0
    92   103   102     0
    97   104   103     0
   102   103   104     0
    91    99    94     0
    97   103    99     0
    92    94   103     0
    99   103    94     0
    30   107   109     0
   105   108   107     0
   106   109   108     0
   107   108   109     0
   110   112   114     0
   111   113   112     0
   105   114   113     0
   112   113   114     0
    96   115   117     0
   106   116   115     0
   111   117   116     0
   115   116   117     0
   105   113   108     0
   111   116   113     0
   106   108   116     0
   113   116   108     0
    61   120   122     0
   118   121   120     0
   119   122   121     0
   120   121   122     0
   101   124   126     0
   123   125   124     0
   118   126   125     0
   124   125   126     0
   110   127   129     0
   119   128   127     0
   123   129   128     0
   127   128   129     0
   118   125   121     0
   123   128   125     0
   119   121   128     0
   125   128   121     0
    96   117    98     0
   111   130   117     0
    97    98   130     0
   117   130    98     0
   110   129   112     0
   123   131   129     0
   111   112   131     0
   129   131   112     0
   101   104   124     0
    97   132   104     0
   123   124   132     0
   104   132   124     0
   111   131   130     0
   123   132   131     0
    97   130   132     0
   131   132   130     0
    16    79    19     0
    76   133    79     0
    17    19   133     0
    79   133    19     0
    67   135    84     0
   134   136   135     0
    76    84   136     0
   135   136    84     0
    22    26   138     0
    17   137    26     0
   134   138   137     0
    26   137   138     0
    76   136   133     0
   134   137   136     0
    17   133   137     0
   136   137   133     0
    61   122    64     0
   119   139   122     0
    62    64   139     0
   122   139    64     0
   110   141   127     0
   140   142   141     0
   119   127   142     0
   141   142   127     0
    67    71   144     0
    62   143    71     0
   140   144   143     0
    71   143   144     0
   119   142   139     0
   140   143   142     0
    62   139   143     0
   142   143   139     0
    30    35   107     0
    32   145    35     0
   105   107   145     0
    35   145   107     0
    22   147    40     0
   146   148   147     0
    32    40   148     0
   147   148    40     0
   110   114   150     0
   105   149   114     0
   146   150   149     0
   114   149   150     0
    32   148   145     0
   146   149   148     0
   105   145   149     0
   148   149   145     0
    67   144   135     0
   140   151   144     0
   134   135   151     0
   144   151   135     0
   110   150   141     0
   146   152   150     0
   140   141   152     0
   150   152   141     0
    22   138   147     0
   134   153   138     0
   146   147   153     0
   138   153   147     0
   140   152   151     0
   146   153   152     0
   134   151   153     0
   152   153   151     0
   154   157   159     0
   155   158   157     0
   156   159   158     0
   157   158   159     0
   160   162   164     0
   161   163   162     0
   155   164   163     0
   162   163   164     0
   165   166   168     0
   156   167   166     0
   161   168   167     0
   166   167   168     0
   155   163   158     0
   161   167   163     0
   156   158   167     0
   163   167   158     0
   169   172   174     0
   170   173   172     0
   171   174   173     0
   172   173   174     0
   175   177   179     0
   176   178   177     0
   170   179   178     0
   177   178   179     0
   160   180   182     0
   171   181   180     0
   176   182   181     0
   180   181   182     0
   170   178   173     0
   176   181   178     0
   171   173   181     0
   178   181   173     0
   183   186   188     0
   184   187   186     0
   185   188   187     0
   186   187   188     0
   165   190   192     0
   189   191   190     0
   184   192   191     0
   190   191   192     0
   175   193   195     0
   185   194   193     0
   189   195   194     0
   193   194   195     0
   184   191   187     0
   189   194   191     0
   185   187   194     0
   191   194   187     0
   160   182   162     0
   176   196   182     0
   161   162   196     0
   182   196   162     0
   175   195   177     0
   189   197   195     0
   176   177   197     0
   195   197   177     0
   165   168   190     0
   161   198   168     0
   189   190   198     0
   168   198   190     0
   176   197   196     0
   189   198   197     0
   161   196   198     0
   197   198   196     0
    46    51   201     0
    48   200    51     0
   199   201   200     0
    51   200   201     0
    57   203    58     0
   202   204   203     0
    48    58   204     0
   203   204    58     0
   205   206   208     0
   199   207   206     0
   202   208   207     0
   206   207   208     0
    48   204   200     0
   202   207   204     0
   199   200   207     0
   204   207   200     0
    16   210    77     0
   209   211   210     0
    75    77   211     0
   210   211    77     0
   212   214   216     0
   213   215   214     0
   209   216   215     0
   214   215   216     0
    57    83   218     0
    75   217    83     0
   213   218   217     0
    83   217   218     0
   209   215   211     0
   213   217   215     0
    75   211   217     0
   215   217   211     0
   169   221   223     0
   219   222   221     0
   220   223   222     0
   221   222   223     0
   205   225   227     0
   224   226   225     0
   219   227   226     0
   225   226   227     0
   212   228   230     0
   220   229   228     0
   224   230   229     0
   228   229   230     0
   219   226   222     0
   224   229   226     0
   220   222   229     0
   226   229   222     0
    57   218   203     0
   213   231   218     0
   202   203   231     0
   218   231   203     0
   212   230   214     0
   224   232   230     0
   213   214   232     0
   230   232   214     0
   205   208   225     0
   202   233   208     0
   224   225   233     0
   208   233   225     0
   213   232   231     0
   224   233   232     0
   202   231   233     0
   232   233   231     0
     1   235     4     0
   234   236   235     0
     2     4   236     0
   235   236     4     0
   237   239   241     0
   238   240   239     0
   234   241   240     0
   239   240   241     0
     7    11   243     0
     2   242    11     0
   238   243   242     0
    11   242   243     0
   234   240   236     0
   238   242   240     0
     2   236   242     0
   240   242   236     0
   183   246   248     0
   244   247   246     0
   245   248   247     0
   246   247   248     0
   249   251   253     0
   250   252   251     0
   244   253   252     0
   251   252   253     0
   237   254   256     0
   245   255   254     0
   250   256   255     0
   254   255   256     0
   244   252   247     0
   250   255   252     0
   245   247   255     0
   252   255   247     0
    16    21   259     0
    18   258    21     0
   257   259   258     0
    21   258   259     0
     7   261    27     0
   260   262   261     0
    18    27   262     0
   261   262    27     0
   249   263   265     0
   257   264   263     0
   260   265   264     0
   263   264   265     0
    18   262   258     0
   260   264   262     0
   257   258   264     0
   262   264   258     0
   237   256   239     0
   250   266   256     0
   238   239   266     0
   256   266   239     0
   249   265   251     0
   260   267   265     0
   250   251   267     0
   265   267   251     0
     7   243   261     0
   238   268   243     0
   260   261   268     0
   243   268   261     0
   250   267   266     0
   260   268   267     0
   238   266   268     0
   267   268   266     0
   169   223   172     0
   220   269   223     0
   170   172   269     0
   223   269   172     0
   212   271   228     0
   270   272   271     0
   220   228   272     0
   271   272   228     0
   175   179   274     0
   170   273   179     0
   270   274   273     0
   179   273   274     0
   220   272   269     0
   270   273   272     0
   170   269   273     0
   272   273   269     0
    16   259   210     0
   257   275   259     0
   209   210   275     0
   259   275   210     0
   249   277   263     0
   276   278   277     0
   257   263   278     0
   277   278   263     0
   212   216   280     0
   209   279   216     0
   276   280   279     0
   216   279   280     0
   257   278   275     0
   276   279   278     0
   209   275   279     0
   278   279   275     0
   183   188   246     0
   185   281   188     0
   244   246   281     0
   188   281   246     0
   175   283   193     0
   282   284   283     0
   185   193   284     0
   283   284   193     0
   249   253   286     0
   244   285   253     0
   282   286   285     0
   253   285   286     0
   185   284   281     0
   282   285   284     0
   244   281   285     0
   284   285   281     0
   212   280   271     0
   276   287   280     0
   270   271   287     0
   280   287   271     0
   249   286   277     0
   282   288   286     0
   276   277   288     0
   286   288   277     0
   175   274   283     0
   270   289   274     0
   282   283   289     0
   274   289   283     0
   276   288   287     0
   282   289   288     0
   270   287   289     0
   288   289   287     0
     1     6   235     0
     3   290     6     0
   234   235   290     0
     6   290   235     0
    12   292    13     0
   291   293   292     0
     3    13   293     0
   292   293    13     0
   237   241   295     0
   234   294   241     0
   291   295   294     0
   241   294   295     0
     3   293   290     0
   291   294   293     0
   234   290   294     0
   293   294   290     0
    30   297    33     0
   296   298   297     0
    31    33   298     0
   297   298    33     0
   299   301   303     0
   300   302   301     0
   296   303   302     0
   301   302   303     0
    12    39   305     0
    31   304    39     0
   300   305   304     0
    39   304   305     0
   296   302   298     0
   300   304   302     0
    31   298   304     0
   302   304   298     0
   183   248   308     0
   245   307   248     0
   306   308   307     0
   248   307   308     0
   237   310   254     0
   309   311   310     0
   245   254   311     0
   310   311   254     0
   299   312   314     0
   306   313   312     0
   309   314   313     0
   312   313   314     0
   245   311   307     0
   309   313   311     0
   306   307   313     0
   311   313   307     0
    12   305   292     0
   300   315   305     0
   291   292   315     0
   305   315   292     0
   299   314   301     0
   309   316   314     0
   300   301   316     0
   314   316   301     0
   237   295   310     0
   291   317   295     0
   309   310   317     0
   295   317   310     0
   300   316   315     0
   309   317   316     0
   291   315   317     0
   316   317   315     0
    90   319    93     0
   318   320   319     0
    91    93   320     0
   319   320    93     0
   321   323   325     0
   322   324   323     0
   318   325   324     0
   323   324   325     0
    96   100   327     0
    91   326   100     0
   322   327   326     0
   100   326   327     0
   318   324   320     0
   322   326   324     0
    91   320   326     0
   324   326   320     0
   328   331   333     0
   329   332   331     0
   330   333   332     0
   331   332   333     0
   334   336   338     0
   335   337   336     0
   329   338   337     0
   336   337   338     0
   321   339   341     0
   330   340   339     0
   335   341   340     0
   339   340   341     0
   329   337   332     0
   335   340   337     0
   330   332   340     0
   337   340   332     0
    30   109   344     0
   106   343   109     0
   342   344   343     0
   109   343   344     0
    96   346   115     0
   345   347   346     0
   106   115   347     0
   346   347   115     0
   334   348   350     0
   342   349   348     0
   345   350   349     0
   348   349   350     0
   106   347   343     0
   345   349   347     0
   342   343   349     0
   347   349   343     0
   321   341   323     0
   335   351   341     0
   322   323   351     0
   341   351   323     0
   334   350   336     0
   345   352   350     0
   335   336   352     0
   350   352   336     0
    96   327   346     0
   322   353   327     0
   345   346   353     0
   327   353   346     0
   335   352   351     0
   345   353   352     0
   322   351   353     0
   352   353   351     0
   154   159   356     0
   156   355   159     0
   354   356   355     0
   159   355   356     0
   165   358   166     0
   357   359   358     0
   156   166   359     0
   358   359   166     0
   360   361   363     0
   354   362   361     0
   357   363   362     0
   361   362   363     0
   156   359   355     0
   357   362   359     0
   354   355   362     0
   359   362   355     0
   183   365   186     0
   364   366   365     0
   184   186   366     0
   365   366   186     0
   367   369   371     0
   368   370   369     0
   364   371   370     0
   369   370   371     0
   165   192   373     0
   184   372   192     0
   368   373   372     0
   192   372   373     0
   364   370   366     0
   368   372   370     0
   184   366   372     0
   370   372   366     0
   328   376   378     0
   374   377   376     0
   375   378   377     0
   376   377   378     0
   360   380   382     0
   379   381   380     0
   374   382   381     0
   380   381   382     0
   367   383   385     0
   375   384   383     0
   379   385   384     0
   383   384   385     0
   374   381   377     0
   379   384   381     0
   375   377   384     0
   381   384   377     0
   165   373   358     0
   368   386   373     0
   357   358   386     0
   373   386   358     0
   367   385   369     0
   379   387   385     0
   368   369   387     0
   385   387   369     0
   360   363   380     0
   357   388   363     0
   379   380   388     0
   363   388   380     0
   368   387   386     0
   379   388   387     0
   357   386   388     0
   387   388   386     0
    30   344   297     0
   342   389   344     0
   296   297   389     0
   344   389   297     0
   334   391   348     0
   390   392   391     0
   342   348   392     0
   391   392   348     0
   299   303   394     0
   296   393   303     0
   390   394   393     0
   303   393   394     0
   342   392   389     0
   390   393   392     0
   296   389   393     0
   392   393   389     0
   328   378   331     0
   375   395   378     0
   329   331   395     0
   378   395   331     0
   367   397   383     0
   396   398   397     0
   375   383   398     0
   397   398   383     0
   334   338   400     0
   329   399   338     0
   396   400   399     0
   338   399   400     0
   375   398   395     0
   396   399   398     0
   329   395   399     0
   398   399   395     0
   183   308   365     0
   306   401   308     0
   364   365   401     0
   308   401   365     0
   299   403   312     0
   402   404   403     0
   306   312   404     0
   403   404   312     0
   367   371   406     0
   364   405   371     0
   402   406   405     0
   371   405   406     0
   306   404   401     0
   402   405   404     0
   364   401   405     0
   404   405   401     0
   334   400   391     0
   396   407   400     0
   390   391   407     0
   400   407   391     0
   367   406   397     0
   402   408   406     0
   396   397   408     0
   406   408   397     0
   299   394   403     0
   390   409   394     0
   402   403   409     0
   394   409   403     0
   396   408   407     0
   402   409   408     0
   390   407   409     0
   408   409   407     0
   154   356   157     0
   354   410   356     0
   155   157   410     0
   356   410   157     0
   360   412   361     0
   411   413   412     0
   354   361   413     0
   412   413   361     0
   160   164   415     0
   155   414   164     0
   411   415   414     0
   164   414   415     0
   354   413   410     0
   411   414   413     0
   155   410   414     0
   413   414   410     0
   328   417   376     0
   416   418   417     0
   374   376   418     0
   417   418   376     0
   419   421   423     0
   420   422   421     0
   416   423   422     0
   421   422   423     0
   360   382   425     0
   374   424   382     0
   420   425   424     0
   382   424   425     0
   416   422   418     0
   420   424   422     0
   374   418   424     0
   422   424   418     0
   169   174   428     0
   171   427   174     0
   426   428   427     0
   174   427   428     0
   160   430   180     0
   429   431   430     0
   171   180   431     0
   430   431   180     0
   419   432   434     0
   426   433   432     0
   429   434   433     0
   432   433   434     0
   171   431   427     0
   429   433   431     0
   426   427   433     0
   431   433   427     0
   360   425   412     0
   420   435   425     0
   411   412   435     0
   425   435   412     0
   419   434   421     0
   429   436   434     0
   420   421   436     0
   434   436   421     0
   160   415   430     0
   411   437   415     0
   429   430   437     0
   415   437   430     0
   420   436   435     0
   429   437   436     0
   411   435   437     0
   436   437   435     0
    90    95   319     0
    92   438    95     0
   318   319   438     0
    95   438   319     0
   101   440   102     0
   439   441   440     0
    92   102   441     0
   440   441   102     0
   321   325   443     0
   318   442   325     0
   439   443   442     0
   325   442   443     0
    92   441   438     0
   439   442   441     0
   318   438   442     0
   441   442   438     0
    61   445   120     0
   444   446   445     0
   118   120   446     0
   445   446   120     0
   447   449   451     0
   448   450   449     0
   444   451   450     0
   449   450   451     0
   101   126   453     0
   118   452   126     0
   448   453   452     0
   126   452   453     0
   444   450   446     0
   448   452   450     0
   118   446   452     0
   450   452   446     0
   328   333   456     0
   330   455   333     0
   454   456   455     0
   333   455   456     0
   321   458   339     0
   457   459   458     0
   330   339   459     0
   458   459   339     0
   447   460   462     0
   454   461   460     0
   457   462   461     0
   460   461   462     0
   330   459   455     0
   457   461   459     0
   454   455   461     0
   459   461   455     0
   101   453   440     0
   448   463   453     0
   439   440   463     0
   453   463   440     0
   447   462   449     0
   457   464   462     0
   448   449   464     0
   462   464   449     0
   321   443   458     0
   439   465   443     0
   457   458   465     0
   443   465   458     0
   448   464   463     0
   457   465   464     0
   439   463   465     0
   464   465   463     0
    46   201    49     0
   199   466   201     0
    47    49   466     0
   201   466    49     0
   205   468   206     0
   467   469   468     0
   199   206   469     0
   468   469   206     0
    52    56   471     0
    47   470    56     0
   467   471   470     0
    56   470   471     0
   199   469   466     0
   467   470   469     0
    47   466   470     0
   469   470   466     0
   169   473   221     0
   472   474   473     0
   219   221   474     0
   473   474   221     0
   475   477   479     0
   476   478   477     0
   472   479   478     0
   477   478   479     0
   205   227   481     0
   219   480   227     0
   476   481   480     0
   227   480   481     0
   472   478   474     0
   476   480   478     0
   219   474   480     0
   478   480   474     0
    61    66   484     0
    63   483    66     0
   482   484   483     0
    66   483   484     0
    52   486    72     0
   485   487   486     0
    63    72   487     0
   486   487    72     0
   475   488   490     0
   482   489   488     0
   485   490   489     0
   488   489   490     0
    63   487   483     0
   485   489   487     0
   482   483   489     0
   487   489   483     0
   205   481   468     0
   476   491   481     0
   467   468   491     0
   481   491   468     0
   475   490   477     0
   485   492   490     0
   476   477   492     0
   490   492   477     0
    52   471   486     0
   467   493   471     0
   485   486   493     0
   471   493   486     0
   476   492   491     0
   485   493   492     0
   467   491   493     0
   492   493   491     0
   328   456   417     0
   454   494   456     0
   416   417   494     0
   456   494   417     0
   447   496   460     0
   495   497   496     0
   454   460   497     0
   496   497   460     0
   419   423   499     0
   416   498   423     0
   495   499   498     0
   423   498   499     0
   454   497   494     0
   495   498   497     0
   416   494   498     0
   497   498   494     0
    61   484   445     0
   482   500   484     0
   444   445   500     0
   484   500   445     0
   475   502   488     0
   501   503   502     0
   482   488   503     0
   502   503   488     0
   447   451   505     0
   444   504   451     0
   501   505   504     0
   451   504   505     0
   482   503   500     0
   501   504   503     0
   444   500   504     0
   503   504   500     0
   169   428   473     0
   426   506   428     0
   472   473   506     0
   428   506   473     0
   419   508   432     0
   507   509   508     0
   426   432   509     0
   508   509   432     0
   475   479   511     0
   472   510   479     0
   507   511   510     0
   479   510   511     0
   426   509   506     0
   507   510   509     0
   472   506   510     0
   509   510   506     0
   447   505   496     0
   501   512   505     0
   495   496   512     0
   505   512   496     0
   475   511   502     0
   507   513   511     0
   501   502   513     0
   511   513   502     0
   419   499   508     0
   495   514   499     0
   507   508   514     0
   499   514   508     0
   501   513   512     0
   507   514   513     0
   495   512   514     0
   513   514   512     0
End