MeshVersion
 1
Dimension
 3
Vertices
 162
   -0.525731112119134     0.85065080835204                    0     0
   -0.809016994374947                  0.5    0.309016994374947     0
   -0.309016994374947    0.809016994374947                  0.5     0
   -0.693780477560449    0.702046444776163    0.160622035640023     0
   -0.587785252292473    0.688190960235587     0.42532540417602     0
   -0.433888564552695    0.862668480416186    0.259891913007754     0
    -0.85065080835204                    0    0.525731112119134     0
                 -0.5    0.309016994374947    0.809016994374947     0
   -0.702046444776163    0.160622035640023    0.693780477560449     0
   -0.688190960235587     0.42532540417602    0.587785252292473     0
   -0.862668480416186    0.259891913007754    0.433888564552695     0
                    0    0.525731112119134     0.85065080835204     0
   -0.160622035640023    0.693780477560449    0.702046444776163     0
    -0.42532540417602    0.587785252292473    0.688190960235587     0
   -0.259891913007754    0.433888564552695    0.862668480416186     0
                    0                    1                    0     0
   -0.162459848116453    0.951056516295154    0.262865556059567     0
   -0.273266528912672    0.961938357783917                    0     0
    0.309016994374947    0.809016994374947                  0.5     0
    0.160622035640023    0.693780477560449    0.702046444776163     0
                    0     0.85065080835204    0.525731112119134     0
    0.525731112119134     0.85065080835204                    0     0
    0.273266528912672    0.961938357783917                    0     0
    0.162459848116453    0.951056516295154    0.262865556059567     0
    0.433888564552695    0.862668480416186    0.259891913007754     0
   -0.309016994374947    0.809016994374947                 -0.5     0
   -0.162459848116453    0.951056516295154   -0.262865556059567     0
   -0.433888564552695    0.862668480416186   -0.259891913007754     0
    0.309016994374947    0.809016994374947                 -0.5     0
    0.433888564552695    0.862668480416186   -0.259891913007754     0
    0.162459848116453    0.951056516295154   -0.262865556059567     0
                    0    0.525731112119134    -0.85065080835204     0
   -0.160622035640023    0.693780477560449   -0.702046444776163     0
                    0     0.85065080835204   -0.525731112119134     0
    0.160622035640023    0.693780477560449   -0.702046444776163     0
   -0.809016994374947                  0.5   -0.309016994374947     0
   -0.587785252292473    0.688190960235587    -0.42532540417602     0
   -0.693780477560449    0.702046444776163   -0.160622035640023     0
                 -0.5    0.309016994374947   -0.809016994374947     0
   -0.259891913007754    0.433888564552695   -0.862668480416186     0
    -0.42532540417602    0.587785252292473   -0.688190960235587     0
    -0.85065080835204                    0   -0.525731112119134     0
   -0.862668480416186    0.259891913007754   -0.433888564552695     0
   -0.688190960235587     0.42532540417602   -0.587785252292473     0
   -0.702046444776163    0.160622035640023   -0.693780477560449     0
    -0.85065080835204    0.525731112119134                    0     0
                   -1                    0                    0     0
   -0.961938357783917                    0   -0.273266528912672     0
   -0.951056516295154    0.262865556059567   -0.162459848116453     0
   -0.951056516295154    0.262865556059567    0.162459848116453     0
   -0.961938357783917                    0    0.273266528912672     0
                    0                    0                    1     0
   -0.262865556059567    0.162459848116453    0.951056516295154     0
                    0    0.273266528912672    0.961938357783917     0
                 -0.5   -0.309016994374947    0.809016994374947     0
   -0.702046444776163   -0.160622035640023    0.693780477560449     0
   -0.525731112119134                    0     0.85065080835204     0
                    0   -0.525731112119134     0.85065080835204     0
                    0   -0.273266528912672    0.961938357783917     0
   -0.262865556059567   -0.162459848116453    0.951056516295154     0
   -0.259891913007754   -0.433888564552695    0.862668480416186     0
    0.809016994374947                  0.5    0.309016994374947     0
    0.587785252292473    0.688190960235587     0.42532540417602     0
    0.693780477560449    0.702046444776163    0.160622035640023     0
                  0.5    0.309016994374947    0.809016994374947     0
    0.259891913007754    0.433888564552695    0.862668480416186     0
     0.42532540417602    0.587785252292473    0.688190960235587     0
     0.85065080835204                    0    0.525731112119134     0
    0.862668480416186    0.259891913007754    0.433888564552695     0
    0.688190960235587     0.42532540417602    0.587785252292473     0
    0.702046444776163    0.160622035640023    0.693780477560449     0
                  0.5    0.309016994374947   -0.809016994374947     0
     0.42532540417602    0.587785252292473   -0.688190960235587     0
    0.259891913007754    0.433888564552695   -0.862668480416186     0
    0.809016994374947                  0.5   -0.309016994374947     0
    0.693780477560449    0.702046444776163   -0.160622035640023     0
    0.587785252292473    0.688190960235587    -0.42532540417602     0
     0.85065080835204                    0   -0.525731112119134     0
    0.702046444776163    0.160622035640023   -0.693780477560449     0
    0.688190960235587     0.42532540417602   -0.587785252292473     0
    0.862668480416186    0.259891913007754   -0.433888564552695     0
                 -0.5   -0.309016994374947   -0.809016994374947     0
   -0.525731112119134                    0    -0.85065080835204     0
   -0.702046444776163   -0.160622035640023   -0.693780477560449     0
                    0                    0                   -1     0
                    0    0.273266528912672   -0.961938357783917     0
   -0.262865556059567    0.162459848116453   -0.951056516295154     0
                    0   -0.525731112119134    -0.85065080835204     0
   -0.259891913007754   -0.433888564552695   -0.862668480416186     0
   -0.262865556059567   -0.162459848116453   -0.951056516295154     0
                    0   -0.273266528912672   -0.961938357783917     0
   -0.809016994374947                 -0.5    0.309016994374947     0
   -0.951056516295154   -0.262865556059567    0.162459848116453     0
   -0.862668480416186   -0.259891913007754    0.433888564552695     0
   -0.809016994374947                 -0.5   -0.309016994374947     0
   -0.862668480416186   -0.259891913007754   -0.433888564552695     0
   -0.951056516295154   -0.262865556059567   -0.162459848116453     0
   -0.525731112119134    -0.85065080835204                    0     0
   -0.693780477560449   -0.702046444776163    0.160622035640023     0
    -0.85065080835204   -0.525731112119134                    0     0
   -0.693780477560449   -0.702046444776163   -0.160622035640023     0
   -0.309016994374947   -0.809016994374947                  0.5     0
   -0.433888564552695   -0.862668480416186    0.259891913007754     0
   -0.587785252292473   -0.688190960235587     0.42532540417602     0
    -0.42532540417602   -0.587785252292473    0.688190960235587     0
   -0.160622035640023   -0.693780477560449    0.702046444776163     0
   -0.688190960235587    -0.42532540417602    0.587785252292473     0
                  0.5   -0.309016994374947    0.809016994374947     0
    0.259891913007754   -0.433888564552695    0.862668480416186     0
    0.262865556059567   -0.162459848116453    0.951056516295154     0
    0.525731112119134                    0     0.85065080835204     0
    0.702046444776163   -0.160622035640023    0.693780477560449     0
    0.262865556059567    0.162459848116453    0.951056516295154     0
                    1                    0                    0     0
    0.961938357783917                    0    0.273266528912672     0
    0.951056516295154    0.262865556059567    0.162459848116453     0
    0.951056516295154    0.262865556059567   -0.162459848116453     0
    0.961938357783917                    0   -0.273266528912672     0
     0.85065080835204    0.525731112119134                    0     0
                  0.5   -0.309016994374947   -0.809016994374947     0
    0.702046444776163   -0.160622035640023   -0.693780477560449     0
    0.525731112119134                    0    -0.85065080835204     0
    0.262865556059567   -0.162459848116453   -0.951056516295154     0
    0.259891913007754   -0.433888564552695   -0.862668480416186     0
    0.262865556059567    0.162459848116453   -0.951056516295154     0
   -0.309016994374947   -0.809016994374947                 -0.5     0
   -0.160622035640023   -0.693780477560449   -0.702046444776163     0
    -0.42532540417602   -0.587785252292473   -0.688190960235587     0
   -0.587785252292473   -0.688190960235587    -0.42532540417602     0
   -0.433888564552695   -0.862668480416186   -0.259891913007754     0
   -0.688190960235587    -0.42532540417602   -0.587785252292473     0
    0.525731112119134    -0.85065080835204                    0     0
    0.309016994374947   -0.809016994374947                  0.5     0
                    0                   -1                    0     0
    0.433888564552695   -0.862668480416186    0.259891913007754     0
    0.162459848116453   -0.951056516295154    0.262865556059567     0
    0.273266528912672   -0.961938357783917                    0     0
                    0    -0.85065080835204    0.525731112119134     0
    0.160622035640023   -0.693780477560449    0.702046444776163     0
   -0.273266528912672   -0.961938357783917                    0     0
   -0.162459848116453   -0.951056516295154    0.262865556059567     0
    0.809016994374947                 -0.5    0.309016994374947     0
    0.693780477560449   -0.702046444776163    0.160622035640023     0
    0.587785252292473   -0.688190960235587     0.42532540417602     0
    0.688190960235587    -0.42532540417602    0.587785252292473     0
    0.862668480416186   -0.259891913007754    0.433888564552695     0
     0.42532540417602   -0.587785252292473    0.688190960235587     0
    0.809016994374947                 -0.5   -0.309016994374947     0
    0.693780477560449   -0.702046444776163   -0.160622035640023     0
     0.85065080835204   -0.525731112119134                    0     0
    0.951056516295154   -0.262865556059567   -0.162459848116453     0
    0.862668480416186   -0.259891913007754   -0.433888564552695     0
    0.951056516295154   -0.262865556059567    0.162459848116453     0
    0.309016994374947   -0.809016994374947                 -0.5     0
    0.433888564552695   -0.862668480416186   -0.259891913007754     0
    0.587785252292473   -0.688190960235587    -0.42532540417602     0
     0.42532540417602   -0.587785252292473   -0.688190960235587     0
    0.160622035640023   -0.693780477560449   -0.702046444776163     0
    0.688190960235587    -0.42532540417602   -0.587785252292473     0
    0.162459848116453   -0.951056516295154   -0.262865556059567     0
   -0.162459848116453   -0.951056516295154   -0.262865556059567     0
                    0    -0.85065080835204   -0.525731112119134     0
Triangles
 320
     1     4     6     0
     2     5     4     0
     3     6     5     0
     4     5     6     0
     7     9    11     0
     8    10     9     0
     2    11    10     0
     9    10    11     0
    12    13    15     0
     3    14    13     0
     8    15    14     0
    13    14    15     0
     2    10     5     0
     8    14    10     0
     3     5    14     0
    10    14     5     0
     1     6    18     0
     3    17     6     0
    16    18    17     0
     6    17    18     0
    12    20    13     0
    19    21    20     0
     3    13    21     0
    20    21    13     0
    22    23    25     0
    16    24    23     0
    19    25    24     0
    23    24    25     0
     3    21    17     0
    19    24    21     0
    16    17    24     0
    21    24    17     0
     1    18    28     0
    16    27    18     0
    26    28    27     0
    18    27    28     0
    22    30    23     0
    29    31    30     0
    16    23    31     0
    30    31    23     0
    32    33    35     0
    26    34    33     0
    29    35    34     0
    33    34    35     0
    16    31    27     0
    29    34    31     0
    26    27    34     0
    31    34    27     0
     1    28    38     0
    26    37    28     0
    36    38    37     0
    28    37    38     0
    32    40    33     0
    39    41    40     0
    26    33    41     0
    40    41    33     0
    42    43    45     0
    36    44    43     0
    39    45    44     0
    43    44    45     0
    26    41    37     0
    39    44    41     0
    36    37    44     0
    41    44    37     0
     1    38     4     0
    36    46    38     0
     2     4    46     0
    38    46     4     0
    42    48    43     0
    47    49    48     0
    36    43    49     0
    48    49    43     0
     7    11    51     0
     2    50    11     0
    47    51    50     0
    11    50    51     0
    36    49    46     0
    47    50    49     0
     2    46    50     0
    49    50    46     0
    12    15    54     0
     8    53    15     0
    52    54    53     0
    15    53    54     0
     7    56     9     0
    55    57    56     0
     8     9    57     0
    56    57     9     0
    58    59    61     0
    52    60    59     0
    55    61    60     0
    59    60    61     0
     8    57    53     0
    55    60    57     0
    52    53    60     0
    57    60    53     0
    22    25    64     0
    19    63    25     0
    62    64    63     0
    25    63    64     0
    12    66    20     0
    65    67    66     0
    19    20    67     0
    66    67    20     0
    68    69    71     0
    62    70    69     0
    65    71    70     0
    69    70    71     0
    19    67    63     0
    65    70    67     0
    62    63    70     0
    67    70    63     0
    32    35    74     0
    29    73    35     0
    72    74    73     0
    35    73    74     0
    22    76    30     0
    75    77    76     0
    29    30    77     0
    76    77    30     0
    78    79    81     0
    72    80    79     0
    75    81    80     0
    79    80    81     0
    29    77    73     0
    75    80    77     0
    72    73    80     0
    77    80    73     0
    42    45    84     0
    39    83    45     0
    82    84    83     0
    45    83    84     0
    32    86    40     0
    85    87    86     0
    39    40    87     0
    86    87    40     0
    88    89    91     0
    82    90    89     0
    85    91    90     0
    89    90    91     0
    39    87    83     0
    85    90    87     0
    82    83    90     0
    87    90    83     0
     7    51    94     0
    47    93    51     0
    92    94    93     0
    51    93    94     0
    42    96    48     0
    95    97    96     0
    47    48    97     0
    96    97    48     0
    98    99   101     0
    92   100    99     0
    95   101   100     0
    99   100   101     0
    47    97    93     0
    95   100    97     0
    92    93   100     0
    97   100    93     0
    98   103    99     0
   102   104   103     0
    92    99   104     0
   103   104    99     0
    58    61   106     0
    55   105    61     0
   102   106   105     0
    61   105   106     0
     7    94    56     0
    92   107    94     0
    55    56   107     0
    94   107    56     0
   102   105   104     0
    55   107   105     0
    92   104   107     0
   105   107   104     0
    58   109    59     0
   108   110   109     0
    52    59   110     0
   109   110    59     0
    68    71   112     0
    65   111    71     0
   108   112   111     0
    71   111   112     0
    12    54    66     0
    52   113    54     0
    65    66   113     0
    54   113    66     0
   108   111   110     0
    65   113   111     0
    52   110   113     0
   111   113   110     0
    68   115    69     0
   114   116   115     0
    62    69   116     0
   115   116    69     0
    78    81   118     0
    75   117    81     0
   114   118   117     0
    81   117   118     0
    22    64    76     0
    62   119    64     0
    75    76   119     0
    64   119    76     0
   114   117   116     0
    75   119   117     0
    62   116   119     0
   117   119   116     0
    78   121    79     0
   120   122   121     0
    72    79   122     0
   121   122    79     0
    88    91   124     0
    85   123    91     0
   120   124   123     0
    91   123   124     0
    32    74    86     0
    72   125    74     0
    85    86   125     0
    74   125    86     0
   120   123   122     0
    85   125   123     0
    72   122   125     0
   123   125   122     0
    88   127    89     0
   126   128   127     0
    82    89   128     0
   127   128    89     0
    98   101   130     0
    95   129   101     0
   126   130   129     0
   101   129   130     0
    42    84    96     0
    82   131    84     0
    95    96   131     0
    84   131    96     0
   126   129   128     0
    95   131   129     0
    82   128   131     0
   129   131   128     0
   132   135   137     0
   133   136   135     0
   134   137   136     0
   135   136   137     0
    58   106   139     0
   102   138   106     0
   133   139   138     0
   106   138   139     0
    98   140   103     0
   134   141   140     0
   102   103   141     0
   140   141   103     0
   133   138   136     0
   102   141   138     0
   134   136   141     0
   138   141   136     0
   132   143   135     0
   142   144   143     0
   133   135   144     0
   143   144   135     0
    68   112   146     0
   108   145   112     0
   142   146   145     0
   112   145   146     0
    58   139   109     0
   133   147   139     0
   108   109   147     0
   139   147   109     0
   142   145   144     0
   108   147   145     0
   133   144   147     0
   145   147   144     0
   132   149   143     0
   148   150   149     0
   142   143   150     0
   149   150   143     0
    78   118   152     0
   114   151   118     0
   148   152   151     0
   118   151   152     0
    68   146   115     0
   142   153   146     0
   114   115   153     0
   146   153   115     0
   148   151   150     0
   114   153   151     0
   142   150   153     0
   151   153   150     0
   132   155   149     0
   154   156   155     0
   148   149   156     0
   155   156   149     0
    88   124   158     0
   120   157   124     0
   154   158   157     0
   124   157   158     0
    78   152   121     0
   148   159   152     0
   120   121   159     0
   152   159   121     0
   154   157   156     0
   120   159   157     0
   148   156   159     0
   157   159   156     0
   132   137   155     0
   134   160   137     0
   154   155   160     0
   137   160   155     0
    98   130   140     0
   126   161   130     0
   134   140   161     0
   130   161   140     0
    88   158   127     0
   154   162   158     0
   126   127   162     0
   158   162   127     0
   134   161   160     0
   126   162   161     0
   154   160   162     0
   161   162   160     0
End