MeshVersion
 1
Dimension
 3
Vertices
 258
                    0                    0                    1     0
     0.38268343236509                    0    0.923879532511287     0
                    0     0.38268343236509    0.923879532511287     0
    0.195090322016128                    0     0.98078528040323     0
    0.198756853415513    0.198756853415513    0.959682982260667     0
                    0    0.195090322016128     0.98078528040323     0
    0.707106781186547                    0    0.707106781186547     0
    0.408248290463863    0.408248290463863    0.816496580927726     0
    0.577350269189626    0.211324865405187    0.788675134594813     0
    0.404615044596354    0.208846598871523    0.890320034496634     0
    0.555570233019602                    0    0.831469612302545     0
                    0    0.707106781186547    0.707106781186547     0
                    0    0.555570233019602    0.831469612302545     0
    0.208846598871523    0.404615044596354    0.890320034496634     0
    0.211324865405187    0.577350269189626    0.788675134594813     0
                    1                    0                    0     0
    0.923879532511287     0.38268343236509                    0     0
    0.923879532511287                    0     0.38268343236509     0
     0.98078528040323    0.195090322016128                    0     0
    0.959682982260667    0.198756853415513    0.198756853415513     0
     0.98078528040323                    0    0.195090322016128     0
    0.707106781186547    0.707106781186547                    0     0
    0.816496580927726    0.408248290463863    0.408248290463863     0
    0.788675134594813    0.577350269189626    0.211324865405187     0
    0.890320034496634    0.404615044596354    0.208846598871523     0
    0.831469612302545    0.555570233019602                    0     0
    0.831469612302545                    0    0.555570233019602     0
    0.890320034496634    0.208846598871523    0.404615044596354     0
    0.788675134594813    0.211324865405187    0.577350269189626     0
                    0                    1                    0     0
                    0    0.923879532511287     0.38268343236509     0
     0.38268343236509    0.923879532511287                    0     0
                    0     0.98078528040323    0.195090322016128     0
    0.198756853415513    0.959682982260667    0.198756853415513     0
    0.195090322016128     0.98078528040323                    0     0
    0.408248290463863    0.816496580927726    0.408248290463863     0
    0.211324865405187    0.788675134594813    0.577350269189626     0
    0.208846598871523    0.890320034496634    0.404615044596354     0
                    0    0.831469612302545    0.555570233019602     0
    0.555570233019602    0.831469612302545                    0     0
    0.404615044596354    0.890320034496634    0.208846598871523     0
    0.577350269189626    0.788675134594813    0.211324865405187     0
    0.639602149066831    0.426401432711221    0.639602149066831     0
    0.639602149066831    0.639602149066831    0.426401432711221     0
    0.426401432711221    0.639602149066831    0.639602149066831     0
    -0.38268343236509                    0    0.923879532511287     0
   -0.198756853415513    0.198756853415513    0.959682982260667     0
   -0.195090322016128                    0     0.98078528040323     0
   -0.408248290463863    0.408248290463863    0.816496580927726     0
   -0.211324865405187    0.577350269189626    0.788675134594813     0
   -0.208846598871523    0.404615044596354    0.890320034496634     0
   -0.707106781186547                    0    0.707106781186547     0
   -0.555570233019602                    0    0.831469612302545     0
   -0.404615044596354    0.208846598871523    0.890320034496634     0
   -0.577350269189626    0.211324865405187    0.788675134594813     0
    -0.38268343236509    0.923879532511287                    0     0
   -0.195090322016128     0.98078528040323                    0     0
   -0.198756853415513    0.959682982260667    0.198756853415513     0
   -0.707106781186547    0.707106781186547                    0     0
   -0.408248290463863    0.816496580927726    0.408248290463863     0
   -0.577350269189626    0.788675134594813    0.211324865405187     0
   -0.404615044596354    0.890320034496634    0.208846598871523     0
   -0.555570233019602    0.831469612302545                    0     0
   -0.208846598871523    0.890320034496634    0.404615044596354     0
   -0.211324865405187    0.788675134594813    0.577350269189626     0
                   -1                    0                    0     0
   -0.923879532511287                    0     0.38268343236509     0
   -0.923879532511287     0.38268343236509                    0     0
    -0.98078528040323                    0    0.195090322016128     0
   -0.959682982260667    0.198756853415513    0.198756853415513     0
    -0.98078528040323    0.195090322016128                    0     0
   -0.816496580927726    0.408248290463863    0.408248290463863     0
   -0.788675134594813    0.211324865405187    0.577350269189626     0
   -0.890320034496634    0.208846598871523    0.404615044596354     0
   -0.831469612302545                    0    0.555570233019602     0
   -0.831469612302545    0.555570233019602                    0     0
   -0.890320034496634    0.404615044596354    0.208846598871523     0
   -0.788675134594813    0.577350269189626    0.211324865405187     0
   -0.426401432711221    0.639602149066831    0.639602149066831     0
   -0.639602149066831    0.639602149066831    0.426401432711221     0
   -0.639602149066831    0.426401432711221    0.639602149066831     0
                    0    -0.38268343236509    0.923879532511287     0
   -0.198756853415513   -0.198756853415513    0.959682982260667     0
                    0   -0.195090322016128     0.98078528040323     0
   -0.408248290463863   -0.408248290463863    0.816496580927726     0
   -0.577350269189626   -0.211324865405187    0.788675134594813     0
   -0.404615044596354   -0.208846598871523    0.890320034496634     0
                    0   -0.707106781186547    0.707106781186547     0
                    0   -0.555570233019602    0.831469612302545     0
   -0.208846598871523   -0.404615044596354    0.890320034496634     0
   -0.211324865405187   -0.577350269189626    0.788675134594813     0
   -0.923879532511287    -0.38268343236509                    0     0
    -0.98078528040323   -0.195090322016128                    0     0
   -0.959682982260667   -0.198756853415513    0.198756853415513     0
   -0.707106781186547   -0.707106781186547                    0     0
   -0.816496580927726   -0.408248290463863    0.408248290463863     0
   -0.788675134594813   -0.577350269189626    0.211324865405187     0
   -0.890320034496634   -0.404615044596354    0.208846598871523     0
   -0.831469612302545   -0.555570233019602                    0     0
   -0.890320034496634   -0.208846598871523    0.404615044596354     0
   -0.788675134594813   -0.211324865405187    0.577350269189626     0
                    0                   -1                    0     0
                    0   -0.923879532511287     0.38268343236509     0
    -0.38268343236509   -0.923879532511287                    0     0
                    0    -0.98078528040323    0.195090322016128     0
   -0.198756853415513   -0.959682982260667    0.198756853415513     0
   -0.195090322016128    -0.98078528040323                    0     0
   -0.408248290463863   -0.816496580927726    0.408248290463863     0
   -0.211324865405187   -0.788675134594813    0.577350269189626     0
   -0.208846598871523   -0.890320034496634    0.404615044596354     0
                    0   -0.831469612302545    0.555570233019602     0
   -0.555570233019602   -0.831469612302545                    0     0
   -0.404615044596354   -0.890320034496634    0.208846598871523     0
   -0.577350269189626   -0.788675134594813    0.211324865405187     0
   -0.639602149066831   -0.426401432711221    0.639602149066831     0
   -0.639602149066831   -0.639602149066831    0.426401432711221     0
   -0.426401432711221   -0.639602149066831    0.639602149066831     0
    0.198756853415513   -0.198756853415513    0.959682982260667     0
    0.408248290463863   -0.408248290463863    0.816496580927726     0
    0.211324865405187   -0.577350269189626    0.788675134594813     0
    0.208846598871523   -0.404615044596354    0.890320034496634     0
    0.404615044596354   -0.208846598871523    0.890320034496634     0
    0.577350269189626   -0.211324865405187    0.788675134594813     0
     0.38268343236509   -0.923879532511287                    0     0
    0.195090322016128    -0.98078528040323                    0     0
    0.198756853415513   -0.959682982260667    0.198756853415513     0
    0.707106781186547   -0.707106781186547                    0     0
    0.408248290463863   -0.816496580927726    0.408248290463863     0
    0.577350269189626   -0.788675134594813    0.211324865405187     0
    0.404615044596354   -0.890320034496634    0.208846598871523     0
    0.555570233019602   -0.831469612302545                    0     0
    0.208846598871523   -0.890320034496634    0.404615044596354     0
    0.211324865405187   -0.788675134594813    0.577350269189626     0
    0.923879532511287    -0.38268343236509                    0     0
    0.959682982260667   -0.198756853415513    0.198756853415513     0
     0.98078528040323   -0.195090322016128                    0     0
    0.816496580927726   -0.408248290463863    0.408248290463863     0
    0.788675134594813   -0.211324865405187    0.577350269189626     0
    0.890320034496634   -0.208846598871523    0.404615044596354     0
    0.831469612302545   -0.555570233019602                    0     0
    0.890320034496634   -0.404615044596354    0.208846598871523     0
    0.788675134594813   -0.577350269189626    0.211324865405187     0
    0.426401432711221   -0.639602149066831    0.639602149066831     0
    0.639602149066831   -0.639602149066831    0.426401432711221     0
    0.639602149066831   -0.426401432711221    0.639602149066831     0
                    0                    0                   -1     0
                    0     0.38268343236509   -0.923879532511287     0
     0.38268343236509                    0   -0.923879532511287     0
                    0    0.195090322016128    -0.98078528040323     0
    0.198756853415513    0.198756853415513   -0.959682982260667     0
    0.195090322016128                    0    -0.98078528040323     0
                    0    0.707106781186547   -0.707106781186547     0
    0.408248290463863    0.408248290463863   -0.816496580927726     0
    0.211324865405187    0.577350269189626   -0.788675134594813     0
    0.208846598871523    0.404615044596354   -0.890320034496634     0
                    0    0.555570233019602   -0.831469612302545     0
    0.707106781186547                    0   -0.707106781186547     0
    0.555570233019602                    0   -0.831469612302545     0
    0.404615044596354    0.208846598871523   -0.890320034496634     0
    0.577350269189626    0.211324865405187   -0.788675134594813     0
                    0    0.923879532511287    -0.38268343236509     0
    0.198756853415513    0.959682982260667   -0.198756853415513     0
                    0     0.98078528040323   -0.195090322016128     0
    0.408248290463863    0.816496580927726   -0.408248290463863     0
    0.577350269189626    0.788675134594813   -0.211324865405187     0
    0.404615044596354    0.890320034496634   -0.208846598871523     0
                    0    0.831469612302545   -0.555570233019602     0
    0.208846598871523    0.890320034496634   -0.404615044596354     0
    0.211324865405187    0.788675134594813   -0.577350269189626     0
    0.923879532511287                    0    -0.38268343236509     0
     0.98078528040323                    0   -0.195090322016128     0
    0.959682982260667    0.198756853415513   -0.198756853415513     0
    0.816496580927726    0.408248290463863   -0.408248290463863     0
    0.788675134594813    0.211324865405187   -0.577350269189626     0
    0.890320034496634    0.208846598871523   -0.404615044596354     0
    0.831469612302545                    0   -0.555570233019602     0
    0.890320034496634    0.404615044596354   -0.208846598871523     0
    0.788675134594813    0.577350269189626   -0.211324865405187     0
    0.426401432711221    0.639602149066831   -0.639602149066831     0
    0.639602149066831    0.639602149066831   -0.426401432711221     0
    0.639602149066831    0.426401432711221   -0.639602149066831     0
    -0.38268343236509                    0   -0.923879532511287     0
   -0.195090322016128                    0    -0.98078528040323     0
   -0.198756853415513    0.198756853415513   -0.959682982260667     0
   -0.707106781186547                    0   -0.707106781186547     0
   -0.408248290463863    0.408248290463863   -0.816496580927726     0
   -0.577350269189626    0.211324865405187   -0.788675134594813     0
   -0.404615044596354    0.208846598871523   -0.890320034496634     0
   -0.555570233019602                    0   -0.831469612302545     0
   -0.208846598871523    0.404615044596354   -0.890320034496634     0
   -0.211324865405187    0.577350269189626   -0.788675134594813     0
   -0.923879532511287                    0    -0.38268343236509     0
   -0.959682982260667    0.198756853415513   -0.198756853415513     0
    -0.98078528040323                    0   -0.195090322016128     0
   -0.816496580927726    0.408248290463863   -0.408248290463863     0
   -0.788675134594813    0.577350269189626   -0.211324865405187     0
   -0.890320034496634    0.404615044596354   -0.208846598871523     0
   -0.831469612302545                    0   -0.555570233019602     0
   -0.890320034496634    0.208846598871523   -0.404615044596354     0
   -0.788675134594813    0.211324865405187   -0.577350269189626     0
   -0.198756853415513    0.959682982260667   -0.198756853415513     0
   -0.408248290463863    0.816496580927726   -0.408248290463863     0
   -0.211324865405187    0.788675134594813   -0.577350269189626     0
   -0.208846598871523    0.890320034496634   -0.404615044596354     0
   -0.404615044596354    0.890320034496634   -0.208846598871523     0
   -0.577350269189626    0.788675134594813   -0.211324865405187     0
   -0.639602149066831    0.426401432711221   -0.639602149066831     0
   -0.639602149066831    0.639602149066831   -0.426401432711221     0
   -0.426401432711221    0.639602149066831   -0.639602149066831     0
                    0    -0.38268343236509   -0.923879532511287     0
                    0   -0.195090322016128    -0.98078528040323     0
   -0.198756853415513   -0.198756853415513   -0.959682982260667     0
                    0   -0.707106781186547   -0.707106781186547     0
   -0.408248290463863   -0.408248290463863   -0.816496580927726     0
   -0.211324865405187   -0.577350269189626   -0.788675134594813     0
   -0.208846598871523   -0.404615044596354   -0.890320034496634     0
                    0   -0.555570233019602   -0.831469612302545     0
   -0.404615044596354   -0.208846598871523   -0.890320034496634     0
   -0.577350269189626   -0.211324865405187   -0.788675134594813     0
                    0   -0.923879532511287    -0.38268343236509     0
   -0.198756853415513   -0.959682982260667   -0.198756853415513     0
                    0    -0.98078528040323   -0.195090322016128     0
   -0.408248290463863   -0.816496580927726   -0.408248290463863     0
   -0.577350269189626   -0.788675134594813   -0.211324865405187     0
   -0.404615044596354   -0.890320034496634   -0.208846598871523     0
                    0   -0.831469612302545   -0.555570233019602     0
   -0.208846598871523   -0.890320034496634   -0.404615044596354     0
   -0.211324865405187   -0.788675134594813   -0.577350269189626     0
   -0.959682982260667   -0.198756853415513   -0.198756853415513     0
   -0.816496580927726   -0.408248290463863   -0.408248290463863     0
   -0.788675134594813   -0.211324865405187   -0.577350269189626     0
   -0.890320034496634   -0.208846598871523   -0.404615044596354     0
   -0.890320034496634   -0.404615044596354   -0.208846598871523     0
   -0.788675134594813   -0.577350269189626   -0.211324865405187     0
   -0.426401432711221   -0.639602149066831   -0.639602149066831     0
   -0.639602149066831   -0.639602149066831   -0.426401432711221     0
   -0.639602149066831   -0.426401432711221   -0.639602149066831     0
    0.198756853415513   -0.198756853415513   -0.959682982260667     0
    0.408248290463863   -0.408248290463863   -0.816496580927726     0
    0.577350269189626   -0.211324865405187   -0.788675134594813     0
    0.404615044596354   -0.208846598871523   -0.890320034496634     0
    0.208846598871523   -0.404615044596354   -0.890320034496634     0
    0.211324865405187   -0.577350269189626   -0.788675134594813     0
    0.959682982260667   -0.198756853415513   -0.198756853415513     0
    0.816496580927726   -0.408248290463863   -0.408248290463863     0
    0.788675134594813   -0.577350269189626   -0.211324865405187     0
    0.890320034496634   -0.404615044596354   -0.208846598871523     0
    0.890320034496634   -0.208846598871523   -0.404615044596354     0
    0.788675134594813   -0.211324865405187   -0.577350269189626     0
    0.198756853415513   -0.959682982260667   -0.198756853415513     0
    0.408248290463863   -0.816496580927726   -0.408248290463863     0
    0.211324865405187   -0.788675134594813   -0.577350269189626     0
    0.208846598871523   -0.890320034496634   -0.404615044596354     0
    0.404615044596354   -0.890320034496634   -0.208846598871523     0
    0.577350269189626   -0.788675134594813   -0.211324865405187     0
    0.639602149066831   -0.426401432711221   -0.639602149066831     0
    0.639602149066831   -0.639602149066831   -0.426401432711221     0
    0.426401432711221   -0.639602149066831   -0.639602149066831     0
Triangles
 512
     1     4     6     0
     2     5     4     0
     3     6     5     0
     4     5     6     0
     7     9    11     0
     8    10     9     0
     2    11    10     0
     9    10    11     0
    12    13    15     0
     3    14    13     0
     8    15    14     0
    13    14    15     0
     2    10     5     0
     8    14    10     0
     3     5    14     0
    10    14     5     0
    16    19    21     0
    17    20    19     0
    18    21    20     0
    19    20    21     0
    22    24    26     0
    23    25    24     0
    17    26    25     0
    24    25    26     0
     7    27    29     0
    18    28    27     0
    23    29    28     0
    27    28    29     0
    17    25    20     0
    23    28    25     0
    18    20    28     0
    25    28    20     0
    30    33    35     0
    31    34    33     0
    32    35    34     0
    33    34    35     0
    12    37    39     0
    36    38    37     0
    31    39    38     0
    37    38    39     0
    22    40    42     0
    32    41    40     0
    36    42    41     0
    40    41    42     0
    31    38    34     0
    36    41    38     0
    32    34    41     0
    38    41    34     0
     7    29     9     0
    23    43    29     0
     8     9    43     0
    29    43     9     0
    22    42    24     0
    36    44    42     0
    23    24    44     0
    42    44    24     0
    12    15    37     0
     8    45    15     0
    36    37    45     0
    15    45    37     0
    23    44    43     0
    36    45    44     0
     8    43    45     0
    44    45    43     0
     1     6    48     0
     3    47     6     0
    46    48    47     0
     6    47    48     0
    12    50    13     0
    49    51    50     0
     3    13    51     0
    50    51    13     0
    52    53    55     0
    46    54    53     0
    49    55    54     0
    53    54    55     0
     3    51    47     0
    49    54    51     0
    46    47    54     0
    51    54    47     0
    30    57    33     0
    56    58    57     0
    31    33    58     0
    57    58    33     0
    59    61    63     0
    60    62    61     0
    56    63    62     0
    61    62    63     0
    12    39    65     0
    31    64    39     0
    60    65    64     0
    39    64    65     0
    56    62    58     0
    60    64    62     0
    31    58    64     0
    62    64    58     0
    66    69    71     0
    67    70    69     0
    68    71    70     0
    69    70    71     0
    52    73    75     0
    72    74    73     0
    67    75    74     0
    73    74    75     0
    59    76    78     0
    68    77    76     0
    72    78    77     0
    76    77    78     0
    67    74    70     0
    72    77    74     0
    68    70    77     0
    74    77    70     0
    12    65    50     0
    60    79    65     0
    49    50    79     0
    65    79    50     0
    59    78    61     0
    72    80    78     0
    60    61    80     0
    78    80    61     0
    52    55    73     0
    49    81    55     0
    72    73    81     0
    55    81    73     0
    60    80    79     0
    72    81    80     0
    49    79    81     0
    80    81    79     0
     1    48    84     0
    46    83    48     0
    82    84    83     0
    48    83    84     0
    52    86    53     0
    85    87    86     0
    46    53    87     0
    86    87    53     0
    88    89    91     0
    82    90    89     0
    85    91    90     0
    89    90    91     0
    46    87    83     0
    85    90    87     0
    82    83    90     0
    87    90    83     0
    66    93    69     0
    92    94    93     0
    67    69    94     0
    93    94    69     0
    95    97    99     0
    96    98    97     0
    92    99    98     0
    97    98    99     0
    52    75   101     0
    67   100    75     0
    96   101   100     0
    75   100   101     0
    92    98    94     0
    96   100    98     0
    67    94   100     0
    98   100    94     0
   102   105   107     0
   103   106   105     0
   104   107   106     0
   105   106   107     0
    88   109   111     0
   108   110   109     0
   103   111   110     0
   109   110   111     0
    95   112   114     0
   104   113   112     0
   108   114   113     0
   112   113   114     0
   103   110   106     0
   108   113   110     0
   104   106   113     0
   110   113   106     0
    52   101    86     0
    96   115   101     0
    85    86   115     0
   101   115    86     0
    95   114    97     0
   108   116   114     0
    96    97   116     0
   114   116    97     0
    88    91   109     0
    85   117    91     0
   108   109   117     0
    91   117   109     0
    96   116   115     0
   108   117   116     0
    85   115   117     0
   116   117   115     0
     1    84     4     0
    82   118    84     0
     2     4   118     0
    84   118     4     0
    88   120    89     0
   119   121   120     0
    82    89   121     0
   120   121    89     0
     7    11   123     0
     2   122    11     0
   119   123   122     0
    11   122   123     0
    82   121   118     0
   119   122   121     0
     2   118   122     0
   121   122   118     0
   102   125   105     0
   124   126   125     0
   103   105   126     0
   125   126   105     0
   127   129   131     0
   128   130   129     0
   124   131   130     0
   129   130   131     0
    88   111   133     0
   103   132   111     0
   128   133   132     0
   111   132   133     0
   124   130   126     0
   128   132   130     0
   103   126   132     0
   130   132   126     0
    16    21   136     0
    18   135    21     0
   134   136   135     0
    21   135   136     0
     7   138    27     0
   137   139   138     0
    18    27   139     0
   138   139    27     0
   127   140   142     0
   134   141   140     0
   137   142   141     0
   140   141   142     0
    18   139   135     0
   137   141   139     0
   134   135   141     0
   139   141   135     0
    88   133   120     0
   128   143   133     0
   119   120   143     0
   133   143   120     0
   127   142   129     0
   137   144   142     0
   128   129   144     0
   142   144   129     0
     7   123   138     0
   119   145   123     0
   137   138   145     0
   123   145   138     0
   128   144   143     0
   137   145   144     0
   119   143   145     0
   144   145   143     0
   146   149   151     0
   147   150   149     0
   148   151   150     0
   149   150   151     0
   152   154   156     0
   153   155   154     0
   147   156   155     0
   154   155   156     0
   157   158   160     0
   148   159   158     0
   153   160   159     0
   158   159   160     0
   147   155   150     0
   153   159   155     0
   148   150   159     0
   155   159   150     0
    30    35   163     0
    32   162    35     0
   161   163   162     0
    35   162   163     0
    22   165    40     0
   164   166   165     0
    32    40   166     0
   165   166    40     0
   152   167   169     0
   161   168   167     0
   164   169   168     0
   167   168   169     0
    32   166   162     0
   164   168   166     0
   161   162   168     0
   166   168   162     0
    16   171    19     0
   170   172   171     0
    17    19   172     0
   171   172    19     0
   157   174   176     0
   173   175   174     0
   170   176   175     0
   174   175   176     0
    22    26   178     0
    17   177    26     0
   173   178   177     0
    26   177   178     0
   170   175   172     0
   173   177   175     0
    17   172   177     0
   175   177   172     0
   152   169   154     0
   164   179   169     0
   153   154   179     0
   169   179   154     0
    22   178   165     0
   173   180   178     0
   164   165   180     0
   178   180   165     0
   157   160   174     0
   153   181   160     0
   173   174   181     0
   160   181   174     0
   164   180   179     0
   173   181   180     0
   153   179   181     0
   180   181   179     0
   146   183   149     0
   182   184   183     0
   147   149   184     0
   183   184   149     0
   185   187   189     0
   186   188   187     0
   182   189   188     0
   187   188   189     0
   152   156   191     0
   147   190   156     0
   186   191   190     0
   156   190   191     0
   182   188   184     0
   186   190   188     0
   147   184   190     0
   188   190   184     0
    66    71   194     0
    68   193    71     0
   192   194   193     0
    71   193   194     0
    59   196    76     0
   195   197   196     0
    68    76   197     0
   196   197    76     0
   185   198   200     0
   192   199   198     0
   195   200   199     0
   198   199   200     0
    68   197   193     0
   195   199   197     0
   192   193   199     0
   197   199   193     0
    30   163    57     0
   161   201   163     0
    56    57   201     0
   163   201    57     0
   152   203   167     0
   202   204   203     0
   161   167   204     0
   203   204   167     0
    59    63   206     0
    56   205    63     0
   202   206   205     0
    63   205   206     0
   161   204   201     0
   202   205   204     0
    56   201   205     0
   204   205   201     0
   185   200   187     0
   195   207   200     0
   186   187   207     0
   200   207   187     0
    59   206   196     0
   202   208   206     0
   195   196   208     0
   206   208   196     0
   152   191   203     0
   186   209   191     0
   202   203   209     0
   191   209   203     0
   195   208   207     0
   202   209   208     0
   186   207   209     0
   208   209   207     0
   146   211   183     0
   210   212   211     0
   182   183   212     0
   211   212   183     0
   213   215   217     0
   214   216   215     0
   210   217   216     0
   215   216   217     0
   185   189   219     0
   182   218   189     0
   214   219   218     0
   189   218   219     0
   210   216   212     0
   214   218   216     0
   182   212   218     0
   216   218   212     0
   102   107   222     0
   104   221   107     0
   220   222   221     0
   107   221   222     0
    95   224   112     0
   223   225   224     0
   104   112   225     0
   224   225   112     0
   213   226   228     0
   220   227   226     0
   223   228   227     0
   226   227   228     0
   104   225   221     0
   223   227   225     0
   220   221   227     0
   225   227   221     0
    66   194    93     0
   192   229   194     0
    92    93   229     0
   194   229    93     0
   185   231   198     0
   230   232   231     0
   192   198   232     0
   231   232   198     0
    95    99   234     0
    92   233    99     0
   230   234   233     0
    99   233   234     0
   192   232   229     0
   230   233   232     0
    92   229   233     0
   232   233   229     0
   213   228   215     0
   223   235   228     0
   214   215   235     0
   228   235   215     0
    95   234   224     0
   230   236   234     0
   223   224   236     0
   234   236   224     0
   185   219   231     0
   214   237   219     0
   230   231   237     0
   219   237   231     0
   223   236   235     0
   230   237   236     0
   214   235   237     0
   236   237   235     0
   146   151   211     0
   148   238   151     0
   210   211   238     0
   151   238   211     0
   157   240   158     0
   239   241   240     0
   148   158   241     0
   240   241   158     0
   213   217   243     0
   210   242   217     0
   239   243   242     0
   217   242   243     0
   148   241   238     0
   239   242   241     0
   210   238   242     0
   241   242   238     0
    16   136   171     0
   134   244   136     0
   170   171   244     0
   136   244   171     0
   127   246   140     0
   245   247   246     0
   134   140   247     0
   246   247   140     0
   157   176   249     0
   170   248   176     0
   245   249   248     0
   176   248   249     0
   134   247   244     0
   245   248   247     0
   170   244   248     0
   247   248   244     0
   102   222   125     0
   220   250   222     0
   124   125   250     0
   222   250   125     0
   213   252   226     0
   251   253   252     0
   220   226   253     0
   252   253   226     0
   127   131   255     0
   124   254   131     0
   251   255   254     0
   131   254   255     0
   220   253   250     0
   251   254   253     0
   124   250   254     0
   253   254   250     0
   157   249   240     0
   245   256   249     0
   239   240   256     0
   249   256   240     0
   127   255   246     0
   251   257   255     0
   245   246   257     0
   255   257   246     0
   213   243   252     0
   239   258   243     0
   251   252   258     0
   243   258   252     0
   245   257   256     0
   251   258   257     0
   239   256   258     0
   257   258   256     0
End